{"glyphs":{"0":{"ha":929,"x_min":65,"x_max":865,"o":"m 465 -13 q 168 116 272 -13 q 65 514 65 246 q 168 912 65 783 q 465 1041 272 1041 q 761 911 657 1041 q 865 514 865 782 q 760 116 865 246 q 465 -13 656 -13 m 465 172 q 562 204 523 172 q 621 311 601 236 q 642 513 642 386 q 621 716 642 641 q 562 824 601 792 q 465 856 523 856 q 367 824 406 856 q 308 717 328 792 q 288 515 288 642 q 308 311 288 386 q 367 204 328 236 q 465 172 406 172 z "},"1":{"ha":578,"x_min":19,"x_max":479,"o":"m 333 1031 l 479 1031 l 479 0 l 252 0 l 252 763 l 19 601 l 19 813 l 333 1031 z "},"2":{"ha":746,"x_min":20,"x_max":709,"o":"m 709 187 l 709 0 l 33 0 l 33 122 l 318 476 q 410 615 383 558 q 437 722 437 672 q 392 826 437 793 q 249 859 348 859 q 129 848 189 859 q 20 819 69 838 l 20 1003 q 139 1030 68 1019 q 272 1041 209 1041 q 564 969 467 1041 q 660 744 660 897 q 626 585 660 663 q 513 409 593 506 l 331 187 l 709 187 z "},"3":{"ha":756,"x_min":30,"x_max":713,"o":"m 506 531 q 660 448 606 510 q 713 285 713 385 q 609 65 713 143 q 299 -13 504 -13 q 30 22 156 -13 l 30 191 q 158 165 90 174 q 289 155 227 155 q 449 191 398 155 q 500 299 500 227 q 450 405 500 369 q 289 440 401 440 l 139 440 l 139 611 l 256 611 q 413 645 363 611 q 463 746 463 680 q 418 841 463 809 q 280 873 374 873 q 160 863 222 873 q 48 834 99 853 l 48 1003 q 168 1031 98 1020 q 304 1041 239 1041 q 585 970 490 1041 q 680 765 680 899 q 634 618 680 679 q 506 531 588 556 z "},"4":{"ha":884,"x_min":26,"x_max":862,"o":"m 862 386 l 862 211 l 729 211 l 729 0 l 526 0 l 526 211 l 26 211 l 26 335 l 383 1028 l 601 1028 l 274 386 l 526 386 l 548 681 l 729 681 l 729 386 l 862 386 z "},"5":{"ha":765,"x_min":49,"x_max":731,"o":"m 302 622 q 549 576 455 613 q 688 472 644 538 q 731 306 731 406 q 626 68 731 149 q 317 -13 521 -13 q 49 25 178 -13 l 49 194 q 177 167 108 177 q 308 157 246 157 q 467 193 416 157 q 517 301 517 229 q 491 383 517 351 q 399 432 465 414 q 213 457 333 450 l 81 465 l 117 1028 l 690 1028 l 690 854 l 318 854 l 302 622 z "},"6":{"ha":869,"x_min":72,"x_max":831,"o":"m 503 618 q 674 585 600 618 q 789 482 747 551 q 831 308 831 413 q 788 136 831 209 q 663 25 744 64 q 473 -13 582 -13 q 178 107 285 -13 q 72 481 72 228 q 199 901 72 760 q 569 1041 327 1041 q 778 1010 696 1041 l 778 837 q 580 869 690 869 q 367 793 438 869 q 292 560 297 718 q 389 603 333 588 q 503 618 445 618 m 474 149 q 585 188 544 149 q 626 302 626 226 q 582 418 626 380 q 459 456 538 456 q 371 443 415 456 q 292 406 328 431 q 319 253 297 309 q 381 173 342 197 q 474 149 419 149 z "},"7":{"ha":711,"x_min":8,"x_max":671,"o":"m 8 1028 l 671 1028 l 671 906 l 340 0 l 108 0 l 431 841 l 8 841 l 8 1028 z "},"8":{"ha":929,"x_min":56,"x_max":872,"o":"m 685 542 q 829 434 786 496 q 872 282 872 372 q 826 129 872 196 q 690 25 781 63 q 467 -13 599 -13 q 237 20 329 -13 q 100 115 144 54 q 56 256 56 175 q 103 403 56 339 q 240 505 151 467 q 121 613 158 551 q 84 756 84 674 q 129 906 84 841 q 262 1006 174 970 q 477 1041 350 1041 q 674 1010 592 1041 q 800 920 756 978 q 843 781 843 862 q 805 644 843 706 q 685 542 767 583 m 474 885 q 342 852 387 885 q 298 764 298 819 q 317 695 298 723 q 386 643 335 667 q 533 594 437 619 q 620 667 594 627 q 647 759 647 707 q 603 853 647 820 q 474 885 559 885 m 468 142 q 613 175 565 142 q 661 269 661 208 q 641 339 661 310 q 569 390 620 367 q 426 436 519 413 q 385 447 401 442 q 297 376 327 419 q 267 282 267 333 q 317 178 267 214 q 468 142 367 142 z "},"9":{"ha":869,"x_min":38,"x_max":797,"o":"m 396 1041 q 691 920 584 1041 q 797 547 797 800 q 669 127 797 267 q 300 -13 542 -13 q 90 18 173 -13 l 90 191 q 289 159 178 159 q 501 234 431 159 q 577 467 572 310 q 480 425 535 440 q 365 410 424 410 q 195 443 269 410 q 80 546 122 476 q 38 719 38 615 q 81 891 38 819 q 206 1002 125 964 q 396 1041 287 1041 m 242 726 q 286 610 242 648 q 410 572 331 572 q 498 585 454 572 q 576 622 541 597 q 549 775 572 719 q 488 855 526 831 q 394 878 449 878 q 284 840 325 878 q 242 726 242 801 z "},"\u0000":{"ha":0,"x_min":0,"x_max":0,"o":""},"\r":{"ha":349,"x_min":0,"x_max":0,"o":""}," ":{"ha":349,"x_min":0,"x_max":0,"o":""},"A":{"ha":1014,"x_min":10,"x_max":1004,"o":"m 781 0 l 697 274 l 315 274 l 231 0 l 10 0 l 342 1028 l 672 1028 l 1004 0 l 781 0 m 370 454 l 641 454 l 506 892 l 370 454 z "},"Á":{"ha":1014,"x_min":10,"x_max":1004,"o":"m 781 0 l 697 274 l 315 274 l 231 0 l 10 0 l 342 1028 l 672 1028 l 1004 0 l 781 0 m 370 454 l 641 454 l 506 892 l 370 454 m 405 1108 l 530 1318 l 764 1318 l 606 1108 l 405 1108 z "},"Ă":{"ha":1014,"x_min":10,"x_max":1004,"o":"m 781 0 l 697 274 l 315 274 l 231 0 l 10 0 l 342 1028 l 672 1028 l 1004 0 l 781 0 m 370 454 l 641 454 l 506 892 l 370 454 m 507 1110 q 319 1164 386 1110 q 240 1312 251 1217 l 376 1312 q 416 1242 385 1265 q 507 1219 447 1219 q 597 1242 567 1219 q 636 1312 628 1265 l 772 1312 q 694 1164 761 1217 q 507 1110 627 1110 z "},"Ắ":{"ha":1014,"x_min":10,"x_max":1004,"o":"m 781 0 l 697 274 l 315 274 l 231 0 l 10 0 l 342 1028 l 672 1028 l 1004 0 l 781 0 m 370 454 l 641 454 l 506 892 l 370 454 m 446 1273 l 528 1440 l 679 1440 l 567 1273 l 446 1273 m 506 1110 q 328 1158 392 1110 q 253 1291 265 1206 l 372 1291 q 410 1224 381 1246 q 506 1203 440 1203 q 579 1213 551 1203 q 622 1242 607 1223 q 646 1291 637 1260 l 760 1291 q 684 1158 747 1206 q 506 1110 620 1110 z "},"Ặ":{"ha":1014,"x_min":10,"x_max":1004,"o":"m 781 0 l 697 274 l 315 274 l 231 0 l 10 0 l 342 1028 l 672 1028 l 1004 0 l 781 0 m 370 454 l 641 454 l 506 892 l 370 454 m 507 -290 q 406 -264 440 -290 q 371 -190 371 -237 q 406 -115 371 -142 q 507 -89 440 -89 q 608 -115 574 -89 q 643 -190 643 -142 q 608 -264 643 -237 q 507 -290 574 -290 m 507 1110 q 319 1164 386 1110 q 240 1312 251 1217 l 376 1312 q 416 1242 385 1265 q 507 1219 447 1219 q 597 1242 567 1219 q 636 1312 628 1265 l 772 1312 q 694 1164 761 1217 q 507 1110 627 1110 z "},"Ằ":{"ha":1014,"x_min":10,"x_max":1004,"o":"m 781 0 l 697 274 l 315 274 l 231 0 l 10 0 l 342 1028 l 672 1028 l 1004 0 l 781 0 m 370 454 l 641 454 l 506 892 l 370 454 m 446 1273 l 333 1440 l 485 1440 l 567 1273 l 446 1273 m 506 1110 q 328 1158 392 1110 q 253 1291 265 1206 l 367 1291 q 410 1224 380 1246 q 506 1203 440 1203 q 602 1224 572 1203 q 641 1291 631 1246 l 760 1291 q 684 1158 747 1206 q 506 1110 620 1110 z "},"Ẳ":{"ha":1014,"x_min":10,"x_max":1004,"o":"m 781 0 l 697 274 l 315 274 l 231 0 l 10 0 l 342 1028 l 672 1028 l 1004 0 l 781 0 m 370 454 l 641 454 l 506 892 l 370 454 m 450 1273 q 471 1316 452 1301 q 525 1345 490 1331 q 557 1361 547 1355 q 566 1376 566 1367 q 490 1400 566 1400 q 356 1384 423 1400 l 356 1457 q 428 1469 386 1465 q 506 1474 469 1474 q 640 1453 597 1474 q 683 1390 683 1432 q 666 1349 683 1364 q 615 1317 649 1334 q 576 1295 589 1305 q 562 1273 564 1286 l 450 1273 m 506 1110 q 328 1158 391 1110 q 253 1291 265 1206 l 372 1291 q 410 1224 381 1246 q 506 1203 440 1203 q 602 1224 572 1203 q 646 1291 633 1246 l 760 1291 q 684 1158 747 1206 q 506 1110 620 1110 z "},"Ẵ":{"ha":1014,"x_min":10,"x_max":1004,"o":"m 781 0 l 697 274 l 315 274 l 231 0 l 10 0 l 342 1028 l 672 1028 l 1004 0 l 781 0 m 370 454 l 641 454 l 506 892 l 370 454 m 612 1326 q 556 1333 583 1326 q 493 1350 528 1339 q 439 1365 459 1360 q 399 1369 419 1369 q 329 1359 361 1369 q 253 1323 297 1349 l 253 1419 q 324 1453 290 1444 q 401 1463 358 1463 q 454 1457 429 1463 q 519 1440 479 1451 q 572 1425 551 1430 q 614 1419 593 1419 q 684 1430 651 1419 q 760 1466 716 1440 l 760 1369 q 689 1335 723 1344 q 612 1326 656 1326 m 506 1110 q 328 1158 391 1110 q 253 1291 265 1206 l 372 1291 q 410 1224 381 1246 q 506 1203 440 1203 q 601 1224 572 1203 q 641 1291 631 1246 l 760 1291 q 684 1158 747 1206 q 506 1110 620 1110 z "},"Â":{"ha":1014,"x_min":10,"x_max":1004,"o":"m 781 0 l 697 274 l 315 274 l 231 0 l 10 0 l 342 1028 l 672 1028 l 1004 0 l 781 0 m 370 454 l 641 454 l 506 892 l 370 454 m 778 1108 l 610 1108 l 506 1236 l 403 1108 l 234 1108 l 412 1318 l 601 1318 l 778 1108 z "},"Ấ":{"ha":1014,"x_min":10,"x_max":1004,"o":"m 781 0 l 697 274 l 315 274 l 231 0 l 10 0 l 342 1028 l 672 1028 l 1004 0 l 781 0 m 370 454 l 641 454 l 506 892 l 370 454 m 762 1433 l 914 1433 l 801 1262 l 680 1262 l 762 1433 m 412 1297 l 601 1297 l 778 1108 l 610 1108 l 506 1224 l 403 1108 l 234 1108 l 412 1297 z "},"Ậ":{"ha":1014,"x_min":10,"x_max":1004,"o":"m 781 0 l 697 274 l 315 274 l 231 0 l 10 0 l 342 1028 l 672 1028 l 1004 0 l 781 0 m 370 454 l 641 454 l 506 892 l 370 454 m 507 -290 q 406 -264 440 -290 q 371 -190 371 -237 q 406 -115 371 -142 q 507 -89 440 -89 q 608 -115 574 -89 q 643 -190 643 -142 q 608 -264 643 -237 q 507 -290 574 -290 m 778 1108 l 610 1108 l 506 1236 l 403 1108 l 234 1108 l 412 1318 l 601 1318 l 778 1108 z "},"Ầ":{"ha":1014,"x_min":10,"x_max":1004,"o":"m 781 0 l 697 274 l 315 274 l 231 0 l 10 0 l 342 1028 l 672 1028 l 1004 0 l 781 0 m 370 454 l 641 454 l 506 892 l 370 454 m 825 1262 l 703 1262 l 591 1433 l 742 1433 l 825 1262 m 412 1297 l 601 1297 l 778 1108 l 610 1108 l 506 1224 l 403 1108 l 234 1108 l 412 1297 z "},"Ẩ":{"ha":1014,"x_min":10,"x_max":1004,"o":"m 781 0 l 697 274 l 315 274 l 231 0 l 10 0 l 342 1028 l 672 1028 l 1004 0 l 781 0 m 370 454 l 641 454 l 506 892 l 370 454 m 735 1463 q 913 1378 913 1463 q 895 1338 913 1353 q 844 1306 878 1323 q 805 1285 817 1294 q 791 1262 793 1276 l 679 1262 q 700 1305 681 1290 q 754 1334 719 1319 q 786 1350 776 1344 q 795 1365 795 1356 q 719 1389 795 1389 q 585 1373 653 1389 l 585 1445 q 657 1458 615 1453 q 735 1463 699 1463 m 412 1297 l 601 1297 l 778 1108 l 610 1108 l 506 1224 l 403 1108 l 234 1108 l 412 1297 z "},"Ẫ":{"ha":1014,"x_min":10,"x_max":1004,"o":"m 781 0 l 697 274 l 315 274 l 231 0 l 10 0 l 342 1028 l 672 1028 l 1004 0 l 781 0 m 370 454 l 641 454 l 506 892 l 370 454 m 626 1419 q 701 1430 667 1419 q 778 1466 735 1440 l 778 1369 q 707 1335 742 1344 q 624 1326 672 1326 q 561 1333 591 1326 q 492 1350 531 1339 q 432 1365 454 1360 q 386 1369 409 1369 q 311 1359 346 1369 q 234 1323 277 1349 l 234 1419 q 306 1453 271 1444 q 388 1463 342 1463 q 449 1457 421 1463 q 521 1440 478 1451 q 579 1425 556 1430 q 626 1419 603 1419 m 412 1297 l 601 1297 l 778 1108 l 610 1108 l 506 1224 l 403 1108 l 234 1108 l 412 1297 z "},"Ȁ":{"ha":1014,"x_min":10,"x_max":1004,"o":"m 781 0 l 697 274 l 315 274 l 231 0 l 10 0 l 342 1028 l 672 1028 l 1004 0 l 781 0 m 370 454 l 641 454 l 506 892 l 370 454 m 284 1108 l 178 1318 l 353 1318 l 448 1108 l 284 1108 m 565 1108 l 459 1318 l 634 1318 l 728 1108 l 565 1108 z "},"Ä":{"ha":1014,"x_min":10,"x_max":1004,"o":"m 781 0 l 697 274 l 315 274 l 231 0 l 10 0 l 342 1028 l 672 1028 l 1004 0 l 781 0 m 370 454 l 641 454 l 506 892 l 370 454 m 328 1115 q 239 1141 269 1115 q 208 1216 208 1167 q 239 1290 208 1264 q 328 1317 269 1317 q 417 1290 386 1317 q 447 1216 447 1264 q 417 1141 447 1167 q 328 1115 387 1115 m 685 1115 q 595 1141 626 1115 q 565 1216 565 1167 q 596 1290 565 1264 q 685 1317 626 1317 q 774 1290 743 1317 q 804 1216 804 1264 q 774 1141 804 1167 q 685 1115 743 1115 z "},"Ạ":{"ha":1014,"x_min":10,"x_max":1004,"o":"m 781 0 l 697 274 l 315 274 l 231 0 l 10 0 l 342 1028 l 672 1028 l 1004 0 l 781 0 m 370 454 l 641 454 l 506 892 l 370 454 m 507 -290 q 406 -264 440 -290 q 371 -190 371 -237 q 406 -115 371 -142 q 507 -89 440 -89 q 608 -115 574 -89 q 643 -190 643 -142 q 608 -264 643 -237 q 507 -290 574 -290 z "},"À":{"ha":1014,"x_min":10,"x_max":1004,"o":"m 781 0 l 697 274 l 315 274 l 231 0 l 10 0 l 342 1028 l 672 1028 l 1004 0 l 781 0 m 370 454 l 641 454 l 506 892 l 370 454 m 406 1108 l 248 1318 l 481 1318 l 606 1108 l 406 1108 z "},"Ả":{"ha":1014,"x_min":10,"x_max":1004,"o":"m 781 0 l 697 274 l 315 274 l 231 0 l 10 0 l 342 1028 l 672 1028 l 1004 0 l 781 0 m 370 454 l 641 454 l 506 892 l 370 454 m 450 1108 q 472 1155 452 1138 q 526 1188 491 1172 q 557 1205 547 1198 q 566 1222 566 1212 q 548 1241 566 1235 q 490 1248 529 1248 q 356 1231 425 1248 l 356 1313 q 426 1326 385 1322 q 506 1331 467 1331 q 640 1308 597 1331 q 683 1238 683 1284 q 674 1203 683 1218 q 650 1179 664 1188 q 615 1157 637 1169 q 577 1133 590 1143 q 562 1108 564 1122 l 450 1108 z "},"Ȃ":{"ha":1014,"x_min":10,"x_max":1004,"o":"m 781 0 l 697 274 l 315 274 l 231 0 l 10 0 l 342 1028 l 672 1028 l 1004 0 l 781 0 m 370 454 l 641 454 l 506 892 l 370 454 m 240 1113 q 318 1261 251 1208 q 506 1315 385 1315 q 694 1261 626 1315 q 772 1113 761 1208 l 636 1113 q 597 1184 628 1160 q 506 1207 565 1207 q 415 1184 446 1207 q 376 1113 385 1160 l 240 1113 z "},"Ā":{"ha":1014,"x_min":10,"x_max":1004,"o":"m 781 0 l 697 274 l 315 274 l 231 0 l 10 0 l 342 1028 l 672 1028 l 1004 0 l 781 0 m 370 454 l 641 454 l 506 892 l 370 454 m 251 1147 l 251 1280 l 762 1280 l 762 1147 l 251 1147 z "},"Ą":{"ha":1014,"x_min":10,"x_max":1041,"o":"m 942 -218 q 1041 -197 987 -218 l 1041 -284 q 913 -307 981 -307 q 767 -269 816 -307 q 717 -162 717 -231 q 743 -74 717 -114 q 828 0 769 -33 l 781 0 l 697 274 l 315 274 l 231 0 l 10 0 l 342 1028 l 672 1028 l 1004 0 q 880 -70 915 -35 q 844 -147 844 -105 q 942 -218 844 -218 m 370 454 l 641 454 l 506 892 l 370 454 z "},"Å":{"ha":1014,"x_min":10,"x_max":1004,"o":"m 781 0 l 697 274 l 315 274 l 231 0 l 10 0 l 342 1028 l 672 1028 l 1004 0 l 781 0 m 370 454 l 641 454 l 506 892 l 370 454 m 507 1061 q 431 1080 465 1061 q 377 1132 397 1099 q 358 1206 358 1165 q 377 1281 358 1248 q 431 1333 397 1315 q 507 1352 465 1352 q 583 1333 549 1352 q 637 1281 617 1315 q 656 1206 656 1248 q 637 1132 656 1165 q 583 1080 617 1099 q 507 1061 549 1061 m 507 1140 q 554 1158 536 1140 q 572 1206 572 1176 q 554 1256 572 1238 q 507 1274 536 1274 q 460 1256 478 1274 q 442 1206 442 1238 q 460 1158 442 1176 q 507 1140 478 1140 z "},"Ǻ":{"ha":1014,"x_min":10,"x_max":1004,"o":"m 781 0 l 697 274 l 315 274 l 231 0 l 10 0 l 342 1028 l 672 1028 l 1004 0 l 781 0 m 370 454 l 641 454 l 506 892 l 370 454 m 637 1282 q 656 1207 656 1249 q 637 1132 656 1165 q 583 1081 617 1099 q 507 1062 549 1062 q 431 1081 465 1062 q 377 1132 397 1099 q 358 1207 358 1165 q 377 1282 358 1249 q 431 1333 397 1315 q 507 1352 465 1352 q 542 1349 524 1352 l 615 1436 l 776 1436 l 637 1282 m 507 1140 q 554 1158 536 1140 q 572 1207 572 1176 q 554 1256 572 1238 q 507 1274 536 1274 q 460 1256 478 1274 q 442 1207 442 1238 q 460 1158 442 1176 q 507 1140 478 1140 z "},"Ã":{"ha":1014,"x_min":10,"x_max":1004,"o":"m 781 0 l 697 274 l 315 274 l 231 0 l 10 0 l 342 1028 l 672 1028 l 1004 0 l 781 0 m 370 454 l 641 454 l 506 892 l 370 454 m 626 1124 q 565 1131 592 1124 q 494 1152 537 1138 q 433 1171 456 1165 q 383 1177 409 1177 q 309 1165 341 1177 q 244 1128 277 1153 l 244 1256 q 307 1294 273 1281 q 387 1306 340 1306 q 449 1299 420 1306 q 518 1278 478 1292 q 579 1258 554 1265 q 630 1252 603 1252 q 703 1264 672 1252 q 768 1301 735 1276 l 768 1174 q 707 1136 740 1148 q 626 1124 673 1124 z "},"Æ":{"ha":1394,"x_min":10,"x_max":1345,"o":"m 889 181 l 1345 181 l 1345 0 l 679 0 l 659 274 l 318 274 l 232 0 l 10 0 l 344 1028 l 1338 1028 l 1338 847 l 835 847 l 854 616 l 1267 616 l 1267 435 l 869 435 l 889 181 m 375 455 l 645 455 l 616 847 l 498 847 l 375 455 z "},"Ǽ":{"ha":1394,"x_min":10,"x_max":1345,"o":"m 889 181 l 1345 181 l 1345 0 l 679 0 l 659 274 l 318 274 l 232 0 l 10 0 l 344 1028 l 1338 1028 l 1338 847 l 835 847 l 854 616 l 1267 616 l 1267 435 l 869 435 l 889 181 m 375 455 l 645 455 l 616 847 l 498 847 l 375 455 m 612 1108 l 737 1318 l 971 1318 l 813 1108 l 612 1108 z "},"B":{"ha":926,"x_min":92,"x_max":889,"o":"m 697 531 q 838 450 788 511 q 889 288 889 388 q 839 123 889 190 q 676 23 788 57 q 382 -12 565 -12 q 237 -6 317 -12 q 92 8 158 -1 l 92 1005 q 253 1031 165 1021 q 422 1040 340 1040 q 755 970 650 1040 q 860 754 860 899 q 817 613 860 672 q 697 531 774 553 m 451 876 q 314 863 381 876 l 314 610 l 460 610 q 605 642 561 610 q 648 742 648 674 q 628 819 648 790 q 566 862 609 848 q 451 876 523 876 m 442 153 q 583 169 531 153 q 657 216 635 185 q 679 297 679 247 q 633 406 679 372 q 482 440 587 440 l 314 440 l 314 159 q 442 153 366 153 z "},"C":{"ha":860,"x_min":58,"x_max":826,"o":"m 595 -13 q 194 114 331 -13 q 58 512 58 242 q 199 908 58 774 q 606 1041 340 1041 q 826 1017 725 1041 l 826 831 q 624 854 726 854 q 439 819 511 854 q 331 710 367 785 q 295 515 295 635 q 331 316 295 391 q 436 207 366 241 q 616 174 506 174 q 826 206 715 174 l 826 19 q 716 -5 776 4 q 595 -13 656 -13 z "},"Ć":{"ha":860,"x_min":58,"x_max":826,"o":"m 595 -13 q 194 114 331 -13 q 58 512 58 242 q 199 908 58 774 q 606 1041 340 1041 q 826 1017 725 1041 l 826 831 q 624 854 726 854 q 439 819 511 854 q 331 710 367 785 q 295 515 295 635 q 331 316 295 391 q 436 207 366 241 q 616 174 506 174 q 826 206 715 174 l 826 19 q 716 -5 776 4 q 595 -13 656 -13 m 421 1108 l 546 1318 l 780 1318 l 622 1108 l 421 1108 z "},"Č":{"ha":860,"x_min":58,"x_max":826,"o":"m 595 -13 q 194 114 331 -13 q 58 512 58 242 q 199 908 58 774 q 606 1041 340 1041 q 826 1017 725 1041 l 826 831 q 624 854 726 854 q 439 819 511 854 q 331 710 367 785 q 295 515 295 635 q 331 316 295 391 q 436 207 366 241 q 616 174 506 174 q 826 206 715 174 l 826 19 q 716 -5 776 4 q 595 -13 656 -13 m 626 1318 l 794 1318 l 617 1108 l 428 1108 l 250 1318 l 419 1318 l 522 1190 l 626 1318 z "},"Ç":{"ha":860,"x_min":58,"x_max":826,"o":"m 624 854 q 439 819 511 854 q 331 710 367 785 q 295 515 295 635 q 331 316 295 391 q 436 207 366 241 q 616 174 506 174 q 826 206 715 174 l 826 19 q 716 -5 776 4 q 595 -13 656 -13 q 565 -12 575 -13 l 565 -60 q 660 -99 628 -68 q 693 -180 693 -130 q 645 -274 693 -240 q 503 -307 597 -307 q 363 -285 426 -307 l 363 -199 q 493 -222 423 -222 q 556 -210 535 -222 q 576 -173 576 -199 q 492 -122 576 -122 l 458 -122 l 458 -3 q 159 153 261 26 q 58 512 58 279 q 199 908 58 774 q 606 1041 340 1041 q 826 1017 725 1041 l 826 831 q 624 854 726 854 z "},"Ḉ":{"ha":860,"x_min":58,"x_max":826,"o":"m 780 1318 l 622 1108 l 421 1108 l 546 1318 l 780 1318 m 624 854 q 439 819 511 854 q 331 710 367 785 q 295 515 295 635 q 331 316 295 391 q 436 207 366 241 q 616 174 506 174 q 826 206 715 174 l 826 19 q 716 -5 776 4 q 595 -13 656 -13 q 565 -12 575 -13 l 565 -60 q 660 -99 628 -68 q 693 -180 693 -130 q 645 -274 693 -240 q 503 -307 597 -307 q 363 -285 426 -307 l 363 -199 q 493 -222 423 -222 q 556 -210 535 -222 q 576 -173 576 -199 q 492 -122 576 -122 l 458 -122 l 458 -3 q 159 153 261 26 q 58 512 58 279 q 199 908 58 774 q 606 1041 340 1041 q 826 1017 725 1041 l 826 831 q 624 854 726 854 z "},"Ĉ":{"ha":860,"x_min":58,"x_max":826,"o":"m 595 -13 q 194 114 331 -13 q 58 512 58 242 q 199 908 58 774 q 606 1041 340 1041 q 826 1017 725 1041 l 826 831 q 624 854 726 854 q 439 819 511 854 q 331 710 367 785 q 295 515 295 635 q 331 316 295 391 q 436 207 366 241 q 616 174 506 174 q 826 206 715 174 l 826 19 q 716 -5 776 4 q 595 -13 656 -13 m 794 1108 l 626 1108 l 522 1236 l 419 1108 l 250 1108 l 428 1318 l 617 1318 l 794 1108 z "},"Ċ":{"ha":860,"x_min":58,"x_max":826,"o":"m 595 -13 q 194 114 331 -13 q 58 512 58 242 q 199 908 58 774 q 606 1041 340 1041 q 826 1017 725 1041 l 826 831 q 624 854 726 854 q 439 819 511 854 q 331 710 367 785 q 295 515 295 635 q 331 316 295 391 q 436 207 366 241 q 616 174 506 174 q 826 206 715 174 l 826 19 q 716 -5 776 4 q 595 -13 656 -13 m 522 1115 q 421 1141 456 1115 q 386 1216 386 1167 q 421 1290 386 1264 q 522 1317 456 1317 q 624 1290 589 1317 q 658 1216 658 1264 q 624 1141 658 1167 q 522 1115 589 1115 z "},"D":{"ha":1042,"x_min":92,"x_max":985,"o":"m 374 -10 q 92 6 226 -10 l 92 1005 q 251 1030 165 1021 q 419 1039 338 1039 q 843 910 701 1039 q 985 514 985 781 q 917 215 985 331 q 715 44 850 99 q 374 -10 581 -10 m 433 174 q 613 208 542 174 q 717 317 683 242 q 752 515 752 392 q 717 711 752 636 q 612 822 682 787 q 434 856 542 856 q 319 846 379 856 l 319 178 q 433 174 363 174 z "},"Ǳ":{"ha":1869,"x_min":92,"x_max":1828,"o":"m 374 -10 q 92 6 226 -10 l 92 1005 q 251 1030 165 1021 q 419 1039 338 1039 q 843 910 701 1039 q 985 514 985 781 q 917 215 985 331 q 715 44 850 99 q 374 -10 581 -10 m 433 174 q 613 208 542 174 q 717 317 683 242 q 752 515 752 392 q 717 711 752 636 q 612 822 682 787 q 434 856 542 856 q 319 846 379 856 l 319 178 q 433 174 363 174 m 1342 188 l 1828 188 l 1828 0 l 1050 0 l 1050 124 l 1528 840 l 1058 840 l 1058 1028 l 1821 1028 l 1821 903 l 1342 188 z "},"Ǆ":{"ha":1869,"x_min":92,"x_max":1828,"o":"m 374 -10 q 92 6 226 -10 l 92 1005 q 251 1030 165 1021 q 419 1039 338 1039 q 843 910 701 1039 q 985 514 985 781 q 917 215 985 331 q 715 44 850 99 q 374 -10 581 -10 m 433 174 q 613 208 542 174 q 717 317 683 242 q 752 515 752 392 q 717 711 752 636 q 612 822 682 787 q 434 856 542 856 q 319 846 379 856 l 319 178 q 433 174 363 174 m 1342 188 l 1828 188 l 1828 0 l 1050 0 l 1050 124 l 1528 840 l 1058 840 l 1058 1028 l 1821 1028 l 1821 903 l 1342 188 m 1543 1318 l 1712 1318 l 1534 1108 l 1345 1108 l 1167 1318 l 1336 1318 l 1440 1190 l 1543 1318 z "},"Ð":{"ha":1042,"x_min":3,"x_max":985,"o":"m 419 1039 q 843 910 701 1039 q 985 514 985 781 q 917 215 985 331 q 715 44 850 99 q 374 -10 581 -10 q 92 6 226 -10 l 92 457 l 3 457 l 3 601 l 92 601 l 92 1005 q 251 1030 165 1021 q 419 1039 338 1039 m 433 174 q 613 208 542 174 q 717 317 683 242 q 752 515 752 392 q 717 711 752 636 q 612 822 682 787 q 434 856 542 856 q 319 846 379 856 l 319 601 l 508 601 l 508 457 l 319 457 l 319 178 q 433 174 363 174 z "},"Ď":{"ha":1042,"x_min":92,"x_max":985,"o":"m 374 -10 q 92 6 226 -10 l 92 1005 q 251 1030 165 1021 q 419 1039 338 1039 q 843 910 701 1039 q 985 514 985 781 q 917 215 985 331 q 715 44 850 99 q 374 -10 581 -10 m 433 174 q 613 208 542 174 q 717 317 683 242 q 752 515 752 392 q 717 711 752 636 q 612 822 682 787 q 434 856 542 856 q 319 846 379 856 l 319 178 q 433 174 363 174 m 569 1318 l 738 1318 l 560 1108 l 371 1108 l 193 1318 l 362 1318 l 465 1190 l 569 1318 z "},"Đ":{"ha":1042,"x_min":3,"x_max":985,"o":"m 419 1039 q 843 910 701 1039 q 985 514 985 781 q 917 215 985 331 q 715 44 850 99 q 374 -10 581 -10 q 92 6 226 -10 l 92 457 l 3 457 l 3 601 l 92 601 l 92 1005 q 251 1030 165 1021 q 419 1039 338 1039 m 433 174 q 613 208 542 174 q 717 317 683 242 q 752 515 752 392 q 717 711 752 636 q 612 822 682 787 q 434 856 542 856 q 319 846 379 856 l 319 601 l 508 601 l 508 457 l 319 457 l 319 178 q 433 174 363 174 z "},"Ḍ":{"ha":1042,"x_min":92,"x_max":985,"o":"m 374 -10 q 92 6 226 -10 l 92 1005 q 251 1030 165 1021 q 419 1039 338 1039 q 843 910 701 1039 q 985 514 985 781 q 917 215 985 331 q 715 44 850 99 q 374 -10 581 -10 m 433 174 q 613 208 542 174 q 717 317 683 242 q 752 515 752 392 q 717 711 752 636 q 612 822 682 787 q 434 856 542 856 q 319 846 379 856 l 319 178 q 433 174 363 174 m 475 -290 q 374 -264 408 -290 q 339 -190 339 -237 q 374 -115 339 -142 q 475 -89 408 -89 q 576 -115 542 -89 q 611 -190 611 -142 q 576 -264 611 -237 q 475 -290 542 -290 z "},"Ḏ":{"ha":1042,"x_min":92,"x_max":985,"o":"m 374 -10 q 92 6 226 -10 l 92 1005 q 251 1030 165 1021 q 419 1039 338 1039 q 843 910 701 1039 q 985 514 985 781 q 917 215 985 331 q 715 44 850 99 q 374 -10 581 -10 m 433 174 q 613 208 542 174 q 717 317 683 242 q 752 515 752 392 q 717 711 752 636 q 612 822 682 787 q 434 856 542 856 q 319 846 379 856 l 319 178 q 433 174 363 174 m 219 -251 l 219 -118 l 731 -118 l 731 -251 l 219 -251 z "},"ǲ":{"ha":1747,"x_min":92,"x_max":1713,"o":"m 374 -10 q 92 6 226 -10 l 92 1005 q 251 1030 165 1021 q 419 1039 338 1039 q 843 910 701 1039 q 985 514 985 781 q 917 215 985 331 q 715 44 850 99 q 374 -10 581 -10 m 433 174 q 613 208 542 174 q 717 317 683 242 q 752 515 752 392 q 717 711 752 636 q 612 822 682 787 q 434 856 542 856 q 319 846 379 856 l 319 178 q 433 174 363 174 m 1363 175 l 1713 175 l 1713 0 l 1088 0 l 1088 141 l 1430 585 l 1095 585 l 1095 760 l 1705 760 l 1705 619 l 1363 175 z "},"ǅ":{"ha":1747,"x_min":92,"x_max":1713,"o":"m 374 -10 q 92 6 226 -10 l 92 1005 q 251 1030 165 1021 q 419 1039 338 1039 q 843 910 701 1039 q 985 514 985 781 q 917 215 985 331 q 715 44 850 99 q 374 -10 581 -10 m 433 174 q 613 208 542 174 q 717 317 683 242 q 752 515 752 392 q 717 711 752 636 q 612 822 682 787 q 434 856 542 856 q 319 846 379 856 l 319 178 q 433 174 363 174 m 1363 175 l 1713 175 l 1713 0 l 1088 0 l 1088 141 l 1430 585 l 1095 585 l 1095 760 l 1705 760 l 1705 619 l 1363 175 m 1504 1096 l 1673 1096 l 1495 885 l 1306 885 l 1128 1096 l 1297 1096 l 1401 967 l 1504 1096 z "},"E":{"ha":872,"x_min":92,"x_max":822,"o":"m 316 181 l 822 181 l 822 0 l 92 0 l 92 1028 l 815 1028 l 815 847 l 316 847 l 316 616 l 744 616 l 744 435 l 316 435 l 316 181 z "},"É":{"ha":872,"x_min":92,"x_max":822,"o":"m 316 181 l 822 181 l 822 0 l 92 0 l 92 1028 l 815 1028 l 815 847 l 316 847 l 316 616 l 744 616 l 744 435 l 316 435 l 316 181 m 367 1108 l 492 1318 l 726 1318 l 568 1108 l 367 1108 z "},"Ĕ":{"ha":872,"x_min":92,"x_max":822,"o":"m 316 181 l 822 181 l 822 0 l 92 0 l 92 1028 l 815 1028 l 815 847 l 316 847 l 316 616 l 744 616 l 744 435 l 316 435 l 316 181 m 469 1110 q 281 1164 349 1110 q 203 1312 214 1217 l 339 1312 q 378 1242 347 1265 q 469 1219 409 1219 q 560 1242 529 1219 q 599 1312 590 1265 l 735 1312 q 657 1164 724 1217 q 469 1110 590 1110 z "},"Ě":{"ha":872,"x_min":92,"x_max":822,"o":"m 316 181 l 822 181 l 822 0 l 92 0 l 92 1028 l 815 1028 l 815 847 l 316 847 l 316 616 l 744 616 l 744 435 l 316 435 l 316 181 m 572 1318 l 741 1318 l 563 1108 l 374 1108 l 197 1318 l 365 1318 l 469 1190 l 572 1318 z "},"Ḝ":{"ha":872,"x_min":92,"x_max":822,"o":"m 469 1110 q 281 1164 349 1110 q 203 1312 214 1217 l 339 1312 q 378 1242 347 1265 q 469 1219 409 1219 q 560 1242 529 1219 q 599 1312 590 1265 l 735 1312 q 657 1164 724 1217 q 469 1110 590 1110 m 510 0 l 510 -60 q 605 -99 572 -68 q 638 -180 638 -130 q 590 -274 638 -240 q 448 -307 542 -307 q 308 -285 370 -307 l 308 -199 q 438 -222 367 -222 q 500 -210 479 -222 q 521 -173 521 -199 q 437 -122 521 -122 l 403 -122 l 403 0 l 92 0 l 92 1028 l 815 1028 l 815 847 l 316 847 l 316 616 l 744 616 l 744 435 l 316 435 l 316 181 l 822 181 l 822 0 l 510 0 z "},"Ê":{"ha":872,"x_min":92,"x_max":822,"o":"m 316 181 l 822 181 l 822 0 l 92 0 l 92 1028 l 815 1028 l 815 847 l 316 847 l 316 616 l 744 616 l 744 435 l 316 435 l 316 181 m 741 1108 l 572 1108 l 469 1236 l 365 1108 l 197 1108 l 374 1318 l 563 1318 l 741 1108 z "},"Ế":{"ha":872,"x_min":92,"x_max":876,"o":"m 316 181 l 822 181 l 822 0 l 92 0 l 92 1028 l 815 1028 l 815 847 l 316 847 l 316 616 l 744 616 l 744 435 l 316 435 l 316 181 m 724 1433 l 876 1433 l 764 1262 l 642 1262 l 724 1433 m 374 1297 l 563 1297 l 741 1108 l 572 1108 l 469 1224 l 365 1108 l 197 1108 l 374 1297 z "},"Ệ":{"ha":872,"x_min":92,"x_max":822,"o":"m 316 181 l 822 181 l 822 0 l 92 0 l 92 1028 l 815 1028 l 815 847 l 316 847 l 316 616 l 744 616 l 744 435 l 316 435 l 316 181 m 469 -290 q 368 -264 403 -290 q 333 -190 333 -237 q 368 -115 333 -142 q 469 -89 403 -89 q 571 -115 536 -89 q 606 -190 606 -142 q 571 -264 606 -237 q 469 -290 536 -290 m 741 1108 l 572 1108 l 469 1236 l 365 1108 l 197 1108 l 374 1318 l 563 1318 l 741 1108 z "},"Ề":{"ha":872,"x_min":92,"x_max":822,"o":"m 316 181 l 822 181 l 822 0 l 92 0 l 92 1028 l 815 1028 l 815 847 l 316 847 l 316 616 l 744 616 l 744 435 l 316 435 l 316 181 m 788 1262 l 666 1262 l 553 1433 l 705 1433 l 788 1262 m 374 1297 l 563 1297 l 741 1108 l 572 1108 l 469 1224 l 365 1108 l 197 1108 l 374 1297 z "},"Ể":{"ha":872,"x_min":92,"x_max":875,"o":"m 316 181 l 822 181 l 822 0 l 92 0 l 92 1028 l 815 1028 l 815 847 l 316 847 l 316 616 l 744 616 l 744 435 l 316 435 l 316 181 m 698 1463 q 875 1378 875 1463 q 858 1338 875 1353 q 806 1306 840 1323 q 768 1285 780 1294 q 753 1262 756 1276 l 642 1262 q 663 1305 644 1290 q 717 1334 682 1319 q 748 1350 739 1344 q 758 1365 758 1356 q 681 1389 758 1389 q 547 1373 615 1389 l 547 1445 q 619 1458 577 1453 q 698 1463 661 1463 m 374 1297 l 563 1297 l 741 1108 l 572 1108 l 469 1224 l 365 1108 l 197 1108 l 374 1297 z "},"Ễ":{"ha":872,"x_min":92,"x_max":822,"o":"m 316 181 l 822 181 l 822 0 l 92 0 l 92 1028 l 815 1028 l 815 847 l 316 847 l 316 616 l 744 616 l 744 435 l 316 435 l 316 181 m 589 1419 q 664 1430 629 1419 q 741 1466 698 1440 l 741 1369 q 669 1335 705 1344 q 587 1326 634 1326 q 523 1333 553 1326 q 454 1350 493 1339 q 394 1365 417 1360 q 349 1369 372 1369 q 274 1359 308 1369 q 197 1323 240 1349 l 197 1419 q 269 1453 233 1444 q 351 1463 304 1463 q 412 1457 383 1463 q 483 1440 440 1451 q 542 1425 518 1430 q 589 1419 565 1419 m 374 1297 l 563 1297 l 741 1108 l 572 1108 l 469 1224 l 365 1108 l 197 1108 l 374 1297 z "},"Ȅ":{"ha":872,"x_min":92,"x_max":822,"o":"m 316 181 l 822 181 l 822 0 l 92 0 l 92 1028 l 815 1028 l 815 847 l 316 847 l 316 616 l 744 616 l 744 435 l 316 435 l 316 181 m 247 1108 l 140 1318 l 316 1318 l 410 1108 l 247 1108 m 527 1108 l 422 1318 l 597 1318 l 691 1108 l 527 1108 z "},"Ë":{"ha":872,"x_min":92,"x_max":822,"o":"m 316 181 l 822 181 l 822 0 l 92 0 l 92 1028 l 815 1028 l 815 847 l 316 847 l 316 616 l 744 616 l 744 435 l 316 435 l 316 181 m 290 1115 q 201 1141 232 1115 q 171 1216 171 1167 q 201 1290 171 1264 q 290 1317 232 1317 q 379 1290 349 1317 q 410 1216 410 1264 q 380 1141 410 1167 q 290 1115 349 1115 m 647 1115 q 558 1141 588 1115 q 528 1216 528 1167 q 558 1290 528 1264 q 647 1317 589 1317 q 736 1290 706 1317 q 767 1216 767 1264 q 736 1141 767 1167 q 647 1115 706 1115 z "},"Ė":{"ha":872,"x_min":92,"x_max":822,"o":"m 316 181 l 822 181 l 822 0 l 92 0 l 92 1028 l 815 1028 l 815 847 l 316 847 l 316 616 l 744 616 l 744 435 l 316 435 l 316 181 m 469 1115 q 367 1141 402 1115 q 333 1216 333 1167 q 367 1290 333 1264 q 469 1317 402 1317 q 570 1290 535 1317 q 605 1216 605 1264 q 570 1141 605 1167 q 469 1115 535 1115 z "},"Ẹ":{"ha":872,"x_min":92,"x_max":822,"o":"m 316 181 l 822 181 l 822 0 l 92 0 l 92 1028 l 815 1028 l 815 847 l 316 847 l 316 616 l 744 616 l 744 435 l 316 435 l 316 181 m 469 -290 q 368 -264 403 -290 q 333 -190 333 -237 q 368 -115 333 -142 q 469 -89 403 -89 q 571 -115 536 -89 q 606 -190 606 -142 q 571 -264 606 -237 q 469 -290 536 -290 z "},"È":{"ha":872,"x_min":92,"x_max":822,"o":"m 316 181 l 822 181 l 822 0 l 92 0 l 92 1028 l 815 1028 l 815 847 l 316 847 l 316 616 l 744 616 l 744 435 l 316 435 l 316 181 m 369 1108 l 210 1318 l 444 1318 l 569 1108 l 369 1108 z "},"Ẻ":{"ha":872,"x_min":92,"x_max":822,"o":"m 316 181 l 822 181 l 822 0 l 92 0 l 92 1028 l 815 1028 l 815 847 l 316 847 l 316 616 l 744 616 l 744 435 l 316 435 l 316 181 m 413 1108 q 434 1155 415 1138 q 488 1188 453 1172 q 519 1205 510 1198 q 528 1222 528 1212 q 510 1241 528 1235 q 452 1248 492 1248 q 319 1231 388 1248 l 319 1313 q 389 1326 347 1322 q 469 1331 430 1331 q 603 1308 560 1331 q 646 1238 646 1284 q 636 1203 646 1218 q 613 1179 626 1188 q 577 1157 599 1169 q 539 1133 552 1143 q 524 1108 526 1122 l 413 1108 z "},"Ȇ":{"ha":872,"x_min":92,"x_max":822,"o":"m 316 181 l 822 181 l 822 0 l 92 0 l 92 1028 l 815 1028 l 815 847 l 316 847 l 316 616 l 744 616 l 744 435 l 316 435 l 316 181 m 203 1113 q 281 1261 214 1208 q 468 1315 348 1315 q 656 1261 589 1315 q 735 1113 724 1208 l 599 1113 q 559 1184 591 1160 q 468 1207 528 1207 q 378 1184 408 1207 q 339 1113 347 1160 l 203 1113 z "},"Ē":{"ha":872,"x_min":92,"x_max":822,"o":"m 316 181 l 822 181 l 822 0 l 92 0 l 92 1028 l 815 1028 l 815 847 l 316 847 l 316 616 l 744 616 l 744 435 l 316 435 l 316 181 m 213 1147 l 213 1280 l 724 1280 l 724 1147 l 213 1147 z "},"Ḗ":{"ha":872,"x_min":92,"x_max":822,"o":"m 316 181 l 822 181 l 822 0 l 92 0 l 92 1028 l 815 1028 l 815 847 l 316 847 l 316 616 l 744 616 l 744 435 l 316 435 l 316 181 m 357 1358 l 481 1519 l 739 1519 l 581 1358 l 357 1358 m 213 1147 l 213 1280 l 724 1280 l 724 1147 l 213 1147 z "},"Ḕ":{"ha":872,"x_min":92,"x_max":822,"o":"m 316 181 l 822 181 l 822 0 l 92 0 l 92 1028 l 815 1028 l 815 847 l 316 847 l 316 616 l 744 616 l 744 435 l 316 435 l 316 181 m 357 1358 l 199 1519 l 456 1519 l 581 1358 l 357 1358 m 213 1147 l 213 1280 l 724 1280 l 724 1147 l 213 1147 z "},"Ę":{"ha":872,"x_min":92,"x_max":822,"o":"m 761 0 q 637 -70 672 -35 q 601 -147 601 -105 q 699 -218 601 -218 q 798 -197 744 -218 l 798 -284 q 669 -307 738 -307 q 524 -269 573 -307 q 474 -162 474 -231 q 500 -74 474 -114 q 585 0 526 -33 l 92 0 l 92 1028 l 815 1028 l 815 847 l 316 847 l 316 616 l 744 616 l 744 435 l 316 435 l 316 181 l 822 181 l 822 0 l 761 0 z "},"Ẽ":{"ha":872,"x_min":92,"x_max":822,"o":"m 316 181 l 822 181 l 822 0 l 92 0 l 92 1028 l 815 1028 l 815 847 l 316 847 l 316 616 l 744 616 l 744 435 l 316 435 l 316 181 m 588 1124 q 527 1131 555 1124 q 457 1152 499 1138 q 395 1171 419 1165 q 345 1177 372 1177 q 272 1165 303 1177 q 207 1128 240 1153 l 207 1256 q 269 1294 235 1281 q 349 1306 303 1306 q 411 1299 383 1306 q 481 1278 440 1292 q 541 1258 517 1265 q 592 1252 566 1252 q 666 1264 634 1252 q 731 1301 698 1276 l 731 1174 q 669 1136 703 1148 q 588 1124 635 1124 z "},"F":{"ha":843,"x_min":92,"x_max":813,"o":"m 813 844 l 319 844 l 319 594 l 742 594 l 742 410 l 319 410 l 319 0 l 92 0 l 92 1028 l 813 1028 l 813 844 z "},"G":{"ha":990,"x_min":58,"x_max":902,"o":"m 902 500 l 902 11 q 646 -12 763 -12 q 205 117 351 -12 q 58 511 58 245 q 207 908 58 774 q 642 1041 356 1041 q 873 1015 763 1041 l 873 829 q 662 854 765 854 q 453 819 534 853 q 334 708 373 784 q 294 508 294 632 q 376 255 294 335 q 628 174 458 174 q 692 176 650 174 l 692 500 l 902 500 z "},"Ǵ":{"ha":990,"x_min":58,"x_max":902,"o":"m 902 500 l 902 11 q 646 -12 763 -12 q 205 117 351 -12 q 58 511 58 245 q 207 908 58 774 q 642 1041 356 1041 q 873 1015 763 1041 l 873 829 q 662 854 765 854 q 453 819 534 853 q 334 708 373 784 q 294 508 294 632 q 376 255 294 335 q 628 174 458 174 q 692 176 650 174 l 692 500 l 902 500 m 458 1108 l 583 1318 l 817 1318 l 658 1108 l 458 1108 z "},"Ğ":{"ha":990,"x_min":58,"x_max":902,"o":"m 902 500 l 902 11 q 646 -12 763 -12 q 205 117 351 -12 q 58 511 58 245 q 207 908 58 774 q 642 1041 356 1041 q 873 1015 763 1041 l 873 829 q 662 854 765 854 q 453 819 534 853 q 334 708 373 784 q 294 508 294 632 q 376 255 294 335 q 628 174 458 174 q 692 176 650 174 l 692 500 l 902 500 m 560 1110 q 372 1164 439 1110 q 293 1312 304 1217 l 429 1312 q 468 1242 438 1265 q 560 1219 499 1219 q 650 1242 619 1219 q 689 1312 681 1265 l 825 1312 q 747 1164 814 1217 q 560 1110 680 1110 z "},"Ǧ":{"ha":990,"x_min":58,"x_max":902,"o":"m 902 500 l 902 11 q 646 -12 763 -12 q 205 117 351 -12 q 58 511 58 245 q 207 908 58 774 q 642 1041 356 1041 q 873 1015 763 1041 l 873 829 q 662 854 765 854 q 453 819 534 853 q 334 708 373 784 q 294 508 294 632 q 376 255 294 335 q 628 174 458 174 q 692 176 650 174 l 692 500 l 902 500 m 663 1318 l 831 1318 l 653 1108 l 465 1108 l 287 1318 l 456 1318 l 559 1190 l 663 1318 z "},"Ĝ":{"ha":990,"x_min":58,"x_max":902,"o":"m 902 500 l 902 11 q 646 -12 763 -12 q 205 117 351 -12 q 58 511 58 245 q 207 908 58 774 q 642 1041 356 1041 q 873 1015 763 1041 l 873 829 q 662 854 765 854 q 453 819 534 853 q 334 708 373 784 q 294 508 294 632 q 376 255 294 335 q 628 174 458 174 q 692 176 650 174 l 692 500 l 902 500 m 831 1108 l 663 1108 l 559 1236 l 456 1108 l 287 1108 l 465 1318 l 653 1318 l 831 1108 z "},"Ģ":{"ha":990,"x_min":58,"x_max":902,"o":"m 902 500 l 902 11 q 646 -12 763 -12 q 205 117 351 -12 q 58 511 58 245 q 207 908 58 774 q 642 1041 356 1041 q 873 1015 763 1041 l 873 829 q 662 854 765 854 q 453 819 534 853 q 334 708 373 784 q 294 508 294 632 q 376 255 294 335 q 628 174 458 174 q 692 176 650 174 l 692 500 l 902 500 m 558 -89 q 683 -192 683 -89 q 668 -272 683 -230 q 629 -345 653 -314 l 492 -345 q 531 -244 523 -285 q 435 -167 435 -235 q 465 -109 435 -130 q 558 -89 496 -89 z "},"Ġ":{"ha":990,"x_min":58,"x_max":902,"o":"m 902 500 l 902 11 q 646 -12 763 -12 q 205 117 351 -12 q 58 511 58 245 q 207 908 58 774 q 642 1041 356 1041 q 873 1015 763 1041 l 873 829 q 662 854 765 854 q 453 819 534 853 q 334 708 373 784 q 294 508 294 632 q 376 255 294 335 q 628 174 458 174 q 692 176 650 174 l 692 500 l 902 500 m 559 1115 q 458 1141 492 1115 q 423 1216 423 1167 q 458 1290 423 1264 q 559 1317 492 1317 q 660 1290 626 1317 q 695 1216 695 1264 q 660 1141 695 1167 q 559 1115 626 1115 z "},"Ḡ":{"ha":990,"x_min":58,"x_max":902,"o":"m 902 500 l 902 11 q 646 -12 763 -12 q 205 117 351 -12 q 58 511 58 245 q 207 908 58 774 q 642 1041 356 1041 q 873 1015 763 1041 l 873 829 q 662 854 765 854 q 453 819 534 853 q 334 708 373 784 q 294 508 294 632 q 376 255 294 335 q 628 174 458 174 q 692 176 650 174 l 692 500 l 902 500 m 303 1147 l 303 1280 l 815 1280 l 815 1147 l 303 1147 z "},"H":{"ha":1060,"x_min":92,"x_max":968,"o":"m 92 0 l 92 1028 l 319 1028 l 319 625 l 742 625 l 742 1028 l 968 1028 l 968 0 l 742 0 l 742 426 l 319 426 l 319 0 l 92 0 z "},"Ħ":{"ha":1060,"x_min":2,"x_max":1058,"o":"m 1058 896 l 1058 756 l 968 756 l 968 0 l 742 0 l 742 426 l 319 426 l 319 0 l 92 0 l 92 756 l 2 756 l 2 896 l 92 896 l 92 1028 l 319 1028 l 319 896 l 742 896 l 742 1028 l 968 1028 l 968 896 l 1058 896 m 742 625 l 742 756 l 319 756 l 319 625 l 742 625 z "},"Ḫ":{"ha":1060,"x_min":92,"x_max":968,"o":"m 92 0 l 92 1028 l 319 1028 l 319 625 l 742 625 l 742 1028 l 968 1028 l 968 0 l 742 0 l 742 426 l 319 426 l 319 0 l 92 0 m 531 -303 q 342 -248 409 -303 q 265 -99 274 -194 l 401 -99 q 439 -170 408 -146 q 531 -194 471 -194 q 623 -170 592 -194 q 660 -99 654 -146 l 797 -99 q 720 -248 787 -194 q 531 -303 653 -303 z "},"Ĥ":{"ha":1060,"x_min":92,"x_max":968,"o":"m 92 0 l 92 1028 l 319 1028 l 319 625 l 742 625 l 742 1028 l 968 1028 l 968 0 l 742 0 l 742 426 l 319 426 l 319 0 l 92 0 m 803 1108 l 634 1108 l 531 1236 l 427 1108 l 258 1108 l 436 1318 l 625 1318 l 803 1108 z "},"Ḥ":{"ha":1060,"x_min":92,"x_max":968,"o":"m 92 0 l 92 1028 l 319 1028 l 319 625 l 742 625 l 742 1028 l 968 1028 l 968 0 l 742 0 l 742 426 l 319 426 l 319 0 l 92 0 m 531 -290 q 429 -264 464 -290 q 394 -190 394 -237 q 429 -115 394 -142 q 531 -89 464 -89 q 632 -115 597 -89 q 667 -190 667 -142 q 632 -264 667 -237 q 531 -290 597 -290 z "},"I":{"ha":411,"x_min":92,"x_max":319,"o":"m 92 0 l 92 1028 l 319 1028 l 319 0 l 92 0 z "},"Í":{"ha":411,"x_min":92,"x_max":463,"o":"m 92 0 l 92 1028 l 319 1028 l 319 0 l 92 0 m 104 1108 l 229 1318 l 463 1318 l 305 1108 l 104 1108 z "},"Ĭ":{"ha":411,"x_min":-60,"x_max":472,"o":"m 92 0 l 92 1028 l 319 1028 l 319 0 l 92 0 m 206 1110 q 18 1164 85 1110 q -60 1312 -49 1217 l 76 1312 q 115 1242 84 1265 q 206 1219 146 1219 q 297 1242 266 1219 q 335 1312 327 1265 l 472 1312 q 393 1164 460 1217 q 206 1110 326 1110 z "},"Î":{"ha":411,"x_min":-67,"x_max":478,"o":"m 92 0 l 92 1028 l 319 1028 l 319 0 l 92 0 m 478 1108 l 309 1108 l 206 1236 l 102 1108 l -67 1108 l 111 1318 l 300 1318 l 478 1108 z "},"Ȉ":{"ha":411,"x_min":-123,"x_max":428,"o":"m 92 0 l 92 1028 l 319 1028 l 319 0 l 92 0 m -17 1108 l -123 1318 l 53 1318 l 147 1108 l -17 1108 m 264 1108 l 158 1318 l 333 1318 l 428 1108 l 264 1108 z "},"Ï":{"ha":411,"x_min":-92,"x_max":503,"o":"m 92 0 l 92 1028 l 319 1028 l 319 0 l 92 0 m 27 1115 q -62 1141 -31 1115 q -92 1216 -92 1167 q -62 1290 -92 1264 q 27 1317 -31 1317 q 116 1290 85 1317 q 147 1216 147 1264 q 116 1141 147 1167 q 27 1115 86 1115 m 384 1115 q 295 1141 325 1115 q 265 1216 265 1167 q 295 1290 265 1264 q 384 1317 326 1317 q 473 1290 442 1317 q 503 1216 503 1264 q 473 1141 503 1167 q 384 1115 442 1115 z "},"Ḯ":{"ha":411,"x_min":-92,"x_max":503,"o":"m 92 0 l 92 1028 l 319 1028 l 319 0 l 92 0 m 94 1358 l 218 1519 l 476 1519 l 317 1358 l 94 1358 m 27 1115 q -62 1141 -31 1115 q -92 1216 -92 1167 q -62 1290 -92 1264 q 27 1317 -31 1317 q 116 1290 85 1317 q 147 1216 147 1264 q 116 1141 147 1167 q 27 1115 86 1115 m 384 1115 q 295 1141 325 1115 q 265 1216 265 1167 q 295 1290 265 1264 q 384 1317 326 1317 q 473 1290 442 1317 q 503 1216 503 1264 q 473 1141 503 1167 q 384 1115 442 1115 z "},"İ":{"ha":411,"x_min":69,"x_max":342,"o":"m 92 0 l 92 1028 l 319 1028 l 319 0 l 92 0 m 206 1115 q 104 1141 139 1115 q 69 1216 69 1167 q 104 1290 69 1264 q 206 1317 139 1317 q 307 1290 272 1317 q 342 1216 342 1264 q 307 1141 342 1167 q 206 1115 272 1115 z "},"Ị":{"ha":411,"x_min":69,"x_max":341,"o":"m 92 0 l 92 1028 l 319 1028 l 319 0 l 92 0 m 205 -290 q 103 -264 138 -290 q 69 -190 69 -237 q 103 -115 69 -142 q 205 -89 138 -89 q 306 -115 272 -89 q 341 -190 341 -142 q 306 -264 341 -237 q 205 -290 272 -290 z "},"Ì":{"ha":411,"x_min":-53,"x_max":319,"o":"m 92 0 l 92 1028 l 319 1028 l 319 0 l 92 0 m 106 1108 l -53 1318 l 181 1318 l 306 1108 l 106 1108 z "},"Ỉ":{"ha":411,"x_min":56,"x_max":383,"o":"m 92 0 l 92 1028 l 319 1028 l 319 0 l 92 0 m 149 1108 q 171 1155 151 1138 q 225 1188 190 1172 q 256 1205 247 1198 q 265 1222 265 1212 q 247 1241 265 1235 q 189 1248 228 1248 q 56 1231 124 1248 l 56 1313 q 125 1326 84 1322 q 206 1331 167 1331 q 340 1308 297 1331 q 383 1238 383 1284 q 373 1203 383 1218 q 350 1179 363 1188 q 314 1157 336 1169 q 276 1133 289 1143 q 261 1108 263 1122 l 149 1108 z "},"Ȋ":{"ha":411,"x_min":-60,"x_max":472,"o":"m 92 0 l 92 1028 l 319 1028 l 319 0 l 92 0 m -60 1113 q 18 1261 -49 1208 q 205 1315 85 1315 q 393 1261 326 1315 q 472 1113 460 1208 l 335 1113 q 296 1184 328 1160 q 205 1207 265 1207 q 115 1184 145 1207 q 76 1113 84 1160 l -60 1113 z "},"Ī":{"ha":411,"x_min":-50,"x_max":461,"o":"m 92 0 l 92 1028 l 319 1028 l 319 0 l 92 0 m -50 1147 l -50 1280 l 461 1280 l 461 1147 l -50 1147 z "},"Į":{"ha":411,"x_min":32,"x_max":356,"o":"m 257 -218 q 356 -197 301 -218 l 356 -284 q 227 -307 296 -307 q 81 -269 131 -307 q 32 -162 32 -231 q 58 -74 32 -114 q 143 0 84 -33 l 92 0 l 92 1028 l 319 1028 l 319 0 q 194 -70 230 -35 q 159 -147 159 -105 q 257 -218 159 -218 z "},"Ĩ":{"ha":411,"x_min":-56,"x_max":467,"o":"m 92 0 l 92 1028 l 319 1028 l 319 0 l 92 0 m 325 1124 q 264 1131 292 1124 q 194 1152 236 1138 q 132 1171 156 1165 q 82 1177 108 1177 q 8 1165 40 1177 q -56 1128 -24 1153 l -56 1256 q 6 1294 -28 1281 q 86 1306 40 1306 q 148 1299 119 1306 q 217 1278 177 1292 q 278 1258 253 1265 q 329 1252 303 1252 q 403 1264 371 1252 q 467 1301 435 1276 l 467 1174 q 406 1136 440 1148 q 325 1124 372 1124 z "},"J":{"ha":411,"x_min":-15,"x_max":319,"o":"m -15 -147 q 69 14 44 -67 q 93 208 93 94 l 93 1028 l 319 1028 l 319 208 q 274 -29 317 77 q 129 -243 231 -135 l -15 -147 z "},"Ĵ":{"ha":411,"x_min":-66,"x_max":478,"o":"m -15 -147 q 69 14 44 -67 q 93 208 93 94 l 93 1028 l 319 1028 l 319 208 q 274 -29 317 77 q 129 -243 231 -135 l -15 -147 m 478 1108 l 310 1108 l 206 1236 l 103 1108 l -66 1108 l 112 1318 l 301 1318 l 478 1108 z "},"K":{"ha":924,"x_min":92,"x_max":956,"o":"m 710 0 l 417 426 l 319 426 l 319 0 l 92 0 l 92 1028 l 319 1028 l 319 625 l 418 625 l 688 1028 l 926 1028 l 594 531 l 956 0 l 710 0 z "},"Ķ":{"ha":924,"x_min":92,"x_max":956,"o":"m 710 0 l 417 426 l 319 426 l 319 0 l 92 0 l 92 1028 l 319 1028 l 319 625 l 418 625 l 688 1028 l 926 1028 l 594 531 l 956 0 l 710 0 m 484 -89 q 609 -192 609 -89 q 594 -272 609 -230 q 555 -345 579 -314 l 418 -345 q 456 -244 449 -285 q 360 -167 360 -235 q 391 -109 360 -130 q 484 -89 422 -89 z "},"L":{"ha":798,"x_min":92,"x_max":791,"o":"m 92 0 l 92 1028 l 319 1028 l 319 188 l 791 188 l 791 0 l 92 0 z "},"Ǉ":{"ha":1209,"x_min":92,"x_max":1117,"o":"m 92 0 l 92 1028 l 319 1028 l 319 188 l 791 188 l 791 0 l 92 0 m 783 -147 q 867 14 842 -67 q 891 208 891 94 l 891 1028 l 1117 1028 l 1117 208 q 1072 -29 1115 77 q 927 -243 1029 -135 l 783 -147 z "},"Ĺ":{"ha":798,"x_min":92,"x_max":791,"o":"m 92 0 l 92 1028 l 319 1028 l 319 188 l 791 188 l 791 0 l 92 0 m 106 1108 l 231 1318 l 465 1318 l 307 1108 l 106 1108 z "},"Ľ":{"ha":798,"x_min":92,"x_max":791,"o":"m 92 0 l 92 1028 l 319 1028 l 319 188 l 791 188 l 791 0 l 92 0 m 507 792 q 522 942 518 867 q 526 1122 526 1017 l 674 1122 q 627 792 674 926 l 507 792 z "},"Ļ":{"ha":798,"x_min":92,"x_max":791,"o":"m 92 0 l 92 1028 l 319 1028 l 319 188 l 791 188 l 791 0 l 92 0 m 441 -89 q 566 -192 566 -89 q 551 -272 566 -230 q 512 -345 536 -314 l 375 -345 q 413 -244 406 -285 q 317 -167 317 -235 q 348 -109 317 -130 q 441 -89 378 -89 z "},"Ŀ":{"ha":798,"x_min":92,"x_max":791,"o":"m 92 0 l 92 1028 l 319 1028 l 319 188 l 791 188 l 791 0 l 92 0 m 599 490 q 496 520 530 490 q 462 606 462 549 q 496 691 462 661 q 599 721 530 721 q 702 691 667 721 q 736 606 736 661 q 702 520 736 549 q 599 490 668 490 z "},"Ḷ":{"ha":798,"x_min":92,"x_max":791,"o":"m 92 0 l 92 1028 l 319 1028 l 319 188 l 791 188 l 791 0 l 92 0 m 442 -290 q 340 -264 375 -290 q 306 -190 306 -237 q 340 -115 306 -142 q 442 -89 375 -89 q 543 -115 508 -89 q 578 -190 578 -142 q 543 -264 578 -237 q 442 -290 508 -290 z "},"ǈ":{"ha":1185,"x_min":92,"x_max":1126,"o":"m 92 0 l 92 1028 l 319 1028 l 319 188 l 791 188 l 791 0 l 92 0 m 772 -232 q 856 -72 832 -151 q 881 122 881 8 l 881 760 l 1103 760 l 1103 131 q 1060 -111 1103 -3 q 915 -327 1017 -219 l 772 -232 m 989 872 q 886 901 920 872 q 851 987 851 931 q 885 1073 851 1043 q 989 1103 919 1103 q 1092 1073 1058 1103 q 1126 987 1126 1043 q 1092 901 1126 931 q 989 872 1058 872 z "},"Ḻ":{"ha":798,"x_min":92,"x_max":791,"o":"m 92 0 l 92 1028 l 319 1028 l 319 188 l 791 188 l 791 0 l 92 0 m 186 -251 l 186 -118 l 697 -118 l 697 -251 l 186 -251 z "},"Ł":{"ha":798,"x_min":-34,"x_max":791,"o":"m 319 188 l 791 188 l 791 0 l 92 0 l 92 428 l 33 394 l -34 523 l 92 594 l 92 1028 l 319 1028 l 319 721 l 504 825 l 571 697 l 319 555 l 319 188 z "},"M":{"ha":1305,"x_min":95,"x_max":1210,"o":"m 934 1028 l 1210 1028 l 1210 0 l 998 0 l 998 727 l 746 149 l 559 149 l 307 708 l 307 0 l 95 0 l 95 1028 l 371 1028 l 656 381 l 934 1028 z "},"Ṃ":{"ha":1305,"x_min":95,"x_max":1210,"o":"m 934 1028 l 1210 1028 l 1210 0 l 998 0 l 998 727 l 746 149 l 559 149 l 307 708 l 307 0 l 95 0 l 95 1028 l 371 1028 l 656 381 l 934 1028 m 667 -290 q 565 -264 600 -290 q 531 -190 531 -237 q 565 -115 531 -142 q 667 -89 600 -89 q 768 -115 733 -89 q 803 -190 803 -142 q 768 -264 803 -237 q 667 -290 733 -290 z "},"N":{"ha":1072,"x_min":92,"x_max":980,"o":"m 767 1028 l 980 1028 l 980 0 l 752 0 l 306 688 l 306 0 l 92 0 l 92 1028 l 320 1028 l 767 340 l 767 1028 z "},"Ǌ":{"ha":1483,"x_min":92,"x_max":1391,"o":"m 767 1028 l 980 1028 l 980 0 l 752 0 l 306 688 l 306 0 l 92 0 l 92 1028 l 320 1028 l 767 340 l 767 1028 m 1057 -147 q 1141 14 1117 -67 q 1165 208 1165 94 l 1165 1028 l 1391 1028 l 1391 208 q 1347 -29 1390 77 q 1201 -243 1303 -135 l 1057 -147 z "},"Ń":{"ha":1072,"x_min":92,"x_max":980,"o":"m 767 1028 l 980 1028 l 980 0 l 752 0 l 306 688 l 306 0 l 92 0 l 92 1028 l 320 1028 l 767 340 l 767 1028 m 435 1108 l 560 1318 l 794 1318 l 635 1108 l 435 1108 z "},"Ň":{"ha":1072,"x_min":92,"x_max":980,"o":"m 767 1028 l 980 1028 l 980 0 l 752 0 l 306 688 l 306 0 l 92 0 l 92 1028 l 320 1028 l 767 340 l 767 1028 m 640 1318 l 808 1318 l 631 1108 l 442 1108 l 264 1318 l 433 1318 l 536 1190 l 640 1318 z "},"Ņ":{"ha":1072,"x_min":92,"x_max":980,"o":"m 767 1028 l 980 1028 l 980 0 l 752 0 l 306 688 l 306 0 l 92 0 l 92 1028 l 320 1028 l 767 340 l 767 1028 m 535 -89 q 660 -192 660 -89 q 645 -272 660 -230 q 606 -345 631 -314 l 469 -345 q 508 -244 500 -285 q 412 -167 412 -235 q 442 -109 412 -130 q 535 -89 473 -89 z "},"Ṅ":{"ha":1072,"x_min":92,"x_max":980,"o":"m 767 1028 l 980 1028 l 980 0 l 752 0 l 306 688 l 306 0 l 92 0 l 92 1028 l 320 1028 l 767 340 l 767 1028 m 536 1115 q 435 1141 469 1115 q 400 1216 400 1167 q 435 1290 400 1264 q 536 1317 469 1317 q 638 1290 603 1317 q 672 1216 672 1264 q 638 1141 672 1167 q 536 1115 603 1115 z "},"Ṇ":{"ha":1072,"x_min":92,"x_max":980,"o":"m 767 1028 l 980 1028 l 980 0 l 752 0 l 306 688 l 306 0 l 92 0 l 92 1028 l 320 1028 l 767 340 l 767 1028 m 536 -290 q 435 -264 469 -290 q 400 -190 400 -237 q 435 -115 400 -142 q 536 -89 469 -89 q 638 -115 603 -89 q 672 -190 672 -142 q 638 -264 672 -237 q 536 -290 603 -290 z "},"Ŋ":{"ha":1072,"x_min":92,"x_max":980,"o":"m 980 1028 l 980 151 q 961 -29 980 51 q 902 -181 943 -109 q 792 -327 861 -253 l 649 -232 q 718 -122 692 -176 q 756 -7 744 -68 l 306 688 l 306 0 l 92 0 l 92 1028 l 320 1028 l 767 342 l 767 1028 l 980 1028 z "},"ǋ":{"ha":1460,"x_min":92,"x_max":1400,"o":"m 767 1028 l 980 1028 l 980 0 l 752 0 l 306 688 l 306 0 l 92 0 l 92 1028 l 320 1028 l 767 340 l 767 1028 m 1046 -232 q 1131 -72 1106 -151 q 1155 122 1155 8 l 1155 760 l 1377 760 l 1377 131 q 1334 -111 1377 -3 q 1190 -327 1291 -219 l 1046 -232 m 1263 872 q 1160 901 1194 872 q 1126 987 1126 931 q 1160 1073 1126 1043 q 1263 1103 1194 1103 q 1366 1073 1332 1103 q 1400 987 1400 1043 q 1366 901 1400 931 q 1263 872 1332 872 z "},"Ṉ":{"ha":1072,"x_min":92,"x_max":980,"o":"m 767 1028 l 980 1028 l 980 0 l 752 0 l 306 688 l 306 0 l 92 0 l 92 1028 l 320 1028 l 767 340 l 767 1028 m 281 -251 l 281 -118 l 792 -118 l 792 -251 l 281 -251 z "},"Ñ":{"ha":1072,"x_min":92,"x_max":980,"o":"m 767 1028 l 980 1028 l 980 0 l 752 0 l 306 688 l 306 0 l 92 0 l 92 1028 l 320 1028 l 767 340 l 767 1028 m 656 1124 q 594 1131 622 1124 q 524 1152 567 1138 q 463 1171 486 1165 q 413 1177 439 1177 q 339 1165 371 1177 q 274 1128 307 1153 l 274 1256 q 336 1294 303 1281 q 417 1306 370 1306 q 479 1299 450 1306 q 548 1278 508 1292 q 609 1258 584 1265 q 660 1252 633 1252 q 733 1264 701 1252 q 798 1301 765 1276 l 798 1174 q 736 1136 770 1148 q 656 1124 703 1124 z "},"O":{"ha":1085,"x_min":58,"x_max":1028,"o":"m 543 -13 q 285 45 394 -13 q 117 221 176 103 q 58 514 58 339 q 117 807 58 689 q 285 983 176 925 q 543 1041 394 1041 q 801 983 692 1041 q 969 806 910 924 q 1028 514 1028 688 q 968 222 1028 340 q 800 45 909 103 q 543 -13 692 -13 m 543 169 q 731 251 666 169 q 795 509 795 332 q 730 775 795 692 q 543 858 665 858 q 355 777 420 858 q 290 519 290 696 q 355 252 290 335 q 543 169 419 169 z "},"Ó":{"ha":1085,"x_min":58,"x_max":1028,"o":"m 543 -13 q 285 45 394 -13 q 117 221 176 103 q 58 514 58 339 q 117 807 58 689 q 285 983 176 925 q 543 1041 394 1041 q 801 983 692 1041 q 969 806 910 924 q 1028 514 1028 688 q 968 222 1028 340 q 800 45 909 103 q 543 -13 692 -13 m 543 169 q 731 251 666 169 q 795 509 795 332 q 730 775 795 692 q 543 858 665 858 q 355 777 420 858 q 290 519 290 696 q 355 252 290 335 q 543 169 419 169 m 442 1108 l 567 1318 l 801 1318 l 642 1108 l 442 1108 z "},"Ŏ":{"ha":1085,"x_min":58,"x_max":1028,"o":"m 543 -13 q 285 45 394 -13 q 117 221 176 103 q 58 514 58 339 q 117 807 58 689 q 285 983 176 925 q 543 1041 394 1041 q 801 983 692 1041 q 969 806 910 924 q 1028 514 1028 688 q 968 222 1028 340 q 800 45 909 103 q 543 -13 692 -13 m 543 169 q 731 251 666 169 q 795 509 795 332 q 730 775 795 692 q 543 858 665 858 q 355 777 420 858 q 290 519 290 696 q 355 252 290 335 q 543 169 419 169 m 544 1110 q 356 1164 423 1110 q 277 1312 288 1217 l 413 1312 q 452 1242 422 1265 q 544 1219 483 1219 q 634 1242 603 1219 q 673 1312 665 1265 l 809 1312 q 731 1164 798 1217 q 544 1110 664 1110 z "},"Ô":{"ha":1085,"x_min":58,"x_max":1028,"o":"m 543 -13 q 285 45 394 -13 q 117 221 176 103 q 58 514 58 339 q 117 807 58 689 q 285 983 176 925 q 543 1041 394 1041 q 801 983 692 1041 q 969 806 910 924 q 1028 514 1028 688 q 968 222 1028 340 q 800 45 909 103 q 543 -13 692 -13 m 543 169 q 731 251 666 169 q 795 509 795 332 q 730 775 795 692 q 543 858 665 858 q 355 777 420 858 q 290 519 290 696 q 355 252 290 335 q 543 169 419 169 m 815 1108 l 647 1108 l 543 1236 l 440 1108 l 271 1108 l 449 1318 l 638 1318 l 815 1108 z "},"Ố":{"ha":1085,"x_min":58,"x_max":1028,"o":"m 543 -13 q 285 45 394 -13 q 117 221 176 103 q 58 514 58 339 q 117 807 58 689 q 285 983 176 925 q 543 1041 394 1041 q 801 983 692 1041 q 969 806 910 924 q 1028 514 1028 688 q 968 222 1028 340 q 800 45 909 103 q 543 -13 692 -13 m 543 169 q 731 251 666 169 q 795 509 795 332 q 730 775 795 692 q 543 858 665 858 q 355 777 420 858 q 290 519 290 696 q 355 252 290 335 q 543 169 419 169 m 799 1433 l 951 1433 l 838 1262 l 717 1262 l 799 1433 m 449 1297 l 638 1297 l 815 1108 l 647 1108 l 543 1224 l 440 1108 l 271 1108 l 449 1297 z "},"Ộ":{"ha":1085,"x_min":58,"x_max":1028,"o":"m 543 -13 q 285 45 394 -13 q 117 221 176 103 q 58 514 58 339 q 117 807 58 689 q 285 983 176 925 q 543 1041 394 1041 q 801 983 692 1041 q 969 806 910 924 q 1028 514 1028 688 q 968 222 1028 340 q 800 45 909 103 q 543 -13 692 -13 m 543 169 q 731 251 666 169 q 795 509 795 332 q 730 775 795 692 q 543 858 665 858 q 355 777 420 858 q 290 519 290 696 q 355 252 290 335 q 543 169 419 169 m 543 -290 q 442 -264 476 -290 q 407 -190 407 -237 q 442 -115 407 -142 q 543 -89 476 -89 q 644 -115 610 -89 q 679 -190 679 -142 q 644 -264 679 -237 q 543 -290 610 -290 m 815 1108 l 647 1108 l 543 1236 l 440 1108 l 271 1108 l 449 1318 l 638 1318 l 815 1108 z "},"Ồ":{"ha":1085,"x_min":58,"x_max":1028,"o":"m 543 -13 q 285 45 394 -13 q 117 221 176 103 q 58 514 58 339 q 117 807 58 689 q 285 983 176 925 q 543 1041 394 1041 q 801 983 692 1041 q 969 806 910 924 q 1028 514 1028 688 q 968 222 1028 340 q 800 45 909 103 q 543 -13 692 -13 m 543 169 q 731 251 666 169 q 795 509 795 332 q 730 775 795 692 q 543 858 665 858 q 355 777 420 858 q 290 519 290 696 q 355 252 290 335 q 543 169 419 169 m 862 1262 l 740 1262 l 628 1433 l 779 1433 l 862 1262 m 449 1297 l 638 1297 l 815 1108 l 647 1108 l 543 1224 l 440 1108 l 271 1108 l 449 1297 z "},"Ổ":{"ha":1085,"x_min":58,"x_max":1028,"o":"m 543 -13 q 285 45 394 -13 q 117 221 176 103 q 58 514 58 339 q 117 807 58 689 q 285 983 176 925 q 543 1041 394 1041 q 801 983 692 1041 q 969 806 910 924 q 1028 514 1028 688 q 968 222 1028 340 q 800 45 909 103 q 543 -13 692 -13 m 543 169 q 731 251 666 169 q 795 509 795 332 q 730 775 795 692 q 543 858 665 858 q 355 777 420 858 q 290 519 290 696 q 355 252 290 335 q 543 169 419 169 m 772 1463 q 949 1378 949 1463 q 932 1338 949 1353 q 881 1306 915 1323 q 842 1285 854 1294 q 828 1262 830 1276 l 716 1262 q 737 1305 718 1290 q 791 1334 756 1319 q 823 1350 813 1344 q 832 1365 832 1356 q 756 1389 832 1389 q 622 1373 690 1389 l 622 1445 q 693 1458 651 1453 q 772 1463 735 1463 m 449 1297 l 638 1297 l 815 1108 l 647 1108 l 543 1224 l 440 1108 l 271 1108 l 449 1297 z "},"Ỗ":{"ha":1085,"x_min":58,"x_max":1028,"o":"m 543 -13 q 285 45 394 -13 q 117 221 176 103 q 58 514 58 339 q 117 807 58 689 q 285 983 176 925 q 543 1041 394 1041 q 801 983 692 1041 q 969 806 910 924 q 1028 514 1028 688 q 968 222 1028 340 q 800 45 909 103 q 543 -13 692 -13 m 543 169 q 731 251 666 169 q 795 509 795 332 q 730 775 795 692 q 543 858 665 858 q 355 777 420 858 q 290 519 290 696 q 355 252 290 335 q 543 169 419 169 m 663 1419 q 738 1430 703 1419 q 815 1466 772 1440 l 815 1369 q 744 1335 779 1344 q 661 1326 708 1326 q 598 1333 628 1326 q 528 1350 567 1339 q 468 1365 491 1360 q 423 1369 446 1369 q 348 1359 383 1369 q 271 1323 314 1349 l 271 1419 q 343 1453 308 1444 q 425 1463 378 1463 q 486 1457 458 1463 q 558 1440 515 1451 q 616 1425 592 1430 q 663 1419 640 1419 m 449 1297 l 638 1297 l 815 1108 l 647 1108 l 543 1224 l 440 1108 l 271 1108 l 449 1297 z "},"Ȍ":{"ha":1085,"x_min":58,"x_max":1028,"o":"m 543 -13 q 285 45 394 -13 q 117 221 176 103 q 58 514 58 339 q 117 807 58 689 q 285 983 176 925 q 543 1041 394 1041 q 801 983 692 1041 q 969 806 910 924 q 1028 514 1028 688 q 968 222 1028 340 q 800 45 909 103 q 543 -13 692 -13 m 543 169 q 731 251 666 169 q 795 509 795 332 q 730 775 795 692 q 543 858 665 858 q 355 777 420 858 q 290 519 290 696 q 355 252 290 335 q 543 169 419 169 m 321 1108 l 215 1318 l 390 1318 l 485 1108 l 321 1108 m 601 1108 l 496 1318 l 671 1318 l 765 1108 l 601 1108 z "},"Ö":{"ha":1085,"x_min":58,"x_max":1028,"o":"m 543 -13 q 285 45 394 -13 q 117 221 176 103 q 58 514 58 339 q 117 807 58 689 q 285 983 176 925 q 543 1041 394 1041 q 801 983 692 1041 q 969 806 910 924 q 1028 514 1028 688 q 968 222 1028 340 q 800 45 909 103 q 543 -13 692 -13 m 543 169 q 731 251 666 169 q 795 509 795 332 q 730 775 795 692 q 543 858 665 858 q 355 777 420 858 q 290 519 290 696 q 355 252 290 335 q 543 169 419 169 m 365 1115 q 276 1141 306 1115 q 245 1216 245 1167 q 276 1290 245 1264 q 365 1317 306 1317 q 453 1290 423 1317 q 484 1216 484 1264 q 454 1141 484 1167 q 365 1115 424 1115 m 722 1115 q 632 1141 663 1115 q 602 1216 602 1167 q 633 1290 602 1264 q 722 1317 663 1317 q 810 1290 780 1317 q 841 1216 841 1264 q 810 1141 841 1167 q 722 1115 780 1115 z "},"Ȫ":{"ha":1085,"x_min":58,"x_max":1028,"o":"m 543 -13 q 285 45 394 -13 q 117 221 176 103 q 58 514 58 339 q 117 807 58 689 q 285 983 176 925 q 543 1041 394 1041 q 801 983 692 1041 q 969 806 910 924 q 1028 514 1028 688 q 968 222 1028 340 q 800 45 909 103 q 543 -13 692 -13 m 543 169 q 731 251 666 169 q 795 509 795 332 q 730 775 795 692 q 543 858 665 858 q 355 777 420 858 q 290 519 290 696 q 355 252 290 335 q 543 169 419 169 m 365 1115 q 276 1141 306 1115 q 245 1216 245 1167 q 276 1290 245 1264 q 365 1317 306 1317 q 453 1290 423 1317 q 484 1216 484 1264 q 454 1141 484 1167 q 365 1115 424 1115 m 722 1115 q 632 1141 663 1115 q 602 1216 602 1167 q 633 1290 602 1264 q 722 1317 663 1317 q 810 1290 780 1317 q 841 1216 841 1264 q 810 1141 841 1167 q 722 1115 780 1115 m 288 1389 l 288 1522 l 799 1522 l 799 1389 l 288 1389 z "},"Ȱ":{"ha":1085,"x_min":58,"x_max":1028,"o":"m 543 -13 q 285 45 394 -13 q 117 221 176 103 q 58 514 58 339 q 117 807 58 689 q 285 983 176 925 q 543 1041 394 1041 q 801 983 692 1041 q 969 806 910 924 q 1028 514 1028 688 q 968 222 1028 340 q 800 45 909 103 q 543 -13 692 -13 m 543 169 q 731 251 666 169 q 795 509 795 332 q 730 775 795 692 q 543 858 665 858 q 355 777 420 858 q 290 519 290 696 q 355 252 290 335 q 543 169 419 169 m 543 1115 q 442 1141 476 1115 q 407 1216 407 1167 q 442 1290 407 1264 q 543 1317 476 1317 q 644 1290 610 1317 q 679 1216 679 1264 q 644 1141 679 1167 q 543 1115 610 1115 m 288 1389 l 288 1522 l 799 1522 l 799 1389 l 288 1389 z "},"Ọ":{"ha":1085,"x_min":58,"x_max":1028,"o":"m 543 -13 q 285 45 394 -13 q 117 221 176 103 q 58 514 58 339 q 117 807 58 689 q 285 983 176 925 q 543 1041 394 1041 q 801 983 692 1041 q 969 806 910 924 q 1028 514 1028 688 q 968 222 1028 340 q 800 45 909 103 q 543 -13 692 -13 m 543 169 q 731 251 666 169 q 795 509 795 332 q 730 775 795 692 q 543 858 665 858 q 355 777 420 858 q 290 519 290 696 q 355 252 290 335 q 543 169 419 169 m 543 -290 q 442 -264 476 -290 q 407 -190 407 -237 q 442 -115 407 -142 q 543 -89 476 -89 q 644 -115 610 -89 q 679 -190 679 -142 q 644 -264 679 -237 q 543 -290 610 -290 z "},"Ò":{"ha":1085,"x_min":58,"x_max":1028,"o":"m 543 -13 q 285 45 394 -13 q 117 221 176 103 q 58 514 58 339 q 117 807 58 689 q 285 983 176 925 q 543 1041 394 1041 q 801 983 692 1041 q 969 806 910 924 q 1028 514 1028 688 q 968 222 1028 340 q 800 45 909 103 q 543 -13 692 -13 m 543 169 q 731 251 666 169 q 795 509 795 332 q 730 775 795 692 q 543 858 665 858 q 355 777 420 858 q 290 519 290 696 q 355 252 290 335 q 543 169 419 169 m 443 1108 l 285 1318 l 518 1318 l 643 1108 l 443 1108 z "},"Ỏ":{"ha":1085,"x_min":58,"x_max":1028,"o":"m 543 -13 q 285 45 394 -13 q 117 221 176 103 q 58 514 58 339 q 117 807 58 689 q 285 983 176 925 q 543 1041 394 1041 q 801 983 692 1041 q 969 806 910 924 q 1028 514 1028 688 q 968 222 1028 340 q 800 45 909 103 q 543 -13 692 -13 m 543 169 q 731 251 666 169 q 795 509 795 332 q 730 775 795 692 q 543 858 665 858 q 355 777 420 858 q 290 519 290 696 q 355 252 290 335 q 543 169 419 169 m 487 1108 q 508 1155 489 1138 q 563 1188 528 1172 q 593 1205 584 1198 q 603 1222 603 1212 q 584 1241 603 1235 q 526 1248 566 1248 q 393 1231 462 1248 l 393 1313 q 463 1326 422 1322 q 543 1331 504 1331 q 677 1308 634 1331 q 720 1238 720 1284 q 710 1203 720 1218 q 687 1179 701 1188 q 651 1157 674 1169 q 614 1133 626 1143 q 599 1108 601 1122 l 487 1108 z "},"Ơ":{"ha":1085,"x_min":58,"x_max":1036,"o":"m 879 927 q 990 759 951 863 q 1028 514 1028 655 q 969 221 1028 339 q 801 45 910 103 q 543 -13 692 -13 q 284 45 393 -13 q 117 221 176 103 q 58 514 58 339 q 117 807 58 689 q 285 983 176 925 q 543 1041 394 1041 q 614 1038 578 1041 q 656 1033 650 1034 q 754 1026 724 1026 q 852 1052 819 1026 q 885 1135 885 1077 q 872 1233 885 1181 l 1022 1233 q 1033 1182 1030 1207 q 1036 1126 1036 1157 q 995 991 1036 1041 q 879 927 954 942 m 543 169 q 731 251 666 169 q 795 509 795 332 q 730 775 795 692 q 543 858 665 858 q 355 777 420 858 q 290 519 290 696 q 355 252 290 335 q 543 169 419 169 z "},"Ớ":{"ha":1085,"x_min":58,"x_max":1036,"o":"m 879 927 q 990 759 951 863 q 1028 514 1028 655 q 969 221 1028 339 q 801 45 910 103 q 543 -13 692 -13 q 284 45 393 -13 q 117 221 176 103 q 58 514 58 339 q 117 807 58 689 q 285 983 176 925 q 543 1041 394 1041 q 614 1038 578 1041 q 656 1033 650 1034 q 754 1026 724 1026 q 852 1052 819 1026 q 885 1135 885 1077 q 872 1233 885 1181 l 1022 1233 q 1033 1182 1030 1207 q 1036 1126 1036 1157 q 995 991 1036 1041 q 879 927 954 942 m 543 169 q 731 251 666 169 q 795 509 795 332 q 730 775 795 692 q 543 858 665 858 q 355 777 420 858 q 290 519 290 696 q 355 252 290 335 q 543 169 419 169 m 442 1108 l 567 1318 l 801 1318 l 642 1108 l 442 1108 z "},"Ợ":{"ha":1085,"x_min":58,"x_max":1036,"o":"m 879 927 q 990 759 951 863 q 1028 514 1028 655 q 969 221 1028 339 q 801 45 910 103 q 543 -13 692 -13 q 284 45 393 -13 q 117 221 176 103 q 58 514 58 339 q 117 807 58 689 q 285 983 176 925 q 543 1041 394 1041 q 614 1038 578 1041 q 656 1033 650 1034 q 754 1026 724 1026 q 852 1052 819 1026 q 885 1135 885 1077 q 872 1233 885 1181 l 1022 1233 q 1033 1182 1030 1207 q 1036 1126 1036 1157 q 995 991 1036 1041 q 879 927 954 942 m 543 169 q 731 251 666 169 q 795 509 795 332 q 730 775 795 692 q 543 858 665 858 q 355 777 420 858 q 290 519 290 696 q 355 252 290 335 q 543 169 419 169 m 543 -290 q 442 -264 476 -290 q 407 -190 407 -237 q 442 -115 407 -142 q 543 -89 476 -89 q 644 -115 610 -89 q 679 -190 679 -142 q 644 -264 679 -237 q 543 -290 610 -290 z "},"Ờ":{"ha":1085,"x_min":58,"x_max":1036,"o":"m 879 927 q 990 759 951 863 q 1028 514 1028 655 q 969 221 1028 339 q 801 45 910 103 q 543 -13 692 -13 q 284 45 393 -13 q 117 221 176 103 q 58 514 58 339 q 117 807 58 689 q 285 983 176 925 q 543 1041 394 1041 q 614 1038 578 1041 q 656 1033 650 1034 q 754 1026 724 1026 q 852 1052 819 1026 q 885 1135 885 1077 q 872 1233 885 1181 l 1022 1233 q 1033 1182 1030 1207 q 1036 1126 1036 1157 q 995 991 1036 1041 q 879 927 954 942 m 543 169 q 731 251 666 169 q 795 509 795 332 q 730 775 795 692 q 543 858 665 858 q 355 777 420 858 q 290 519 290 696 q 355 252 290 335 q 543 169 419 169 m 443 1108 l 285 1318 l 518 1318 l 643 1108 l 443 1108 z "},"Ở":{"ha":1085,"x_min":58,"x_max":1036,"o":"m 879 927 q 990 759 951 863 q 1028 514 1028 655 q 969 221 1028 339 q 801 45 910 103 q 543 -13 692 -13 q 284 45 393 -13 q 117 221 176 103 q 58 514 58 339 q 117 807 58 689 q 285 983 176 925 q 543 1041 394 1041 q 614 1038 578 1041 q 656 1033 650 1034 q 754 1026 724 1026 q 852 1052 819 1026 q 885 1135 885 1077 q 872 1233 885 1181 l 1022 1233 q 1033 1182 1030 1207 q 1036 1126 1036 1157 q 995 991 1036 1041 q 879 927 954 942 m 543 169 q 731 251 666 169 q 795 509 795 332 q 730 775 795 692 q 543 858 665 858 q 355 777 420 858 q 290 519 290 696 q 355 252 290 335 q 543 169 419 169 m 487 1108 q 508 1155 489 1138 q 563 1188 528 1172 q 593 1205 584 1198 q 603 1222 603 1212 q 584 1241 603 1235 q 526 1248 566 1248 q 393 1231 462 1248 l 393 1313 q 463 1326 422 1322 q 543 1331 504 1331 q 677 1308 634 1331 q 720 1238 720 1284 q 710 1203 720 1218 q 687 1179 701 1188 q 651 1157 674 1169 q 614 1133 626 1143 q 599 1108 601 1122 l 487 1108 z "},"Ỡ":{"ha":1085,"x_min":58,"x_max":1036,"o":"m 658 1124 q 599 1131 626 1124 q 531 1152 572 1138 q 474 1171 498 1165 q 424 1177 449 1177 q 353 1165 383 1177 q 290 1128 322 1153 l 290 1256 q 350 1294 317 1281 q 428 1306 383 1306 q 488 1299 460 1306 q 554 1278 515 1292 q 613 1258 589 1265 q 662 1252 636 1252 q 733 1264 702 1252 q 796 1301 763 1275 l 796 1174 q 736 1136 769 1148 q 658 1124 704 1124 m 879 927 q 990 759 951 863 q 1028 514 1028 655 q 969 221 1028 339 q 801 45 910 103 q 543 -13 692 -13 q 284 45 393 -13 q 117 221 176 103 q 58 514 58 339 q 117 807 58 689 q 285 983 176 925 q 543 1041 394 1041 q 614 1038 578 1041 q 656 1033 650 1034 q 754 1026 724 1026 q 852 1052 819 1026 q 885 1135 885 1077 q 872 1233 885 1181 l 1022 1233 q 1033 1182 1030 1207 q 1036 1126 1036 1157 q 995 991 1036 1041 q 879 927 954 942 m 543 169 q 731 251 666 169 q 795 509 795 332 q 730 775 795 692 q 543 858 665 858 q 355 777 420 858 q 290 519 290 696 q 355 252 290 335 q 543 169 419 169 z "},"Ő":{"ha":1085,"x_min":58,"x_max":1028,"o":"m 543 -13 q 285 45 394 -13 q 117 221 176 103 q 58 514 58 339 q 117 807 58 689 q 285 983 176 925 q 543 1041 394 1041 q 801 983 692 1041 q 969 806 910 924 q 1028 514 1028 688 q 968 222 1028 340 q 800 45 909 103 q 543 -13 692 -13 m 543 169 q 731 251 666 169 q 795 509 795 332 q 730 775 795 692 q 543 858 665 858 q 355 777 420 858 q 290 519 290 696 q 355 252 290 335 q 543 169 419 169 m 321 1108 l 415 1318 l 590 1318 l 485 1108 l 321 1108 m 601 1108 l 696 1318 l 872 1318 l 765 1108 l 601 1108 z "},"Ȏ":{"ha":1085,"x_min":58,"x_max":1028,"o":"m 543 -13 q 285 45 394 -13 q 117 221 176 103 q 58 514 58 339 q 117 807 58 689 q 285 983 176 925 q 543 1041 394 1041 q 801 983 692 1041 q 969 806 910 924 q 1028 514 1028 688 q 968 222 1028 340 q 800 45 909 103 q 543 -13 692 -13 m 543 169 q 731 251 666 169 q 795 509 795 332 q 730 775 795 692 q 543 858 665 858 q 355 777 420 858 q 290 519 290 696 q 355 252 290 335 q 543 169 419 169 m 277 1113 q 355 1261 288 1208 q 542 1315 422 1315 q 731 1261 663 1315 q 809 1113 798 1208 l 673 1113 q 634 1184 665 1160 q 542 1207 602 1207 q 452 1184 483 1207 q 413 1113 422 1160 l 277 1113 z "},"Ō":{"ha":1085,"x_min":58,"x_max":1028,"o":"m 543 -13 q 285 45 394 -13 q 117 221 176 103 q 58 514 58 339 q 117 807 58 689 q 285 983 176 925 q 543 1041 394 1041 q 801 983 692 1041 q 969 806 910 924 q 1028 514 1028 688 q 968 222 1028 340 q 800 45 909 103 q 543 -13 692 -13 m 543 169 q 731 251 666 169 q 795 509 795 332 q 730 775 795 692 q 543 858 665 858 q 355 777 420 858 q 290 519 290 696 q 355 252 290 335 q 543 169 419 169 m 288 1147 l 288 1280 l 799 1280 l 799 1147 l 288 1147 z "},"Ṓ":{"ha":1085,"x_min":58,"x_max":1028,"o":"m 543 -13 q 285 45 394 -13 q 117 221 176 103 q 58 514 58 339 q 117 807 58 689 q 285 983 176 925 q 543 1041 394 1041 q 801 983 692 1041 q 969 806 910 924 q 1028 514 1028 688 q 968 222 1028 340 q 800 45 909 103 q 543 -13 692 -13 m 543 169 q 731 251 666 169 q 795 509 795 332 q 730 775 795 692 q 543 858 665 858 q 355 777 420 858 q 290 519 290 696 q 355 252 290 335 q 543 169 419 169 m 431 1358 l 556 1519 l 813 1519 l 655 1358 l 431 1358 m 288 1147 l 288 1280 l 799 1280 l 799 1147 l 288 1147 z "},"Ṑ":{"ha":1085,"x_min":58,"x_max":1028,"o":"m 543 -13 q 285 45 394 -13 q 117 221 176 103 q 58 514 58 339 q 117 807 58 689 q 285 983 176 925 q 543 1041 394 1041 q 801 983 692 1041 q 969 806 910 924 q 1028 514 1028 688 q 968 222 1028 340 q 800 45 909 103 q 543 -13 692 -13 m 543 169 q 731 251 666 169 q 795 509 795 332 q 730 775 795 692 q 543 858 665 858 q 355 777 420 858 q 290 519 290 696 q 355 252 290 335 q 543 169 419 169 m 431 1358 l 273 1519 l 530 1519 l 655 1358 l 431 1358 m 288 1147 l 288 1280 l 799 1280 l 799 1147 l 288 1147 z "},"Ǫ":{"ha":1085,"x_min":58,"x_max":1028,"o":"m 713 9 q 568 -61 611 -22 q 526 -147 526 -101 q 624 -218 526 -218 q 722 -197 668 -218 l 722 -284 q 594 -307 663 -307 q 448 -269 497 -307 q 398 -162 398 -231 q 420 -80 398 -117 q 492 -12 442 -42 q 260 59 357 -2 q 110 234 163 120 q 58 514 58 349 q 117 807 58 689 q 285 983 176 925 q 543 1041 394 1041 q 801 983 692 1041 q 969 807 910 925 q 1028 514 1028 689 q 941 175 1028 299 q 713 9 855 51 m 290 519 q 355 252 290 335 q 543 169 419 169 q 731 251 666 169 q 795 509 795 332 q 730 775 795 692 q 543 858 665 858 q 355 777 420 858 q 290 519 290 696 z "},"Ø":{"ha":1085,"x_min":58,"x_max":1028,"o":"m 912 893 q 998 732 969 827 q 1028 514 1028 637 q 968 222 1028 340 q 800 45 909 103 q 543 -13 692 -13 q 263 58 378 -13 l 192 -33 l 99 40 l 174 135 q 58 514 58 270 q 117 807 58 689 q 285 983 176 925 q 543 1041 394 1041 q 822 970 709 1041 l 893 1061 l 986 988 l 912 893 m 290 519 q 318 322 290 399 l 698 810 q 543 858 638 858 q 355 777 420 858 q 290 519 290 696 m 543 169 q 731 251 666 169 q 795 509 795 332 q 767 706 795 628 l 388 218 q 543 169 446 169 z "},"Ǿ":{"ha":1085,"x_min":58,"x_max":1028,"o":"m 912 893 q 998 732 969 827 q 1028 514 1028 637 q 968 222 1028 340 q 800 45 909 103 q 543 -13 692 -13 q 263 58 378 -13 l 192 -33 l 99 40 l 174 135 q 58 514 58 270 q 117 807 58 689 q 285 983 176 925 q 543 1041 394 1041 q 822 970 709 1041 l 893 1061 l 986 988 l 912 893 m 290 519 q 318 322 290 399 l 698 810 q 543 858 638 858 q 355 777 420 858 q 290 519 290 696 m 543 169 q 731 251 666 169 q 795 509 795 332 q 767 706 795 628 l 388 218 q 543 169 446 169 m 440 1108 l 565 1318 l 799 1318 l 641 1108 l 440 1108 z "},"Õ":{"ha":1085,"x_min":58,"x_max":1028,"o":"m 543 -13 q 285 45 394 -13 q 117 221 176 103 q 58 514 58 339 q 117 807 58 689 q 285 983 176 925 q 543 1041 394 1041 q 801 983 692 1041 q 969 806 910 924 q 1028 514 1028 688 q 968 222 1028 340 q 800 45 909 103 q 543 -13 692 -13 m 543 169 q 731 251 666 169 q 795 509 795 332 q 730 775 795 692 q 543 858 665 858 q 355 777 420 858 q 290 519 290 696 q 355 252 290 335 q 543 169 419 169 m 663 1124 q 601 1131 629 1124 q 531 1152 574 1138 q 469 1171 493 1165 q 419 1177 446 1177 q 346 1165 378 1177 q 281 1128 314 1153 l 281 1256 q 343 1294 310 1281 q 424 1306 377 1306 q 486 1299 457 1306 q 555 1278 515 1292 q 616 1258 591 1265 q 667 1252 640 1252 q 740 1264 708 1252 q 805 1301 772 1276 l 805 1174 q 743 1136 777 1148 q 663 1124 710 1124 z "},"Ṍ":{"ha":1085,"x_min":58,"x_max":1028,"o":"m 543 -13 q 285 45 394 -13 q 117 221 176 103 q 58 514 58 339 q 117 807 58 689 q 285 983 176 925 q 543 1041 394 1041 q 801 983 692 1041 q 969 806 910 924 q 1028 514 1028 688 q 968 222 1028 340 q 800 45 909 103 q 543 -13 692 -13 m 543 169 q 731 251 666 169 q 795 509 795 332 q 730 775 795 692 q 543 858 665 858 q 355 777 420 858 q 290 519 290 696 q 355 252 290 335 q 543 169 419 169 m 431 1358 l 556 1519 l 813 1519 l 655 1358 l 431 1358 m 663 1124 q 601 1131 629 1124 q 531 1152 574 1138 q 469 1171 493 1165 q 419 1177 446 1177 q 346 1165 378 1177 q 281 1128 314 1153 l 281 1256 q 343 1294 310 1281 q 424 1306 377 1306 q 486 1299 457 1306 q 555 1278 515 1292 q 616 1258 591 1265 q 667 1252 640 1252 q 740 1264 708 1252 q 805 1301 772 1276 l 805 1174 q 743 1136 777 1148 q 663 1124 710 1124 z "},"Ṏ":{"ha":1085,"x_min":58,"x_max":1028,"o":"m 543 -13 q 285 45 394 -13 q 117 221 176 103 q 58 514 58 339 q 117 807 58 689 q 285 983 176 925 q 543 1041 394 1041 q 801 983 692 1041 q 969 806 910 924 q 1028 514 1028 688 q 968 222 1028 340 q 800 45 909 103 q 543 -13 692 -13 m 543 169 q 731 251 666 169 q 795 509 795 332 q 730 775 795 692 q 543 858 665 858 q 355 777 420 858 q 290 519 290 696 q 355 252 290 335 q 543 169 419 169 m 663 1124 q 601 1131 629 1124 q 531 1152 574 1138 q 469 1171 493 1165 q 419 1177 446 1177 q 346 1165 378 1177 q 281 1128 314 1153 l 281 1256 q 343 1294 310 1281 q 424 1306 377 1306 q 486 1299 457 1306 q 555 1278 515 1292 q 616 1258 591 1265 q 667 1252 640 1252 q 740 1264 708 1252 q 805 1301 772 1276 l 805 1174 q 743 1136 777 1148 q 663 1124 710 1124 m 365 1358 q 276 1384 306 1358 q 245 1458 245 1410 q 276 1533 245 1506 q 365 1559 306 1559 q 453 1533 423 1559 q 484 1458 484 1506 q 454 1384 484 1410 q 365 1358 424 1358 m 722 1358 q 632 1384 663 1358 q 602 1458 602 1410 q 633 1533 602 1506 q 722 1559 663 1559 q 810 1533 780 1559 q 841 1458 841 1506 q 810 1384 841 1410 q 722 1358 780 1358 z "},"Ȭ":{"ha":1085,"x_min":58,"x_max":1028,"o":"m 543 -13 q 285 45 394 -13 q 117 221 176 103 q 58 514 58 339 q 117 807 58 689 q 285 983 176 925 q 543 1041 394 1041 q 801 983 692 1041 q 969 806 910 924 q 1028 514 1028 688 q 968 222 1028 340 q 800 45 909 103 q 543 -13 692 -13 m 543 169 q 731 251 666 169 q 795 509 795 332 q 730 775 795 692 q 543 858 665 858 q 355 777 420 858 q 290 519 290 696 q 355 252 290 335 q 543 169 419 169 m 663 1124 q 601 1131 629 1124 q 531 1152 574 1138 q 469 1171 493 1165 q 419 1177 446 1177 q 346 1165 378 1177 q 281 1128 314 1153 l 281 1256 q 343 1294 310 1281 q 424 1306 377 1306 q 486 1299 457 1306 q 555 1278 515 1292 q 616 1258 591 1265 q 667 1252 640 1252 q 740 1264 708 1252 q 805 1301 772 1276 l 805 1174 q 743 1136 777 1148 q 663 1124 710 1124 m 288 1389 l 288 1522 l 799 1522 l 799 1389 l 288 1389 z "},"Œ":{"ha":1469,"x_min":58,"x_max":1419,"o":"m 1419 181 l 1419 0 l 867 0 q 808 -1 842 0 q 758 -3 774 -3 q 647 -8 682 -8 q 318 47 448 -8 q 123 217 188 102 q 58 514 58 333 q 643 1037 58 1037 q 757 1032 690 1037 q 865 1028 831 1028 l 1413 1028 l 1413 847 l 936 847 l 936 616 l 1342 616 l 1342 435 l 936 435 l 936 181 l 1419 181 m 712 848 q 599 852 665 852 q 426 818 494 852 q 324 709 358 783 q 290 513 290 634 q 324 318 290 392 q 428 210 359 244 q 601 176 497 176 q 712 180 670 176 l 712 848 z "},"P":{"ha":915,"x_min":92,"x_max":864,"o":"m 92 1010 q 403 1040 250 1040 q 750 950 635 1040 q 864 669 864 860 q 751 392 864 485 q 418 298 639 298 q 319 301 387 298 l 319 0 l 92 0 l 92 1010 m 420 467 q 590 515 537 467 q 644 667 644 562 q 590 822 644 774 q 424 871 537 871 q 319 863 367 871 l 319 474 q 420 467 369 467 z "},"Þ":{"ha":922,"x_min":92,"x_max":864,"o":"m 92 1028 l 319 1028 l 319 894 q 407 899 367 899 q 750 809 637 899 q 864 528 864 719 q 752 251 864 344 q 419 157 640 157 q 319 160 387 157 l 319 0 l 92 0 l 92 1028 m 420 326 q 590 374 537 326 q 644 526 644 421 q 590 681 644 633 q 424 730 537 730 q 319 722 368 730 l 319 332 q 420 326 373 326 z "},"Q":{"ha":1085,"x_min":58,"x_max":1028,"o":"m 1028 514 q 943 180 1028 308 q 692 17 858 51 q 1015 -43 839 -23 l 977 -220 q 426 -71 627 -168 q 141 167 224 26 q 58 509 58 308 q 117 806 58 687 q 285 983 176 924 q 543 1041 394 1041 q 801 983 692 1041 q 969 807 910 925 q 1028 514 1028 689 m 290 519 q 354 252 290 334 q 543 169 418 169 q 731 251 666 169 q 795 509 795 332 q 730 775 795 692 q 543 858 665 858 q 355 777 420 858 q 290 519 290 696 z "},"R":{"ha":957,"x_min":92,"x_max":944,"o":"m 698 0 l 435 377 l 423 377 q 315 381 374 377 l 315 0 l 92 0 l 92 1005 q 249 1031 166 1021 q 414 1040 333 1040 q 748 959 637 1040 q 859 710 859 878 q 806 526 859 601 q 653 413 753 451 l 944 0 l 698 0 m 315 551 q 427 545 374 545 q 593 584 540 545 q 647 710 647 623 q 595 834 647 795 q 437 874 544 874 q 315 863 376 874 l 315 551 z "},"Ŕ":{"ha":957,"x_min":92,"x_max":944,"o":"m 698 0 l 435 377 l 423 377 q 315 381 374 377 l 315 0 l 92 0 l 92 1005 q 249 1031 166 1021 q 414 1040 333 1040 q 748 959 637 1040 q 859 710 859 878 q 806 526 859 601 q 653 413 753 451 l 944 0 l 698 0 m 315 551 q 427 545 374 545 q 593 584 540 545 q 647 710 647 623 q 595 834 647 795 q 437 874 544 874 q 315 863 376 874 l 315 551 m 369 1108 l 494 1318 l 728 1318 l 570 1108 l 369 1108 z "},"Ř":{"ha":957,"x_min":92,"x_max":944,"o":"m 698 0 l 435 377 l 423 377 q 315 381 374 377 l 315 0 l 92 0 l 92 1005 q 249 1031 166 1021 q 414 1040 333 1040 q 748 959 637 1040 q 859 710 859 878 q 806 526 859 601 q 653 413 753 451 l 944 0 l 698 0 m 315 551 q 427 545 374 545 q 593 584 540 545 q 647 710 647 623 q 595 834 647 795 q 437 874 544 874 q 315 863 376 874 l 315 551 m 574 1318 l 743 1318 l 565 1108 l 376 1108 l 199 1318 l 367 1318 l 471 1190 l 574 1318 z "},"Ŗ":{"ha":957,"x_min":92,"x_max":944,"o":"m 698 0 l 435 377 l 423 377 q 315 381 374 377 l 315 0 l 92 0 l 92 1005 q 249 1031 166 1021 q 414 1040 333 1040 q 748 959 637 1040 q 859 710 859 878 q 806 526 859 601 q 653 413 753 451 l 944 0 l 698 0 m 315 551 q 427 545 374 545 q 593 584 540 545 q 647 710 647 623 q 595 834 647 795 q 437 874 544 874 q 315 863 376 874 l 315 551 m 501 -89 q 626 -192 626 -89 q 611 -272 626 -230 q 572 -345 597 -314 l 435 -345 q 474 -244 466 -285 q 378 -167 378 -235 q 408 -109 378 -130 q 501 -89 439 -89 z "},"Ȑ":{"ha":957,"x_min":92,"x_max":944,"o":"m 698 0 l 435 377 l 423 377 q 315 381 374 377 l 315 0 l 92 0 l 92 1005 q 249 1031 166 1021 q 414 1040 333 1040 q 748 959 637 1040 q 859 710 859 878 q 806 526 859 601 q 653 413 753 451 l 944 0 l 698 0 m 315 551 q 427 545 374 545 q 593 584 540 545 q 647 710 647 623 q 595 834 647 795 q 437 874 544 874 q 315 863 376 874 l 315 551 m 249 1108 l 142 1318 l 318 1318 l 413 1108 l 249 1108 m 529 1108 l 424 1318 l 599 1318 l 693 1108 l 529 1108 z "},"Ṛ":{"ha":957,"x_min":92,"x_max":944,"o":"m 698 0 l 435 377 l 423 377 q 315 381 374 377 l 315 0 l 92 0 l 92 1005 q 249 1031 166 1021 q 414 1040 333 1040 q 748 959 637 1040 q 859 710 859 878 q 806 526 859 601 q 653 413 753 451 l 944 0 l 698 0 m 315 551 q 427 545 374 545 q 593 584 540 545 q 647 710 647 623 q 595 834 647 795 q 437 874 544 874 q 315 863 376 874 l 315 551 m 502 -290 q 401 -264 435 -290 q 366 -190 366 -237 q 401 -115 366 -142 q 502 -89 435 -89 q 603 -115 569 -89 q 638 -190 638 -142 q 603 -264 638 -237 q 502 -290 569 -290 z "},"Ȓ":{"ha":957,"x_min":92,"x_max":944,"o":"m 698 0 l 435 377 l 423 377 q 315 381 374 377 l 315 0 l 92 0 l 92 1005 q 249 1031 166 1021 q 414 1040 333 1040 q 748 959 637 1040 q 859 710 859 878 q 806 526 859 601 q 653 413 753 451 l 944 0 l 698 0 m 315 551 q 427 545 374 545 q 593 584 540 545 q 647 710 647 623 q 595 834 647 795 q 437 874 544 874 q 315 863 376 874 l 315 551 m 205 1113 q 283 1261 216 1208 q 470 1315 350 1315 q 658 1261 591 1315 q 737 1113 726 1208 l 601 1113 q 561 1184 593 1160 q 470 1207 530 1207 q 380 1184 410 1207 q 341 1113 349 1160 l 205 1113 z "},"Ṟ":{"ha":957,"x_min":92,"x_max":944,"o":"m 698 0 l 435 377 l 423 377 q 315 381 374 377 l 315 0 l 92 0 l 92 1005 q 249 1031 166 1021 q 414 1040 333 1040 q 748 959 637 1040 q 859 710 859 878 q 806 526 859 601 q 653 413 753 451 l 944 0 l 698 0 m 315 551 q 427 545 374 545 q 593 584 540 545 q 647 710 647 623 q 595 834 647 795 q 437 874 544 874 q 315 863 376 874 l 315 551 m 247 -251 l 247 -118 l 758 -118 l 758 -251 l 247 -251 z "},"S":{"ha":801,"x_min":38,"x_max":763,"o":"m 350 -13 q 200 -2 275 -13 q 63 31 126 10 l 63 214 q 205 181 127 193 q 349 169 282 169 q 493 199 449 169 q 538 288 538 229 q 524 343 538 321 q 478 381 510 365 q 389 413 447 397 l 312 433 q 106 539 174 467 q 38 728 38 612 q 147 959 38 878 q 467 1041 255 1041 q 597 1033 534 1041 q 710 1011 660 1025 l 710 827 q 600 851 661 842 q 479 859 540 859 q 314 828 364 859 q 264 740 264 797 q 276 688 264 709 q 316 652 288 667 q 394 623 344 637 l 472 603 q 693 494 622 566 q 763 303 763 422 q 714 134 763 206 q 572 25 665 63 q 350 -13 479 -13 z "},"Ś":{"ha":801,"x_min":38,"x_max":763,"o":"m 350 -13 q 200 -2 275 -13 q 63 31 126 10 l 63 214 q 205 181 127 193 q 349 169 282 169 q 493 199 449 169 q 538 288 538 229 q 524 343 538 321 q 478 381 510 365 q 389 413 447 397 l 312 433 q 106 539 174 467 q 38 728 38 612 q 147 959 38 878 q 467 1041 255 1041 q 597 1033 534 1041 q 710 1011 660 1025 l 710 827 q 600 851 661 842 q 479 859 540 859 q 314 828 364 859 q 264 740 264 797 q 276 688 264 709 q 316 652 288 667 q 394 623 344 637 l 472 603 q 693 494 622 566 q 763 303 763 422 q 714 134 763 206 q 572 25 665 63 q 350 -13 479 -13 m 307 1108 l 432 1318 l 666 1318 l 508 1108 l 307 1108 z "},"Ṥ":{"ha":801,"x_min":38,"x_max":763,"o":"m 350 -13 q 200 -2 275 -13 q 63 31 126 10 l 63 214 q 205 181 127 193 q 349 169 282 169 q 493 199 449 169 q 538 288 538 229 q 524 343 538 321 q 478 381 510 365 q 389 413 447 397 l 312 433 q 106 539 174 467 q 38 728 38 612 q 147 959 38 878 q 467 1041 255 1041 q 597 1033 534 1041 q 710 1011 660 1025 l 710 827 q 600 851 661 842 q 479 859 540 859 q 314 828 364 859 q 264 740 264 797 q 276 688 264 709 q 316 652 288 667 q 394 623 344 637 l 472 603 q 693 494 622 566 q 763 303 763 422 q 714 134 763 206 q 572 25 665 63 q 350 -13 479 -13 m 253 1290 q 170 1312 199 1290 q 142 1373 142 1333 q 171 1435 142 1413 q 253 1457 199 1457 q 336 1435 308 1457 q 365 1373 365 1413 q 336 1312 365 1333 q 253 1290 308 1290 m 307 1108 l 432 1318 l 666 1318 l 508 1108 l 307 1108 z "},"Š":{"ha":801,"x_min":38,"x_max":763,"o":"m 350 -13 q 200 -2 275 -13 q 63 31 126 10 l 63 214 q 205 181 127 193 q 349 169 282 169 q 493 199 449 169 q 538 288 538 229 q 524 343 538 321 q 478 381 510 365 q 389 413 447 397 l 312 433 q 106 539 174 467 q 38 728 38 612 q 147 959 38 878 q 467 1041 255 1041 q 597 1033 534 1041 q 710 1011 660 1025 l 710 827 q 600 851 661 842 q 479 859 540 859 q 314 828 364 859 q 264 740 264 797 q 276 688 264 709 q 316 652 288 667 q 394 623 344 637 l 472 603 q 693 494 622 566 q 763 303 763 422 q 714 134 763 206 q 572 25 665 63 q 350 -13 479 -13 m 512 1318 l 681 1318 l 503 1108 l 314 1108 l 136 1318 l 305 1318 l 408 1190 l 512 1318 z "},"Ṧ":{"ha":801,"x_min":38,"x_max":763,"o":"m 350 -13 q 200 -2 275 -13 q 63 31 126 10 l 63 214 q 205 181 127 193 q 349 169 282 169 q 493 199 449 169 q 538 288 538 229 q 524 343 538 321 q 478 381 510 365 q 389 413 447 397 l 312 433 q 106 539 174 467 q 38 728 38 612 q 147 959 38 878 q 467 1041 255 1041 q 597 1033 534 1041 q 710 1011 660 1025 l 710 827 q 600 851 661 842 q 479 859 540 859 q 314 828 364 859 q 264 740 264 797 q 276 688 264 709 q 316 652 288 667 q 394 623 344 637 l 472 603 q 693 494 622 566 q 763 303 763 422 q 714 134 763 206 q 572 25 665 63 q 350 -13 479 -13 m 408 1338 q 326 1359 354 1338 q 297 1421 297 1381 q 326 1482 297 1460 q 408 1504 354 1504 q 491 1482 463 1504 q 519 1421 519 1460 q 491 1359 519 1381 q 408 1338 463 1338 m 512 1318 l 681 1318 l 503 1108 l 314 1108 l 136 1318 l 305 1318 l 408 1190 l 512 1318 z "},"Ş":{"ha":801,"x_min":38,"x_max":763,"o":"m 763 303 q 726 153 763 219 q 618 47 689 88 q 449 -7 548 6 l 449 -60 q 544 -99 511 -68 q 576 -180 576 -130 q 528 -274 576 -240 q 387 -307 481 -307 q 247 -285 309 -307 l 247 -199 q 376 -222 306 -222 q 439 -210 418 -222 q 460 -173 460 -199 q 376 -122 460 -122 l 342 -122 l 342 -13 q 197 -1 269 -12 q 63 31 124 10 l 63 214 q 205 181 127 193 q 349 169 282 169 q 493 199 449 169 q 538 288 538 229 q 524 343 538 321 q 478 381 510 365 q 389 413 447 397 l 312 433 q 106 539 174 467 q 38 728 38 612 q 147 959 38 878 q 467 1041 255 1041 q 597 1033 534 1041 q 710 1011 660 1025 l 710 827 q 600 851 661 842 q 479 859 540 859 q 314 828 364 859 q 264 740 264 797 q 276 688 264 709 q 316 652 288 667 q 394 623 344 637 l 472 603 q 693 494 622 566 q 763 303 763 422 z "},"Ŝ":{"ha":801,"x_min":38,"x_max":763,"o":"m 350 -13 q 200 -2 275 -13 q 63 31 126 10 l 63 214 q 205 181 127 193 q 349 169 282 169 q 493 199 449 169 q 538 288 538 229 q 524 343 538 321 q 478 381 510 365 q 389 413 447 397 l 312 433 q 106 539 174 467 q 38 728 38 612 q 147 959 38 878 q 467 1041 255 1041 q 597 1033 534 1041 q 710 1011 660 1025 l 710 827 q 600 851 661 842 q 479 859 540 859 q 314 828 364 859 q 264 740 264 797 q 276 688 264 709 q 316 652 288 667 q 394 623 344 637 l 472 603 q 693 494 622 566 q 763 303 763 422 q 714 134 763 206 q 572 25 665 63 q 350 -13 479 -13 m 681 1108 l 512 1108 l 408 1236 l 305 1108 l 136 1108 l 314 1318 l 503 1318 l 681 1108 z "},"Ș":{"ha":801,"x_min":38,"x_max":763,"o":"m 350 -13 q 200 -2 275 -13 q 63 31 126 10 l 63 214 q 205 181 127 193 q 349 169 282 169 q 493 199 449 169 q 538 288 538 229 q 524 343 538 321 q 478 381 510 365 q 389 413 447 397 l 312 433 q 106 539 174 467 q 38 728 38 612 q 147 959 38 878 q 467 1041 255 1041 q 597 1033 534 1041 q 710 1011 660 1025 l 710 827 q 600 851 661 842 q 479 859 540 859 q 314 828 364 859 q 264 740 264 797 q 276 688 264 709 q 316 652 288 667 q 394 623 344 637 l 472 603 q 693 494 622 566 q 763 303 763 422 q 714 134 763 206 q 572 25 665 63 q 350 -13 479 -13 m 408 -89 q 533 -192 533 -89 q 518 -272 533 -230 q 478 -345 503 -314 l 342 -345 q 380 -244 372 -285 q 284 -167 284 -235 q 315 -109 284 -130 q 408 -89 345 -89 z "},"Ṡ":{"ha":801,"x_min":38,"x_max":763,"o":"m 350 -13 q 200 -2 275 -13 q 63 31 126 10 l 63 214 q 205 181 127 193 q 349 169 282 169 q 493 199 449 169 q 538 288 538 229 q 524 343 538 321 q 478 381 510 365 q 389 413 447 397 l 312 433 q 106 539 174 467 q 38 728 38 612 q 147 959 38 878 q 467 1041 255 1041 q 597 1033 534 1041 q 710 1011 660 1025 l 710 827 q 600 851 661 842 q 479 859 540 859 q 314 828 364 859 q 264 740 264 797 q 276 688 264 709 q 316 652 288 667 q 394 623 344 637 l 472 603 q 693 494 622 566 q 763 303 763 422 q 714 134 763 206 q 572 25 665 63 q 350 -13 479 -13 m 408 1115 q 307 1141 342 1115 q 272 1216 272 1167 q 307 1290 272 1264 q 408 1317 342 1317 q 510 1290 475 1317 q 544 1216 544 1264 q 510 1141 544 1167 q 408 1115 475 1115 z "},"Ṣ":{"ha":801,"x_min":38,"x_max":763,"o":"m 350 -13 q 200 -2 275 -13 q 63 31 126 10 l 63 214 q 205 181 127 193 q 349 169 282 169 q 493 199 449 169 q 538 288 538 229 q 524 343 538 321 q 478 381 510 365 q 389 413 447 397 l 312 433 q 106 539 174 467 q 38 728 38 612 q 147 959 38 878 q 467 1041 255 1041 q 597 1033 534 1041 q 710 1011 660 1025 l 710 827 q 600 851 661 842 q 479 859 540 859 q 314 828 364 859 q 264 740 264 797 q 276 688 264 709 q 316 652 288 667 q 394 623 344 637 l 472 603 q 693 494 622 566 q 763 303 763 422 q 714 134 763 206 q 572 25 665 63 q 350 -13 479 -13 m 408 -290 q 307 -264 342 -290 q 272 -190 272 -237 q 307 -115 272 -142 q 408 -89 342 -89 q 510 -115 475 -89 q 544 -190 544 -142 q 510 -264 544 -237 q 408 -290 475 -290 z "},"Ṩ":{"ha":801,"x_min":38,"x_max":763,"o":"m 350 -13 q 200 -2 275 -13 q 63 31 126 10 l 63 214 q 205 181 127 193 q 349 169 282 169 q 493 199 449 169 q 538 288 538 229 q 524 343 538 321 q 478 381 510 365 q 389 413 447 397 l 312 433 q 106 539 174 467 q 38 728 38 612 q 147 959 38 878 q 467 1041 255 1041 q 597 1033 534 1041 q 710 1011 660 1025 l 710 827 q 600 851 661 842 q 479 859 540 859 q 314 828 364 859 q 264 740 264 797 q 276 688 264 709 q 316 652 288 667 q 394 623 344 637 l 472 603 q 693 494 622 566 q 763 303 763 422 q 714 134 763 206 q 572 25 665 63 q 350 -13 479 -13 m 408 -290 q 307 -264 342 -290 q 272 -190 272 -237 q 307 -115 272 -142 q 408 -89 342 -89 q 510 -115 475 -89 q 544 -190 544 -142 q 510 -264 544 -237 q 408 -290 475 -290 m 408 1115 q 307 1141 342 1115 q 272 1216 272 1167 q 307 1290 272 1264 q 408 1317 342 1317 q 510 1290 475 1317 q 544 1216 544 1264 q 510 1141 544 1167 q 408 1115 475 1115 z "},"ẞ":{"ha":1264,"x_min":92,"x_max":1226,"o":"m 944 603 q 1158 494 1090 566 q 1226 303 1226 422 q 1178 134 1226 206 q 1039 25 1130 63 q 821 -13 948 -13 q 681 -2 752 -13 q 549 28 609 8 l 549 212 q 684 180 610 192 q 818 169 758 169 q 960 199 916 169 q 1003 288 1003 229 q 991 343 1003 321 q 948 382 978 365 q 865 413 917 399 l 790 433 q 591 539 657 467 q 525 728 525 612 q 549 855 525 799 q 499 860 527 860 q 364 811 408 860 q 319 664 319 762 l 319 0 l 92 0 l 92 635 q 193 938 92 834 q 499 1041 294 1041 q 708 1003 619 1041 q 945 1041 804 1041 q 1067 1034 1008 1041 q 1175 1013 1127 1026 l 1175 830 q 1069 851 1127 844 q 959 859 1012 859 q 797 828 846 859 q 748 740 748 797 q 759 688 748 709 q 797 651 770 667 q 869 623 823 635 l 944 603 z "},"Ə":{"ha":1072,"x_min":51,"x_max":1013,"o":"m 418 1041 q 865 910 716 1041 q 1013 504 1013 780 q 955 219 1013 335 q 790 45 897 103 q 538 -13 683 -13 q 280 44 389 -13 q 110 218 170 101 q 51 508 51 335 l 51 583 l 785 583 q 725 746 772 685 q 599 833 678 807 q 399 860 519 860 q 257 852 331 860 q 119 828 183 844 l 119 1011 q 418 1041 255 1041 m 540 162 q 666 186 615 162 q 747 268 717 211 q 786 419 778 324 l 286 419 q 325 269 294 326 q 408 187 356 213 q 540 162 461 162 z "},"T":{"ha":894,"x_min":9,"x_max":884,"o":"m 333 0 l 333 840 l 9 840 l 9 1028 l 884 1028 l 884 840 l 560 840 l 560 0 l 333 0 z "},"Ŧ":{"ha":894,"x_min":9,"x_max":884,"o":"m 884 840 l 560 840 l 560 579 l 769 579 l 769 435 l 560 435 l 560 0 l 333 0 l 333 435 l 125 435 l 125 579 l 333 579 l 333 840 l 9 840 l 9 1028 l 884 1028 l 884 840 z "},"Ť":{"ha":894,"x_min":9,"x_max":884,"o":"m 333 0 l 333 840 l 9 840 l 9 1028 l 884 1028 l 884 840 l 560 840 l 560 0 l 333 0 m 551 1318 l 719 1318 l 542 1108 l 353 1108 l 175 1318 l 344 1318 l 447 1190 l 551 1318 z "},"Ţ":{"ha":894,"x_min":9,"x_max":884,"o":"m 488 0 l 488 -60 q 583 -99 550 -68 q 615 -180 615 -130 q 567 -274 615 -240 q 426 -307 519 -307 q 285 -285 348 -307 l 285 -199 q 415 -222 345 -222 q 478 -210 457 -222 q 499 -173 499 -199 q 415 -122 499 -122 l 381 -122 l 381 0 l 333 0 l 333 840 l 9 840 l 9 1028 l 884 1028 l 884 840 l 560 840 l 560 0 l 488 0 z "},"Ț":{"ha":894,"x_min":9,"x_max":884,"o":"m 333 0 l 333 840 l 9 840 l 9 1028 l 884 1028 l 884 840 l 560 840 l 560 0 l 333 0 m 447 -89 q 572 -192 572 -89 q 557 -272 572 -230 q 517 -345 542 -314 l 381 -345 q 419 -244 411 -285 q 323 -167 323 -235 q 353 -109 323 -130 q 447 -89 384 -89 z "},"Ṭ":{"ha":894,"x_min":9,"x_max":884,"o":"m 333 0 l 333 840 l 9 840 l 9 1028 l 884 1028 l 884 840 l 560 840 l 560 0 l 333 0 m 447 -290 q 346 -264 381 -290 q 311 -190 311 -237 q 346 -115 311 -142 q 447 -89 381 -89 q 549 -115 514 -89 q 583 -190 583 -142 q 549 -264 583 -237 q 447 -290 514 -290 z "},"Ṯ":{"ha":894,"x_min":9,"x_max":884,"o":"m 333 0 l 333 840 l 9 840 l 9 1028 l 884 1028 l 884 840 l 560 840 l 560 0 l 333 0 m 192 -251 l 192 -118 l 703 -118 l 703 -251 l 192 -251 z "},"U":{"ha":1039,"x_min":88,"x_max":951,"o":"m 522 -13 q 193 95 298 -13 q 88 426 88 203 l 88 1028 l 315 1028 l 315 404 q 365 228 315 283 q 522 172 416 172 q 678 228 627 172 q 728 404 728 283 l 728 1028 l 951 1028 l 951 426 q 847 95 951 203 q 522 -13 743 -13 z "},"Ú":{"ha":1039,"x_min":88,"x_max":951,"o":"m 522 -13 q 193 95 298 -13 q 88 426 88 203 l 88 1028 l 315 1028 l 315 404 q 365 228 315 283 q 522 172 416 172 q 678 228 627 172 q 728 404 728 283 l 728 1028 l 951 1028 l 951 426 q 847 95 951 203 q 522 -13 743 -13 m 420 1108 l 545 1318 l 779 1318 l 621 1108 l 420 1108 z "},"Ŭ":{"ha":1039,"x_min":88,"x_max":951,"o":"m 522 -13 q 193 95 298 -13 q 88 426 88 203 l 88 1028 l 315 1028 l 315 404 q 365 228 315 283 q 522 172 416 172 q 678 228 627 172 q 728 404 728 283 l 728 1028 l 951 1028 l 951 426 q 847 95 951 203 q 522 -13 743 -13 m 522 1110 q 334 1164 401 1110 q 256 1312 267 1217 l 392 1312 q 431 1242 400 1265 q 522 1219 462 1219 q 613 1242 582 1219 q 651 1312 643 1265 l 788 1312 q 709 1164 776 1217 q 522 1110 642 1110 z "},"Û":{"ha":1039,"x_min":88,"x_max":951,"o":"m 522 -13 q 193 95 298 -13 q 88 426 88 203 l 88 1028 l 315 1028 l 315 404 q 365 228 315 283 q 522 172 416 172 q 678 228 627 172 q 728 404 728 283 l 728 1028 l 951 1028 l 951 426 q 847 95 951 203 q 522 -13 743 -13 m 794 1108 l 625 1108 l 522 1236 l 418 1108 l 249 1108 l 427 1318 l 616 1318 l 794 1108 z "},"Ȕ":{"ha":1039,"x_min":88,"x_max":951,"o":"m 522 -13 q 193 95 298 -13 q 88 426 88 203 l 88 1028 l 315 1028 l 315 404 q 365 228 315 283 q 522 172 416 172 q 678 228 627 172 q 728 404 728 283 l 728 1028 l 951 1028 l 951 426 q 847 95 951 203 q 522 -13 743 -13 m 299 1108 l 193 1318 l 369 1318 l 463 1108 l 299 1108 m 580 1108 l 474 1318 l 649 1318 l 744 1108 l 580 1108 z "},"Ü":{"ha":1039,"x_min":88,"x_max":951,"o":"m 522 -13 q 193 95 298 -13 q 88 426 88 203 l 88 1028 l 315 1028 l 315 404 q 365 228 315 283 q 522 172 416 172 q 678 228 627 172 q 728 404 728 283 l 728 1028 l 951 1028 l 951 426 q 847 95 951 203 q 522 -13 743 -13 m 343 1115 q 254 1141 285 1115 q 224 1216 224 1167 q 254 1290 224 1264 q 343 1317 285 1317 q 432 1290 401 1317 q 463 1216 463 1264 q 432 1141 463 1167 q 343 1115 402 1115 m 700 1115 q 611 1141 641 1115 q 581 1216 581 1167 q 611 1290 581 1264 q 700 1317 642 1317 q 789 1290 758 1317 q 819 1216 819 1264 q 789 1141 819 1167 q 700 1115 758 1115 z "},"Ụ":{"ha":1039,"x_min":88,"x_max":951,"o":"m 522 -13 q 193 95 298 -13 q 88 426 88 203 l 88 1028 l 315 1028 l 315 404 q 365 228 315 283 q 522 172 416 172 q 678 228 627 172 q 728 404 728 283 l 728 1028 l 951 1028 l 951 426 q 847 95 951 203 q 522 -13 743 -13 m 522 -290 q 420 -264 455 -290 q 385 -190 385 -237 q 420 -115 385 -142 q 522 -89 455 -89 q 623 -115 588 -89 q 658 -190 658 -142 q 623 -264 658 -237 q 522 -290 588 -290 z "},"Ù":{"ha":1039,"x_min":88,"x_max":951,"o":"m 522 -13 q 193 95 298 -13 q 88 426 88 203 l 88 1028 l 315 1028 l 315 404 q 365 228 315 283 q 522 172 416 172 q 678 228 627 172 q 728 404 728 283 l 728 1028 l 951 1028 l 951 426 q 847 95 951 203 q 522 -13 743 -13 m 422 1108 l 263 1318 l 497 1318 l 622 1108 l 422 1108 z "},"Ủ":{"ha":1039,"x_min":88,"x_max":951,"o":"m 522 -13 q 193 95 298 -13 q 88 426 88 203 l 88 1028 l 315 1028 l 315 404 q 365 228 315 283 q 522 172 416 172 q 678 228 627 172 q 728 404 728 283 l 728 1028 l 951 1028 l 951 426 q 847 95 951 203 q 522 -13 743 -13 m 465 1108 q 487 1155 467 1138 q 541 1188 506 1172 q 572 1205 563 1198 q 581 1222 581 1212 q 563 1241 581 1235 q 505 1248 544 1248 q 372 1231 440 1248 l 372 1313 q 441 1326 400 1322 q 522 1331 483 1331 q 656 1308 613 1331 q 699 1238 699 1284 q 689 1203 699 1218 q 666 1179 679 1188 q 630 1157 652 1169 q 592 1133 605 1143 q 577 1108 579 1122 l 465 1108 z "},"Ư":{"ha":1041,"x_min":88,"x_max":1084,"o":"m 522 -13 q 193 95 298 -13 q 88 426 88 203 l 88 1028 l 315 1028 l 315 404 q 365 228 315 283 q 522 172 416 172 q 678 228 627 172 q 728 404 728 283 l 728 1028 l 801 1028 q 899 1053 867 1028 q 932 1135 932 1078 q 919 1233 932 1181 l 1069 1233 q 1084 1126 1084 1184 q 1049 1002 1084 1050 q 951 938 1014 955 l 951 426 q 847 95 951 203 q 522 -13 743 -13 z "},"Ứ":{"ha":1041,"x_min":88,"x_max":1084,"o":"m 522 -13 q 193 95 298 -13 q 88 426 88 203 l 88 1028 l 315 1028 l 315 404 q 365 228 315 283 q 522 172 416 172 q 678 228 627 172 q 728 404 728 283 l 728 1028 l 801 1028 q 899 1053 867 1028 q 932 1135 932 1078 q 919 1233 932 1181 l 1069 1233 q 1084 1126 1084 1184 q 1049 1002 1084 1050 q 951 938 1014 955 l 951 426 q 847 95 951 203 q 522 -13 743 -13 m 419 1108 l 544 1318 l 778 1318 l 619 1108 l 419 1108 z "},"Ự":{"ha":1041,"x_min":88,"x_max":1084,"o":"m 522 -13 q 193 95 298 -13 q 88 426 88 203 l 88 1028 l 315 1028 l 315 404 q 365 228 315 283 q 522 172 416 172 q 678 228 627 172 q 728 404 728 283 l 728 1028 l 801 1028 q 899 1053 867 1028 q 932 1135 932 1078 q 919 1233 932 1181 l 1069 1233 q 1084 1126 1084 1184 q 1049 1002 1084 1050 q 951 938 1014 955 l 951 426 q 847 95 951 203 q 522 -13 743 -13 m 520 -290 q 419 -264 453 -290 q 384 -190 384 -237 q 419 -115 384 -142 q 520 -89 453 -89 q 622 -115 587 -89 q 656 -190 656 -142 q 622 -264 656 -237 q 520 -290 587 -290 z "},"Ừ":{"ha":1041,"x_min":88,"x_max":1084,"o":"m 522 -13 q 193 95 298 -13 q 88 426 88 203 l 88 1028 l 315 1028 l 315 404 q 365 228 315 283 q 522 172 416 172 q 678 228 627 172 q 728 404 728 283 l 728 1028 l 801 1028 q 899 1053 867 1028 q 932 1135 932 1078 q 919 1233 932 1181 l 1069 1233 q 1084 1126 1084 1184 q 1049 1002 1084 1050 q 951 938 1014 955 l 951 426 q 847 95 951 203 q 522 -13 743 -13 m 420 1108 l 262 1318 l 495 1318 l 620 1108 l 420 1108 z "},"Ử":{"ha":1041,"x_min":88,"x_max":1084,"o":"m 522 -13 q 193 95 298 -13 q 88 426 88 203 l 88 1028 l 315 1028 l 315 404 q 365 228 315 283 q 522 172 416 172 q 678 228 627 172 q 728 404 728 283 l 728 1028 l 801 1028 q 899 1053 867 1028 q 932 1135 932 1078 q 919 1233 932 1181 l 1069 1233 q 1084 1126 1084 1184 q 1049 1002 1084 1050 q 951 938 1014 955 l 951 426 q 847 95 951 203 q 522 -13 743 -13 m 464 1108 q 485 1155 466 1138 q 540 1188 505 1172 q 570 1205 561 1198 q 580 1222 580 1212 q 561 1241 580 1235 q 503 1248 543 1248 q 370 1231 439 1248 l 370 1313 q 440 1326 399 1322 q 520 1331 481 1331 q 654 1308 611 1331 q 697 1238 697 1284 q 688 1203 697 1218 q 664 1179 678 1188 q 628 1157 651 1169 q 591 1133 603 1143 q 576 1108 578 1122 l 464 1108 z "},"Ữ":{"ha":1041,"x_min":88,"x_max":1084,"o":"m 522 -13 q 193 95 298 -13 q 88 426 88 203 l 88 1028 l 315 1028 l 315 404 q 365 228 315 283 q 522 172 416 172 q 678 228 627 172 q 728 404 728 283 l 728 1028 l 801 1028 q 899 1053 867 1028 q 932 1135 932 1078 q 919 1233 932 1181 l 1069 1233 q 1084 1126 1084 1184 q 1049 1002 1084 1050 q 951 938 1014 955 l 951 426 q 847 95 951 203 q 522 -13 743 -13 m 640 1124 q 578 1131 606 1124 q 508 1152 551 1138 q 447 1171 470 1165 q 397 1177 423 1177 q 323 1165 355 1177 q 258 1128 291 1153 l 258 1256 q 320 1294 287 1281 q 401 1306 354 1306 q 463 1299 434 1306 q 532 1278 492 1292 q 593 1258 568 1265 q 644 1252 617 1252 q 717 1264 685 1252 q 782 1301 749 1276 l 782 1174 q 720 1136 754 1148 q 640 1124 687 1124 z "},"Ű":{"ha":1039,"x_min":88,"x_max":951,"o":"m 522 -13 q 193 95 298 -13 q 88 426 88 203 l 88 1028 l 315 1028 l 315 404 q 365 228 315 283 q 522 172 416 172 q 678 228 627 172 q 728 404 728 283 l 728 1028 l 951 1028 l 951 426 q 847 95 951 203 q 522 -13 743 -13 m 299 1108 l 393 1318 l 569 1318 l 463 1108 l 299 1108 m 580 1108 l 674 1318 l 850 1318 l 744 1108 l 580 1108 z "},"Ȗ":{"ha":1039,"x_min":88,"x_max":951,"o":"m 522 -13 q 193 95 298 -13 q 88 426 88 203 l 88 1028 l 315 1028 l 315 404 q 365 228 315 283 q 522 172 416 172 q 678 228 627 172 q 728 404 728 283 l 728 1028 l 951 1028 l 951 426 q 847 95 951 203 q 522 -13 743 -13 m 256 1113 q 334 1261 267 1208 q 521 1315 401 1315 q 709 1261 642 1315 q 788 1113 776 1208 l 651 1113 q 612 1184 644 1160 q 521 1207 581 1207 q 431 1184 461 1207 q 392 1113 400 1160 l 256 1113 z "},"Ū":{"ha":1039,"x_min":88,"x_max":951,"o":"m 522 -13 q 193 95 298 -13 q 88 426 88 203 l 88 1028 l 315 1028 l 315 404 q 365 228 315 283 q 522 172 416 172 q 678 228 627 172 q 728 404 728 283 l 728 1028 l 951 1028 l 951 426 q 847 95 951 203 q 522 -13 743 -13 m 266 1147 l 266 1280 l 777 1280 l 777 1147 l 266 1147 z "},"Ṻ":{"ha":1039,"x_min":88,"x_max":951,"o":"m 522 -13 q 193 95 298 -13 q 88 426 88 203 l 88 1028 l 315 1028 l 315 404 q 365 228 315 283 q 522 172 416 172 q 678 228 627 172 q 728 404 728 283 l 728 1028 l 951 1028 l 951 426 q 847 95 951 203 q 522 -13 743 -13 m 266 1147 l 266 1280 l 777 1280 l 777 1147 l 266 1147 m 343 1358 q 254 1384 285 1358 q 224 1458 224 1410 q 254 1533 224 1506 q 343 1559 285 1559 q 432 1533 401 1559 q 463 1458 463 1506 q 432 1384 463 1410 q 343 1358 402 1358 m 700 1358 q 611 1384 641 1358 q 581 1458 581 1410 q 611 1533 581 1506 q 700 1559 642 1559 q 789 1533 758 1559 q 819 1458 819 1506 q 789 1384 819 1410 q 700 1358 758 1358 z "},"Ų":{"ha":1039,"x_min":88,"x_max":951,"o":"m 951 1028 l 951 426 q 892 154 951 258 q 707 11 833 51 q 556 -62 598 -24 q 514 -147 514 -101 q 613 -218 514 -218 q 711 -197 653 -218 l 711 -284 q 583 -307 647 -307 q 436 -269 485 -307 q 387 -162 387 -231 q 409 -80 387 -117 q 480 -12 431 -43 q 183 105 278 -3 q 88 426 88 213 l 88 1028 l 315 1028 l 315 404 q 365 228 315 283 q 522 172 416 172 q 678 228 627 172 q 728 404 728 283 l 728 1028 l 951 1028 z "},"Ů":{"ha":1039,"x_min":88,"x_max":951,"o":"m 522 -13 q 193 95 298 -13 q 88 426 88 203 l 88 1028 l 315 1028 l 315 404 q 365 228 315 283 q 522 172 416 172 q 678 228 627 172 q 728 404 728 283 l 728 1028 l 951 1028 l 951 426 q 847 95 951 203 q 522 -13 743 -13 m 522 1099 q 445 1117 479 1099 q 392 1169 411 1136 q 372 1244 372 1202 q 392 1319 372 1285 q 445 1371 411 1352 q 522 1390 479 1390 q 598 1371 564 1390 q 651 1319 632 1352 q 671 1244 671 1285 q 651 1169 671 1202 q 598 1117 632 1136 q 522 1099 564 1099 m 522 1177 q 568 1195 551 1177 q 586 1244 586 1213 q 568 1293 586 1275 q 522 1311 551 1311 q 475 1293 492 1311 q 457 1244 457 1275 q 475 1195 457 1213 q 522 1177 492 1177 z "},"Ũ":{"ha":1039,"x_min":88,"x_max":951,"o":"m 522 -13 q 193 95 298 -13 q 88 426 88 203 l 88 1028 l 315 1028 l 315 404 q 365 228 315 283 q 522 172 416 172 q 678 228 627 172 q 728 404 728 283 l 728 1028 l 951 1028 l 951 426 q 847 95 951 203 q 522 -13 743 -13 m 641 1124 q 580 1131 608 1124 q 510 1152 552 1138 q 448 1171 472 1165 q 398 1177 424 1177 q 324 1165 356 1177 q 260 1128 292 1153 l 260 1256 q 322 1294 288 1281 q 402 1306 356 1306 q 464 1299 435 1306 q 533 1278 493 1292 q 594 1258 569 1265 q 645 1252 619 1252 q 719 1264 687 1252 q 783 1301 751 1276 l 783 1174 q 722 1136 756 1148 q 641 1124 688 1124 z "},"Ṹ":{"ha":1039,"x_min":88,"x_max":951,"o":"m 522 -13 q 193 95 298 -13 q 88 426 88 203 l 88 1028 l 315 1028 l 315 404 q 365 228 315 283 q 522 172 416 172 q 678 228 627 172 q 728 404 728 283 l 728 1028 l 951 1028 l 951 426 q 847 95 951 203 q 522 -13 743 -13 m 410 1358 l 534 1519 l 792 1519 l 633 1358 l 410 1358 m 641 1124 q 580 1131 608 1124 q 510 1152 552 1138 q 448 1171 472 1165 q 398 1177 424 1177 q 324 1165 356 1177 q 260 1128 292 1153 l 260 1256 q 322 1294 288 1281 q 402 1306 356 1306 q 464 1299 435 1306 q 533 1278 493 1292 q 594 1258 569 1265 q 645 1252 619 1252 q 719 1264 687 1252 q 783 1301 751 1276 l 783 1174 q 722 1136 756 1148 q 641 1124 688 1124 z "},"V":{"ha":996,"x_min":1,"x_max":995,"o":"m 774 1028 l 995 1028 l 665 0 l 331 0 l 1 1028 l 238 1028 l 504 172 l 774 1028 z "},"W":{"ha":1585,"x_min":21,"x_max":1564,"o":"m 1349 1028 l 1564 1028 l 1292 0 l 1001 0 l 797 779 l 583 0 l 293 0 l 21 1028 l 250 1028 l 455 210 l 674 1028 l 924 1028 l 1138 201 l 1349 1028 z "},"Ẃ":{"ha":1585,"x_min":21,"x_max":1564,"o":"m 1349 1028 l 1564 1028 l 1292 0 l 1001 0 l 797 779 l 583 0 l 293 0 l 21 1028 l 250 1028 l 455 210 l 674 1028 l 924 1028 l 1138 201 l 1349 1028 m 692 1108 l 817 1318 l 1051 1318 l 892 1108 l 692 1108 z "},"Ŵ":{"ha":1585,"x_min":21,"x_max":1564,"o":"m 1349 1028 l 1564 1028 l 1292 0 l 1001 0 l 797 779 l 583 0 l 293 0 l 21 1028 l 250 1028 l 455 210 l 674 1028 l 924 1028 l 1138 201 l 1349 1028 m 1065 1108 l 897 1108 l 793 1236 l 690 1108 l 521 1108 l 699 1318 l 888 1318 l 1065 1108 z "},"Ẅ":{"ha":1585,"x_min":21,"x_max":1564,"o":"m 1349 1028 l 1564 1028 l 1292 0 l 1001 0 l 797 779 l 583 0 l 293 0 l 21 1028 l 250 1028 l 455 210 l 674 1028 l 924 1028 l 1138 201 l 1349 1028 m 615 1115 q 526 1141 556 1115 q 495 1216 495 1167 q 526 1290 495 1264 q 615 1317 556 1317 q 703 1290 673 1317 q 734 1216 734 1264 q 704 1141 734 1167 q 615 1115 674 1115 m 972 1115 q 882 1141 913 1115 q 852 1216 852 1167 q 883 1290 852 1264 q 972 1317 913 1317 q 1060 1290 1030 1317 q 1091 1216 1091 1264 q 1060 1141 1091 1167 q 972 1115 1030 1115 z "},"Ẁ":{"ha":1585,"x_min":21,"x_max":1564,"o":"m 1349 1028 l 1564 1028 l 1292 0 l 1001 0 l 797 779 l 583 0 l 293 0 l 21 1028 l 250 1028 l 455 210 l 674 1028 l 924 1028 l 1138 201 l 1349 1028 m 693 1108 l 535 1318 l 768 1318 l 893 1108 l 693 1108 z "},"X":{"ha":956,"x_min":-22,"x_max":976,"o":"m 610 535 l 976 0 l 725 0 l 475 370 l 225 0 l -22 0 l 344 533 l 2 1028 l 254 1028 l 478 699 l 702 1028 l 947 1028 l 610 535 z "},"Y":{"ha":894,"x_min":-36,"x_max":922,"o":"m 922 1028 l 561 435 l 561 0 l 335 0 l 335 434 l -36 1028 l 204 1028 l 453 626 l 698 1028 l 922 1028 z "},"Ý":{"ha":894,"x_min":-36,"x_max":922,"o":"m 922 1028 l 561 435 l 561 0 l 335 0 l 335 434 l -36 1028 l 204 1028 l 453 626 l 698 1028 l 922 1028 m 346 1108 l 471 1318 l 705 1318 l 547 1108 l 346 1108 z "},"Ŷ":{"ha":894,"x_min":-36,"x_max":922,"o":"m 922 1028 l 561 435 l 561 0 l 335 0 l 335 434 l -36 1028 l 204 1028 l 453 626 l 698 1028 l 922 1028 m 719 1108 l 551 1108 l 447 1236 l 344 1108 l 175 1108 l 353 1318 l 542 1318 l 719 1108 z "},"Ÿ":{"ha":894,"x_min":-36,"x_max":922,"o":"m 922 1028 l 561 435 l 561 0 l 335 0 l 335 434 l -36 1028 l 204 1028 l 453 626 l 698 1028 l 922 1028 m 269 1115 q 180 1141 210 1115 q 149 1216 149 1167 q 180 1290 149 1264 q 269 1317 210 1317 q 358 1290 327 1317 q 388 1216 388 1264 q 358 1141 388 1167 q 269 1115 328 1115 m 626 1115 q 536 1141 567 1115 q 506 1216 506 1167 q 537 1290 506 1264 q 626 1317 567 1317 q 715 1290 684 1317 q 745 1216 745 1264 q 715 1141 745 1167 q 626 1115 684 1115 z "},"Ẏ":{"ha":894,"x_min":-36,"x_max":922,"o":"m 922 1028 l 561 435 l 561 0 l 335 0 l 335 434 l -36 1028 l 204 1028 l 453 626 l 698 1028 l 922 1028 m 447 1115 q 346 1141 381 1115 q 311 1216 311 1167 q 346 1290 311 1264 q 447 1317 381 1317 q 549 1290 514 1317 q 583 1216 583 1264 q 549 1141 583 1167 q 447 1115 514 1115 z "},"Ỵ":{"ha":894,"x_min":-36,"x_max":922,"o":"m 922 1028 l 561 435 l 561 0 l 335 0 l 335 434 l -36 1028 l 204 1028 l 453 626 l 698 1028 l 922 1028 m 447 -290 q 345 -264 380 -290 q 310 -190 310 -237 q 345 -115 310 -142 q 447 -89 380 -89 q 548 -115 513 -89 q 583 -190 583 -142 q 548 -264 583 -237 q 447 -290 513 -290 z "},"Ỳ":{"ha":894,"x_min":-36,"x_max":922,"o":"m 922 1028 l 561 435 l 561 0 l 335 0 l 335 434 l -36 1028 l 204 1028 l 453 626 l 698 1028 l 922 1028 m 347 1108 l 189 1318 l 422 1318 l 547 1108 l 347 1108 z "},"Ỷ":{"ha":894,"x_min":-36,"x_max":922,"o":"m 922 1028 l 561 435 l 561 0 l 335 0 l 335 434 l -36 1028 l 204 1028 l 453 626 l 698 1028 l 922 1028 m 391 1108 q 413 1155 393 1138 q 467 1188 432 1172 q 498 1205 488 1198 q 507 1222 507 1212 q 489 1241 507 1235 q 431 1248 470 1248 q 297 1231 366 1248 l 297 1313 q 367 1326 326 1322 q 447 1331 408 1331 q 581 1308 538 1331 q 624 1238 624 1284 q 615 1203 624 1218 q 591 1179 605 1188 q 556 1157 578 1169 q 518 1133 531 1143 q 503 1108 505 1122 l 391 1108 z "},"Ȳ":{"ha":894,"x_min":-36,"x_max":922,"o":"m 922 1028 l 561 435 l 561 0 l 335 0 l 335 434 l -36 1028 l 204 1028 l 453 626 l 698 1028 l 922 1028 m 192 1147 l 192 1280 l 703 1280 l 703 1147 l 192 1147 z "},"Ỹ":{"ha":894,"x_min":-36,"x_max":922,"o":"m 922 1028 l 561 435 l 561 0 l 335 0 l 335 434 l -36 1028 l 204 1028 l 453 626 l 698 1028 l 922 1028 m 567 1124 q 506 1131 533 1124 q 435 1152 478 1138 q 374 1171 397 1165 q 324 1177 350 1177 q 250 1165 282 1177 q 185 1128 218 1153 l 185 1256 q 248 1294 214 1281 q 328 1306 281 1306 q 390 1299 361 1306 q 459 1278 419 1292 q 520 1258 495 1265 q 571 1252 544 1252 q 644 1264 613 1252 q 709 1301 676 1276 l 709 1174 q 648 1136 681 1148 q 567 1124 614 1124 z "},"Z":{"ha":861,"x_min":42,"x_max":819,"o":"m 334 188 l 819 188 l 819 0 l 42 0 l 42 124 l 519 840 l 49 840 l 49 1028 l 813 1028 l 813 903 l 334 188 z "},"Ź":{"ha":861,"x_min":42,"x_max":819,"o":"m 334 188 l 819 188 l 819 0 l 42 0 l 42 124 l 519 840 l 49 840 l 49 1028 l 813 1028 l 813 903 l 334 188 m 330 1108 l 455 1318 l 689 1318 l 531 1108 l 330 1108 z "},"Ž":{"ha":861,"x_min":42,"x_max":819,"o":"m 334 188 l 819 188 l 819 0 l 42 0 l 42 124 l 519 840 l 49 840 l 49 1028 l 813 1028 l 813 903 l 334 188 m 535 1318 l 703 1318 l 526 1108 l 337 1108 l 159 1318 l 328 1318 l 431 1190 l 535 1318 z "},"Ż":{"ha":861,"x_min":42,"x_max":819,"o":"m 334 188 l 819 188 l 819 0 l 42 0 l 42 124 l 519 840 l 49 840 l 49 1028 l 813 1028 l 813 903 l 334 188 m 431 1115 q 330 1141 365 1115 q 295 1216 295 1167 q 330 1290 295 1264 q 431 1317 365 1317 q 533 1290 498 1317 q 567 1216 567 1264 q 533 1141 567 1167 q 431 1115 498 1115 z "},"Ẓ":{"ha":861,"x_min":42,"x_max":819,"o":"m 334 188 l 819 188 l 819 0 l 42 0 l 42 124 l 519 840 l 49 840 l 49 1028 l 813 1028 l 813 903 l 334 188 m 430 -290 q 328 -264 363 -290 q 294 -190 294 -237 q 328 -115 294 -142 q 430 -89 363 -89 q 531 -115 497 -89 q 566 -190 566 -142 q 531 -264 566 -237 q 430 -290 497 -290 z "},"a":{"ha":777,"x_min":44,"x_max":701,"o":"m 350 772 q 551 741 474 772 q 664 641 627 710 q 701 451 701 571 l 701 0 l 517 0 l 502 75 l 492 75 q 406 8 458 30 q 290 -14 354 -14 q 158 14 214 -14 q 73 91 103 41 q 44 206 44 140 q 120 375 44 315 q 360 445 196 435 l 483 456 l 483 465 q 466 548 483 518 q 412 591 449 578 q 310 603 375 603 q 209 596 264 603 q 104 573 153 588 l 104 740 q 224 763 158 755 q 350 772 290 772 m 363 140 q 427 152 396 140 q 483 188 458 163 l 483 331 l 382 323 q 291 294 319 318 q 263 227 263 270 q 288 163 263 185 q 363 140 314 140 z "},"á":{"ha":777,"x_min":44,"x_max":701,"o":"m 350 772 q 551 741 474 772 q 664 641 627 710 q 701 451 701 571 l 701 0 l 517 0 l 502 75 l 492 75 q 406 8 458 30 q 290 -14 354 -14 q 158 14 214 -14 q 73 91 103 41 q 44 206 44 140 q 120 375 44 315 q 360 445 196 435 l 483 456 l 483 465 q 466 548 483 518 q 412 591 449 578 q 310 603 375 603 q 209 596 264 603 q 104 573 153 588 l 104 740 q 224 763 158 755 q 350 772 290 772 m 363 140 q 427 152 396 140 q 483 188 458 163 l 483 331 l 382 323 q 291 294 319 318 q 263 227 263 270 q 288 163 263 185 q 363 140 314 140 m 284 856 l 440 1122 l 676 1122 l 488 856 l 284 856 z "},"ă":{"ha":777,"x_min":44,"x_max":701,"o":"m 350 772 q 551 741 474 772 q 664 641 627 710 q 701 451 701 571 l 701 0 l 517 0 l 502 75 l 492 75 q 406 8 458 30 q 290 -14 354 -14 q 158 14 214 -14 q 73 91 103 41 q 44 206 44 140 q 120 375 44 315 q 360 445 196 435 l 483 456 l 483 465 q 466 548 483 518 q 412 591 449 578 q 310 603 375 603 q 209 596 264 603 q 104 573 153 588 l 104 740 q 224 763 158 755 q 350 772 290 772 m 363 140 q 427 152 396 140 q 483 188 458 163 l 483 331 l 382 323 q 291 294 319 318 q 263 227 263 270 q 288 163 263 185 q 363 140 314 140 m 387 863 q 205 925 271 863 q 133 1107 140 988 l 268 1107 q 302 1008 273 1041 q 387 976 331 976 q 470 1008 442 976 q 504 1107 499 1040 l 639 1107 q 567 925 633 988 q 387 863 502 863 z "},"ắ":{"ha":777,"x_min":44,"x_max":701,"o":"m 350 772 q 551 741 474 772 q 664 641 627 710 q 701 451 701 571 l 701 0 l 517 0 l 502 75 l 492 75 q 406 8 458 30 q 290 -14 354 -14 q 158 14 214 -14 q 73 91 103 41 q 44 206 44 140 q 120 375 44 315 q 360 445 196 435 l 483 456 l 483 465 q 466 548 483 518 q 412 591 449 578 q 310 603 375 603 q 209 596 264 603 q 104 573 153 588 l 104 740 q 224 763 158 755 q 350 772 290 772 m 363 140 q 427 152 396 140 q 483 188 458 163 l 483 331 l 382 323 q 291 294 319 318 q 263 227 263 270 q 288 163 263 185 q 363 140 314 140 m 308 1109 l 433 1297 l 621 1297 l 463 1109 l 308 1109 m 387 865 q 201 923 268 865 q 124 1083 135 981 l 260 1083 q 298 1001 267 1028 q 387 973 329 973 q 474 1001 444 973 q 513 1083 505 1028 l 648 1083 q 572 922 638 980 q 387 865 506 865 z "},"ặ":{"ha":777,"x_min":44,"x_max":701,"o":"m 350 772 q 551 741 474 772 q 664 641 627 710 q 701 451 701 571 l 701 0 l 517 0 l 502 75 l 492 75 q 406 8 458 30 q 290 -14 354 -14 q 158 14 214 -14 q 73 91 103 41 q 44 206 44 140 q 120 375 44 315 q 360 445 196 435 l 483 456 l 483 465 q 466 548 483 518 q 412 591 449 578 q 310 603 375 603 q 209 596 264 603 q 104 573 153 588 l 104 740 q 224 763 158 755 q 350 772 290 772 m 363 140 q 427 152 396 140 q 483 188 458 163 l 483 331 l 382 323 q 291 294 319 318 q 263 227 263 270 q 288 163 263 185 q 363 140 314 140 m 389 -308 q 300 -279 331 -308 q 269 -199 269 -250 q 300 -118 269 -147 q 389 -89 331 -89 q 478 -118 447 -89 q 509 -199 509 -147 q 478 -279 509 -250 q 389 -308 447 -308 m 387 863 q 205 925 271 863 q 133 1107 140 988 l 268 1107 q 302 1008 273 1041 q 387 976 331 976 q 470 1008 442 976 q 504 1107 499 1040 l 639 1107 q 567 925 633 988 q 387 863 502 863 z "},"ằ":{"ha":777,"x_min":44,"x_max":701,"o":"m 350 772 q 551 741 474 772 q 664 641 627 710 q 701 451 701 571 l 701 0 l 517 0 l 502 75 l 492 75 q 406 8 458 30 q 290 -14 354 -14 q 158 14 214 -14 q 73 91 103 41 q 44 206 44 140 q 120 375 44 315 q 360 445 196 435 l 483 456 l 483 465 q 466 548 483 518 q 412 591 449 578 q 310 603 375 603 q 209 596 264 603 q 104 573 153 588 l 104 740 q 224 763 158 755 q 350 772 290 772 m 363 140 q 427 152 396 140 q 483 188 458 163 l 483 331 l 382 323 q 291 294 319 318 q 263 227 263 270 q 288 163 263 185 q 363 140 314 140 m 310 1109 l 151 1297 l 340 1297 l 465 1109 l 310 1109 m 387 865 q 201 923 268 865 q 124 1083 135 981 l 260 1083 q 298 1001 267 1028 q 387 973 329 973 q 474 1001 444 973 q 513 1083 505 1028 l 648 1083 q 572 922 638 980 q 387 865 506 865 z "},"ẳ":{"ha":777,"x_min":44,"x_max":701,"o":"m 350 772 q 551 741 474 772 q 664 641 627 710 q 701 451 701 571 l 701 0 l 517 0 l 502 75 l 492 75 q 406 8 458 30 q 290 -14 354 -14 q 158 14 214 -14 q 73 91 103 41 q 44 206 44 140 q 120 375 44 315 q 360 445 196 435 l 483 456 l 483 465 q 466 548 483 518 q 412 591 449 578 q 310 603 375 603 q 209 596 264 603 q 104 573 153 588 l 104 740 q 224 763 158 755 q 350 772 290 772 m 363 140 q 427 152 396 140 q 483 188 458 163 l 483 331 l 382 323 q 291 294 319 318 q 263 227 263 270 q 288 163 263 185 q 363 140 314 140 m 330 1109 q 351 1152 332 1137 q 405 1181 370 1167 q 436 1197 427 1191 q 446 1213 446 1203 q 369 1236 446 1236 q 236 1220 303 1236 l 236 1292 q 307 1305 266 1300 q 386 1310 349 1310 q 520 1289 477 1310 q 563 1226 563 1268 q 546 1185 563 1200 q 494 1153 528 1170 q 456 1132 469 1141 q 442 1109 444 1122 l 330 1109 m 387 865 q 201 923 268 865 q 124 1083 135 981 l 260 1083 q 298 1001 267 1028 q 387 973 329 973 q 474 1001 444 973 q 513 1083 505 1028 l 648 1083 q 572 922 638 980 q 387 865 506 865 z "},"ẵ":{"ha":777,"x_min":44,"x_max":701,"o":"m 350 772 q 551 741 474 772 q 664 641 627 710 q 701 451 701 571 l 701 0 l 517 0 l 502 75 l 492 75 q 406 8 458 30 q 290 -14 354 -14 q 158 14 214 -14 q 73 91 103 41 q 44 206 44 140 q 120 375 44 315 q 360 445 196 435 l 483 456 l 483 465 q 466 548 483 518 q 412 591 449 578 q 310 603 375 603 q 209 596 264 603 q 104 573 153 588 l 104 740 q 224 763 158 755 q 350 772 290 772 m 363 140 q 427 152 396 140 q 483 188 458 163 l 483 331 l 382 323 q 291 294 319 318 q 263 227 263 270 q 288 163 263 185 q 363 140 314 140 m 507 1125 q 444 1131 474 1125 q 375 1150 415 1138 q 311 1167 335 1162 q 261 1172 288 1172 q 186 1162 219 1172 q 119 1128 153 1151 l 119 1240 q 183 1274 148 1263 q 265 1285 217 1285 q 326 1279 298 1285 q 397 1260 353 1273 q 460 1242 435 1248 q 511 1237 485 1237 q 586 1247 553 1237 q 653 1281 619 1258 l 653 1169 q 590 1135 624 1146 q 507 1125 555 1125 m 387 865 q 201 923 268 865 q 124 1083 135 981 l 260 1083 q 298 1001 267 1028 q 387 973 329 973 q 474 1001 444 973 q 513 1083 505 1028 l 648 1083 q 572 922 638 980 q 387 865 506 865 z "},"â":{"ha":777,"x_min":44,"x_max":701,"o":"m 350 772 q 551 741 474 772 q 664 641 627 710 q 701 451 701 571 l 701 0 l 517 0 l 502 75 l 492 75 q 406 8 458 30 q 290 -14 354 -14 q 158 14 214 -14 q 73 91 103 41 q 44 206 44 140 q 120 375 44 315 q 360 445 196 435 l 483 456 l 483 465 q 466 548 483 518 q 412 591 449 578 q 310 603 375 603 q 209 596 264 603 q 104 573 153 588 l 104 740 q 224 763 158 755 q 350 772 290 772 m 363 140 q 427 152 396 140 q 483 188 458 163 l 483 331 l 382 323 q 291 294 319 318 q 263 227 263 270 q 288 163 263 185 q 363 140 314 140 m 639 856 l 479 856 l 386 1018 l 292 856 l 133 856 l 295 1122 l 477 1122 l 639 856 z "},"ấ":{"ha":777,"x_min":44,"x_max":858,"o":"m 350 772 q 551 741 474 772 q 664 641 627 710 q 701 451 701 571 l 701 0 l 517 0 l 502 75 l 492 75 q 406 8 458 30 q 290 -14 354 -14 q 158 14 214 -14 q 73 91 103 41 q 44 206 44 140 q 120 375 44 315 q 360 445 196 435 l 483 456 l 483 465 q 466 548 483 518 q 412 591 449 578 q 310 603 375 603 q 209 596 264 603 q 104 573 153 588 l 104 740 q 224 763 158 755 q 350 772 290 772 m 363 140 q 427 152 396 140 q 483 188 458 163 l 483 331 l 382 323 q 291 294 319 318 q 263 227 263 270 q 288 163 263 185 q 363 140 314 140 m 669 1297 l 858 1297 l 699 1109 l 544 1109 l 669 1297 m 295 1122 l 477 1122 l 639 856 l 479 856 l 386 1018 l 292 856 l 133 856 l 295 1122 z "},"ậ":{"ha":777,"x_min":44,"x_max":701,"o":"m 350 772 q 551 741 474 772 q 664 641 627 710 q 701 451 701 571 l 701 0 l 517 0 l 502 75 l 492 75 q 406 8 458 30 q 290 -14 354 -14 q 158 14 214 -14 q 73 91 103 41 q 44 206 44 140 q 120 375 44 315 q 360 445 196 435 l 483 456 l 483 465 q 466 548 483 518 q 412 591 449 578 q 310 603 375 603 q 209 596 264 603 q 104 573 153 588 l 104 740 q 224 763 158 755 q 350 772 290 772 m 363 140 q 427 152 396 140 q 483 188 458 163 l 483 331 l 382 323 q 291 294 319 318 q 263 227 263 270 q 288 163 263 185 q 363 140 314 140 m 389 -308 q 300 -279 331 -308 q 269 -199 269 -250 q 300 -118 269 -147 q 389 -89 331 -89 q 478 -118 447 -89 q 509 -199 509 -147 q 478 -279 509 -250 q 389 -308 447 -308 m 639 856 l 479 856 l 386 1018 l 292 856 l 133 856 l 295 1122 l 477 1122 l 639 856 z "},"ầ":{"ha":777,"x_min":44,"x_max":722,"o":"m 350 772 q 551 741 474 772 q 664 641 627 710 q 701 451 701 571 l 701 0 l 517 0 l 502 75 l 492 75 q 406 8 458 30 q 290 -14 354 -14 q 158 14 214 -14 q 73 91 103 41 q 44 206 44 140 q 120 375 44 315 q 360 445 196 435 l 483 456 l 483 465 q 466 548 483 518 q 412 591 449 578 q 310 603 375 603 q 209 596 264 603 q 104 573 153 588 l 104 740 q 224 763 158 755 q 350 772 290 772 m 363 140 q 427 152 396 140 q 483 188 458 163 l 483 331 l 382 323 q 291 294 319 318 q 263 227 263 270 q 288 163 263 185 q 363 140 314 140 m 722 1109 l 566 1109 l 408 1297 l 597 1297 l 722 1109 m 295 1122 l 477 1122 l 639 856 l 479 856 l 386 1018 l 292 856 l 133 856 l 295 1122 z "},"ẩ":{"ha":777,"x_min":44,"x_max":761,"o":"m 350 772 q 551 741 474 772 q 664 641 627 710 q 701 451 701 571 l 701 0 l 517 0 l 502 75 l 492 75 q 406 8 458 30 q 290 -14 354 -14 q 158 14 214 -14 q 73 91 103 41 q 44 206 44 140 q 120 375 44 315 q 360 445 196 435 l 483 456 l 483 465 q 466 548 483 518 q 412 591 449 578 q 310 603 375 603 q 209 596 264 603 q 104 573 153 588 l 104 740 q 224 763 158 755 q 350 772 290 772 m 363 140 q 427 152 396 140 q 483 188 458 163 l 483 331 l 382 323 q 291 294 319 318 q 263 227 263 270 q 288 163 263 185 q 363 140 314 140 m 594 1310 q 721 1289 681 1310 q 761 1226 761 1269 q 747 1190 761 1203 q 702 1161 732 1176 q 663 1138 676 1149 q 647 1109 649 1126 l 542 1109 q 563 1156 544 1140 q 614 1185 582 1172 q 640 1199 632 1193 q 649 1213 649 1204 q 632 1231 649 1225 q 578 1238 615 1238 q 451 1222 512 1238 l 451 1292 q 519 1305 478 1300 q 594 1310 560 1310 m 295 1122 l 477 1122 l 639 856 l 479 856 l 386 1018 l 292 856 l 133 856 l 295 1122 z "},"ẫ":{"ha":777,"x_min":44,"x_max":701,"o":"m 350 772 q 551 741 474 772 q 664 641 627 710 q 701 451 701 571 l 701 0 l 517 0 l 502 75 l 492 75 q 406 8 458 30 q 290 -14 354 -14 q 158 14 214 -14 q 73 91 103 41 q 44 206 44 140 q 120 375 44 315 q 360 445 196 435 l 483 456 l 483 465 q 466 548 483 518 q 412 591 449 578 q 310 603 375 603 q 209 596 264 603 q 104 573 153 588 l 104 740 q 224 763 158 755 q 350 772 290 772 m 363 140 q 427 152 396 140 q 483 188 458 163 l 483 331 l 382 323 q 291 294 319 318 q 263 227 263 270 q 288 163 263 185 q 363 140 314 140 m 503 1125 q 442 1131 471 1125 q 374 1150 413 1138 q 314 1167 338 1161 q 265 1172 290 1172 q 192 1162 224 1172 q 128 1128 160 1151 l 128 1240 q 189 1274 156 1263 q 269 1285 223 1285 q 329 1278 301 1285 q 398 1259 357 1272 q 457 1242 433 1248 q 508 1236 482 1236 q 580 1247 548 1236 q 644 1281 612 1258 l 644 1169 q 583 1136 617 1147 q 503 1125 549 1125 m 654 858 l 488 858 l 386 1000 l 285 858 l 118 858 l 292 1084 l 481 1084 l 654 858 z "},"ȁ":{"ha":777,"x_min":44,"x_max":701,"o":"m 350 772 q 551 741 474 772 q 664 641 627 710 q 701 451 701 571 l 701 0 l 517 0 l 502 75 l 492 75 q 406 8 458 30 q 290 -14 354 -14 q 158 14 214 -14 q 73 91 103 41 q 44 206 44 140 q 120 375 44 315 q 360 445 196 435 l 483 456 l 483 465 q 466 548 483 518 q 412 591 449 578 q 310 603 375 603 q 209 596 264 603 q 104 573 153 588 l 104 740 q 224 763 158 755 q 350 772 290 772 m 363 140 q 427 152 396 140 q 483 188 458 163 l 483 331 l 382 323 q 291 294 319 318 q 263 227 263 270 q 288 163 263 185 q 363 140 314 140 m 164 856 l 51 1122 l 227 1122 l 328 856 l 164 856 m 444 856 l 332 1122 l 508 1122 l 608 856 l 444 856 z "},"ä":{"ha":777,"x_min":44,"x_max":701,"o":"m 350 772 q 551 741 474 772 q 664 641 627 710 q 701 451 701 571 l 701 0 l 517 0 l 502 75 l 492 75 q 406 8 458 30 q 290 -14 354 -14 q 158 14 214 -14 q 73 91 103 41 q 44 206 44 140 q 120 375 44 315 q 360 445 196 435 l 483 456 l 483 465 q 466 548 483 518 q 412 591 449 578 q 310 603 375 603 q 209 596 264 603 q 104 573 153 588 l 104 740 q 224 763 158 755 q 350 772 290 772 m 363 140 q 427 152 396 140 q 483 188 458 163 l 483 331 l 382 323 q 291 294 319 318 q 263 227 263 270 q 288 163 263 185 q 363 140 314 140 m 217 874 q 128 903 159 874 q 97 985 97 933 q 128 1068 97 1038 q 217 1098 159 1098 q 305 1068 274 1098 q 336 985 336 1038 q 305 903 336 933 q 217 874 274 874 m 556 874 q 467 903 499 874 q 436 985 436 933 q 467 1068 436 1038 q 556 1098 498 1098 q 644 1068 613 1098 q 676 985 676 1038 q 644 903 676 933 q 556 874 613 874 z "},"ạ":{"ha":777,"x_min":44,"x_max":701,"o":"m 350 772 q 551 741 474 772 q 664 641 627 710 q 701 451 701 571 l 701 0 l 517 0 l 502 75 l 492 75 q 406 8 458 30 q 290 -14 354 -14 q 158 14 214 -14 q 73 91 103 41 q 44 206 44 140 q 120 375 44 315 q 360 445 196 435 l 483 456 l 483 465 q 466 548 483 518 q 412 591 449 578 q 310 603 375 603 q 209 596 264 603 q 104 573 153 588 l 104 740 q 224 763 158 755 q 350 772 290 772 m 363 140 q 427 152 396 140 q 483 188 458 163 l 483 331 l 382 323 q 291 294 319 318 q 263 227 263 270 q 288 163 263 185 q 363 140 314 140 m 389 -308 q 300 -279 331 -308 q 269 -199 269 -250 q 300 -118 269 -147 q 389 -89 331 -89 q 478 -118 447 -89 q 509 -199 509 -147 q 478 -279 509 -250 q 389 -308 447 -308 z "},"à":{"ha":777,"x_min":44,"x_max":701,"o":"m 350 772 q 551 741 474 772 q 664 641 627 710 q 701 451 701 571 l 701 0 l 517 0 l 502 75 l 492 75 q 406 8 458 30 q 290 -14 354 -14 q 158 14 214 -14 q 73 91 103 41 q 44 206 44 140 q 120 375 44 315 q 360 445 196 435 l 483 456 l 483 465 q 466 548 483 518 q 412 591 449 578 q 310 603 375 603 q 209 596 264 603 q 104 573 153 588 l 104 740 q 224 763 158 755 q 350 772 290 772 m 363 140 q 427 152 396 140 q 483 188 458 163 l 483 331 l 382 323 q 291 294 319 318 q 263 227 263 270 q 288 163 263 185 q 363 140 314 140 m 284 856 l 96 1122 l 332 1122 l 488 856 l 284 856 z "},"ả":{"ha":777,"x_min":44,"x_max":701,"o":"m 350 772 q 551 741 474 772 q 664 641 627 710 q 701 451 701 571 l 701 0 l 517 0 l 502 75 l 492 75 q 406 8 458 30 q 290 -14 354 -14 q 158 14 214 -14 q 73 91 103 41 q 44 206 44 140 q 120 375 44 315 q 360 445 196 435 l 483 456 l 483 465 q 466 548 483 518 q 412 591 449 578 q 310 603 375 603 q 209 596 264 603 q 104 573 153 588 l 104 740 q 224 763 158 755 q 350 772 290 772 m 363 140 q 427 152 396 140 q 483 188 458 163 l 483 331 l 382 323 q 291 294 319 318 q 263 227 263 270 q 288 163 263 185 q 363 140 314 140 m 331 856 q 350 920 333 897 q 399 965 368 943 q 426 988 417 978 q 435 1010 435 998 q 419 1036 435 1028 q 367 1044 403 1044 q 252 1028 308 1044 l 252 1113 q 314 1126 278 1122 q 383 1131 351 1131 q 511 1105 469 1131 q 552 1024 552 1078 q 544 983 552 1000 q 525 954 536 965 q 494 928 513 943 q 457 895 469 910 q 442 856 444 880 l 331 856 z "},"ȃ":{"ha":777,"x_min":44,"x_max":701,"o":"m 350 772 q 551 741 474 772 q 664 641 627 710 q 701 451 701 571 l 701 0 l 517 0 l 502 75 l 492 75 q 406 8 458 30 q 290 -14 354 -14 q 158 14 214 -14 q 73 91 103 41 q 44 206 44 140 q 120 375 44 315 q 360 445 196 435 l 483 456 l 483 465 q 466 548 483 518 q 412 591 449 578 q 310 603 375 603 q 209 596 264 603 q 104 573 153 588 l 104 740 q 224 763 158 755 q 350 772 290 772 m 363 140 q 427 152 396 140 q 483 188 458 163 l 483 331 l 382 323 q 291 294 319 318 q 263 227 263 270 q 288 163 263 185 q 363 140 314 140 m 133 876 q 205 1058 140 995 q 385 1120 269 1120 q 567 1058 501 1120 q 639 876 633 995 l 504 876 q 470 975 499 943 q 385 1008 441 1008 q 301 976 329 1008 q 268 876 273 944 l 133 876 z "},"ā":{"ha":777,"x_min":44,"x_max":701,"o":"m 350 772 q 551 741 474 772 q 664 641 627 710 q 701 451 701 571 l 701 0 l 517 0 l 502 75 l 492 75 q 406 8 458 30 q 290 -14 354 -14 q 158 14 214 -14 q 73 91 103 41 q 44 206 44 140 q 120 375 44 315 q 360 445 196 435 l 483 456 l 483 465 q 466 548 483 518 q 412 591 449 578 q 310 603 375 603 q 209 596 264 603 q 104 573 153 588 l 104 740 q 224 763 158 755 q 350 772 290 772 m 363 140 q 427 152 396 140 q 483 188 458 163 l 483 331 l 382 323 q 291 294 319 318 q 263 227 263 270 q 288 163 263 185 q 363 140 314 140 m 140 919 l 140 1053 l 633 1053 l 633 919 l 140 919 z "},"ą":{"ha":777,"x_min":44,"x_max":728,"o":"m 639 -218 q 728 -197 682 -218 l 728 -284 q 609 -307 673 -307 q 474 -268 521 -307 q 428 -162 428 -230 q 452 -74 428 -114 q 532 0 476 -33 l 517 0 l 502 75 l 492 75 q 406 8 458 30 q 290 -14 354 -14 q 158 14 214 -14 q 73 91 103 41 q 44 206 44 140 q 120 375 44 315 q 360 445 196 435 l 483 456 l 483 465 q 466 548 483 518 q 412 591 449 578 q 310 603 375 603 q 209 596 264 603 q 104 573 153 588 l 104 740 q 224 763 158 755 q 350 772 290 772 q 551 741 474 772 q 664 641 627 710 q 701 451 701 571 l 701 0 q 588 -70 620 -34 q 555 -149 555 -106 q 576 -200 555 -181 q 639 -218 598 -218 m 363 140 q 427 152 396 140 q 483 188 458 163 l 483 331 l 382 323 q 291 294 319 318 q 263 227 263 270 q 288 163 263 185 q 363 140 314 140 z "},"å":{"ha":777,"x_min":44,"x_max":701,"o":"m 350 772 q 551 741 474 772 q 664 641 627 710 q 701 451 701 571 l 701 0 l 517 0 l 502 75 l 492 75 q 406 8 458 30 q 290 -14 354 -14 q 158 14 214 -14 q 73 91 103 41 q 44 206 44 140 q 120 375 44 315 q 360 445 196 435 l 483 456 l 483 465 q 466 548 483 518 q 412 591 449 578 q 310 603 375 603 q 209 596 264 603 q 104 573 153 588 l 104 740 q 224 763 158 755 q 350 772 290 772 m 363 140 q 427 152 396 140 q 483 188 458 163 l 483 331 l 382 323 q 291 294 319 318 q 263 227 263 270 q 288 163 263 185 q 363 140 314 140 m 386 853 q 310 872 344 853 q 256 923 276 890 q 237 998 237 956 q 256 1073 237 1040 q 310 1124 276 1106 q 386 1143 344 1143 q 463 1124 428 1143 q 516 1073 497 1106 q 535 998 535 1040 q 516 923 535 956 q 463 872 497 890 q 386 853 428 853 m 386 931 q 433 949 415 931 q 451 998 451 967 q 433 1047 451 1029 q 386 1065 415 1065 q 339 1047 357 1065 q 322 998 322 1029 q 339 949 322 967 q 386 931 357 931 z "},"ǻ":{"ha":777,"x_min":44,"x_max":701,"o":"m 350 772 q 551 741 474 772 q 664 641 627 710 q 701 451 701 571 l 701 0 l 517 0 l 502 75 l 492 75 q 406 8 458 30 q 290 -14 354 -14 q 158 14 214 -14 q 73 91 103 41 q 44 206 44 140 q 120 375 44 315 q 360 445 196 435 l 483 456 l 483 465 q 466 548 483 518 q 412 591 449 578 q 310 603 375 603 q 209 596 264 603 q 104 573 153 588 l 104 740 q 224 763 158 755 q 350 772 290 772 m 363 140 q 427 152 396 140 q 483 188 458 163 l 483 331 l 382 323 q 291 294 319 318 q 263 227 263 270 q 288 163 263 185 q 363 140 314 140 m 515 1075 q 535 998 535 1041 q 516 923 535 956 q 463 872 497 890 q 386 853 428 853 q 310 872 344 853 q 256 923 276 890 q 237 998 237 956 q 256 1073 237 1040 q 310 1124 276 1106 q 386 1143 344 1143 q 419 1140 405 1143 l 494 1236 l 654 1236 l 515 1075 m 386 931 q 433 949 415 931 q 451 998 451 967 q 433 1047 451 1029 q 386 1065 415 1065 q 339 1047 357 1065 q 322 998 322 1029 q 339 949 322 967 q 386 931 357 931 z "},"ã":{"ha":777,"x_min":44,"x_max":701,"o":"m 350 772 q 551 741 474 772 q 664 641 627 710 q 701 451 701 571 l 701 0 l 517 0 l 502 75 l 492 75 q 406 8 458 30 q 290 -14 354 -14 q 158 14 214 -14 q 73 91 103 41 q 44 206 44 140 q 120 375 44 315 q 360 445 196 435 l 483 456 l 483 465 q 466 548 483 518 q 412 591 449 578 q 310 603 375 603 q 209 596 264 603 q 104 573 153 588 l 104 740 q 224 763 158 755 q 350 772 290 772 m 363 140 q 427 152 396 140 q 483 188 458 163 l 483 331 l 382 323 q 291 294 319 318 q 263 227 263 270 q 288 163 263 185 q 363 140 314 140 m 496 892 q 439 901 466 892 q 374 926 411 910 q 318 949 340 942 q 273 956 296 956 q 203 942 234 956 q 140 897 172 928 l 140 1036 q 200 1077 167 1064 q 276 1090 233 1090 q 334 1081 306 1090 q 399 1056 361 1072 q 454 1033 432 1040 q 499 1026 476 1026 q 569 1040 538 1026 q 633 1085 601 1053 l 633 946 q 572 905 606 918 q 496 892 539 892 z "},"æ":{"ha":1196,"x_min":44,"x_max":1156,"o":"m 1156 315 l 701 315 q 727 219 705 254 q 796 168 749 184 q 924 153 843 153 q 1114 177 1010 153 l 1114 11 q 893 -15 1003 -15 q 697 13 777 -15 q 567 97 616 40 q 310 -14 467 -14 q 165 13 224 -14 q 74 90 105 40 q 44 208 44 140 q 123 381 44 319 q 367 444 202 444 l 485 444 l 485 465 q 467 548 485 517 q 411 591 449 578 q 310 603 374 603 q 209 595 264 603 q 105 573 153 588 l 105 740 q 341 772 219 772 q 504 749 438 772 q 608 678 569 726 q 708 748 650 724 q 839 772 767 772 q 1010 727 939 772 q 1119 593 1081 682 q 1156 374 1156 503 l 1156 315 m 826 631 q 734 589 765 631 q 701 444 703 546 l 950 444 q 918 589 948 546 q 826 631 888 631 m 365 141 q 441 156 406 141 q 508 206 476 171 q 488 320 493 256 l 388 320 q 263 226 263 320 q 289 163 263 185 q 365 141 315 141 z "},"ǽ":{"ha":1196,"x_min":44,"x_max":1156,"o":"m 1156 315 l 701 315 q 727 219 705 254 q 796 168 749 184 q 924 153 843 153 q 1114 177 1010 153 l 1114 11 q 893 -15 1003 -15 q 697 13 777 -15 q 567 97 616 40 q 310 -14 467 -14 q 165 13 224 -14 q 74 90 105 40 q 44 208 44 140 q 123 381 44 319 q 367 444 202 444 l 485 444 l 485 465 q 467 548 485 517 q 411 591 449 578 q 310 603 374 603 q 209 595 264 603 q 105 573 153 588 l 105 740 q 341 772 219 772 q 504 749 438 772 q 608 678 569 726 q 708 748 650 724 q 839 772 767 772 q 1010 727 939 772 q 1119 593 1081 682 q 1156 374 1156 503 l 1156 315 m 826 631 q 734 589 765 631 q 701 444 703 546 l 950 444 q 918 589 948 546 q 826 631 888 631 m 365 141 q 441 156 406 141 q 508 206 476 171 q 488 320 493 256 l 388 320 q 263 226 263 320 q 289 163 263 185 q 365 141 315 141 m 494 856 l 651 1122 l 887 1122 l 698 856 l 494 856 z "},"b":{"ha":855,"x_min":83,"x_max":807,"o":"m 378 -14 q 224 -3 301 -14 q 83 28 147 8 l 83 1122 l 305 1122 l 305 686 l 315 686 q 399 749 349 727 q 512 772 449 772 q 661 731 594 772 q 767 607 728 691 q 807 395 807 522 q 700 90 807 193 q 378 -14 592 -14 m 394 154 q 537 207 490 154 q 583 378 583 260 q 543 543 583 495 q 428 590 503 590 q 360 579 392 590 q 305 544 328 567 l 305 165 q 394 154 347 154 z "},"c":{"ha":669,"x_min":48,"x_max":636,"o":"m 443 -15 q 149 84 250 -15 q 48 378 48 182 q 155 674 48 576 q 466 772 263 772 q 636 754 560 772 l 636 578 q 497 593 563 593 q 371 572 419 593 q 300 503 323 550 q 277 381 277 456 q 326 215 277 266 q 478 165 376 165 q 550 170 513 165 q 636 190 587 176 l 636 14 q 443 -15 549 -15 z "},"ć":{"ha":669,"x_min":48,"x_max":664,"o":"m 443 -15 q 149 84 250 -15 q 48 378 48 182 q 155 674 48 576 q 466 772 263 772 q 636 754 560 772 l 636 578 q 497 593 563 593 q 371 572 419 593 q 300 503 323 550 q 277 381 277 456 q 326 215 277 266 q 478 165 376 165 q 550 170 513 165 q 636 190 587 176 l 636 14 q 443 -15 549 -15 m 272 856 l 428 1122 l 664 1122 l 475 856 l 272 856 z "},"č":{"ha":669,"x_min":48,"x_max":636,"o":"m 443 -15 q 149 84 250 -15 q 48 378 48 182 q 155 674 48 576 q 466 772 263 772 q 636 754 560 772 l 636 578 q 497 593 563 593 q 371 572 419 593 q 300 503 323 550 q 277 381 277 456 q 326 215 277 266 q 478 165 376 165 q 550 170 513 165 q 636 190 587 176 l 636 14 q 443 -15 549 -15 m 468 1122 l 627 1122 l 465 856 l 283 856 l 120 1122 l 279 1122 l 374 960 l 468 1122 z "},"ç":{"ha":669,"x_min":48,"x_max":636,"o":"m 497 593 q 371 572 419 593 q 300 503 323 550 q 277 381 277 456 q 326 215 277 266 q 478 165 376 165 q 550 170 513 165 q 636 190 587 176 l 636 14 q 545 -7 594 0 q 444 -15 496 -15 l 444 -61 q 529 -101 500 -70 q 558 -182 558 -133 q 513 -274 558 -241 q 381 -307 468 -307 q 256 -285 310 -307 l 256 -199 q 313 -216 282 -210 q 371 -222 344 -222 q 424 -210 406 -222 q 441 -173 441 -199 q 370 -122 441 -122 l 338 -122 l 338 -6 q 122 114 196 18 q 48 378 48 210 q 155 674 48 576 q 466 772 263 772 q 636 754 560 772 l 636 578 q 497 593 563 593 z "},"ḉ":{"ha":669,"x_min":48,"x_max":664,"o":"m 664 1122 l 475 856 l 272 856 l 428 1122 l 664 1122 m 48 378 q 155 674 48 576 q 466 772 263 772 q 636 754 560 772 l 636 578 q 497 593 563 593 q 371 572 419 593 q 300 503 323 550 q 277 381 277 456 q 326 215 277 266 q 478 165 376 165 q 550 170 513 165 q 636 190 587 176 l 636 14 q 545 -7 594 0 q 444 -15 496 -15 l 444 -61 q 529 -101 500 -70 q 558 -182 558 -133 q 513 -274 558 -241 q 381 -307 468 -307 q 256 -285 310 -307 l 256 -199 q 313 -216 282 -210 q 371 -222 344 -222 q 424 -210 406 -222 q 441 -173 441 -199 q 370 -122 441 -122 l 338 -122 l 338 -6 q 122 114 196 18 q 48 378 48 210 z "},"ĉ":{"ha":669,"x_min":48,"x_max":636,"o":"m 443 -15 q 149 84 250 -15 q 48 378 48 182 q 155 674 48 576 q 466 772 263 772 q 636 754 560 772 l 636 578 q 497 593 563 593 q 371 572 419 593 q 300 503 323 550 q 277 381 277 456 q 326 215 277 266 q 478 165 376 165 q 550 170 513 165 q 636 190 587 176 l 636 14 q 443 -15 549 -15 m 626 856 l 467 856 l 374 1018 l 280 856 l 121 856 l 283 1122 l 465 1122 l 626 856 z "},"ċ":{"ha":669,"x_min":48,"x_max":636,"o":"m 443 -15 q 149 84 250 -15 q 48 378 48 182 q 155 674 48 576 q 466 772 263 772 q 636 754 560 772 l 636 578 q 497 593 563 593 q 371 572 419 593 q 300 503 323 550 q 277 381 277 456 q 326 215 277 266 q 478 165 376 165 q 550 170 513 165 q 636 190 587 176 l 636 14 q 443 -15 549 -15 m 374 870 q 270 900 305 870 q 236 985 236 930 q 270 1072 236 1042 q 374 1101 304 1101 q 476 1072 442 1101 q 510 985 510 1042 q 476 900 510 930 q 374 870 442 870 z "},"d":{"ha":855,"x_min":48,"x_max":772,"o":"m 360 -13 q 201 26 272 -13 q 90 150 131 66 q 48 364 48 235 q 154 668 48 563 q 462 772 260 772 q 550 767 509 772 l 550 1122 l 772 1122 l 772 0 l 586 0 l 572 79 l 562 79 q 477 11 528 36 q 360 -13 425 -13 m 425 168 q 494 181 461 168 q 550 219 528 194 l 550 595 q 463 603 510 603 q 318 551 365 603 q 272 381 272 499 q 311 216 272 264 q 425 168 351 168 z "},"ð":{"ha":838,"x_min":48,"x_max":790,"o":"m 629 910 q 747 673 704 799 q 790 424 790 546 q 694 93 790 201 q 419 -15 599 -15 q 220 29 303 -15 q 92 161 137 73 q 48 378 48 249 q 91 595 48 508 q 214 724 135 682 q 399 767 292 767 q 499 749 453 767 q 422 874 467 814 l 129 822 l 106 942 l 331 983 q 169 1122 258 1057 l 432 1122 q 543 1021 492 1078 l 745 1057 l 769 935 l 629 910 m 419 153 q 529 204 492 153 q 566 376 566 256 q 549 510 566 460 q 500 582 532 560 q 419 603 467 603 q 308 552 345 603 q 272 378 272 501 q 288 245 272 294 q 337 174 305 195 q 419 153 369 153 z "},"ď":{"ha":855,"x_min":48,"x_max":989,"o":"m 360 -13 q 201 26 272 -13 q 90 150 131 66 q 48 364 48 235 q 154 668 48 563 q 462 772 260 772 q 550 767 509 772 l 550 1122 l 772 1122 l 772 0 l 586 0 l 572 79 l 562 79 q 477 11 528 36 q 360 -13 425 -13 m 425 168 q 494 181 461 168 q 550 219 528 194 l 550 595 q 463 603 510 603 q 318 551 365 603 q 272 381 272 499 q 311 216 272 264 q 425 168 351 168 m 821 819 q 836 967 832 894 q 841 1122 841 1039 l 989 1122 q 976 961 989 1040 q 941 819 964 882 l 821 819 z "},"đ":{"ha":855,"x_min":48,"x_max":852,"o":"m 852 871 l 772 871 l 772 0 l 586 0 l 572 79 l 562 79 q 477 11 528 36 q 360 -13 425 -13 q 201 26 272 -13 q 90 150 131 66 q 48 364 48 235 q 154 668 48 563 q 462 772 260 772 q 550 767 509 772 l 550 871 l 315 871 l 315 1010 l 550 1010 l 550 1122 l 772 1122 l 772 1010 l 852 1010 l 852 871 m 550 595 q 463 603 510 603 q 318 551 365 603 q 272 381 272 499 q 311 216 272 264 q 425 168 351 168 q 494 181 461 168 q 550 219 528 194 l 550 595 z "},"ḍ":{"ha":855,"x_min":48,"x_max":772,"o":"m 360 -13 q 201 26 272 -13 q 90 150 131 66 q 48 364 48 235 q 154 668 48 563 q 462 772 260 772 q 550 767 509 772 l 550 1122 l 772 1122 l 772 0 l 586 0 l 572 79 l 562 79 q 477 11 528 36 q 360 -13 425 -13 m 425 168 q 494 181 461 168 q 550 219 528 194 l 550 595 q 463 603 510 603 q 318 551 365 603 q 272 381 272 499 q 311 216 272 264 q 425 168 351 168 m 433 -308 q 344 -279 376 -308 q 313 -199 313 -250 q 344 -118 313 -147 q 433 -89 376 -89 q 522 -118 491 -89 q 553 -199 553 -147 q 522 -279 553 -250 q 433 -308 491 -308 z "},"ḏ":{"ha":855,"x_min":48,"x_max":772,"o":"m 360 -13 q 201 26 272 -13 q 90 150 131 66 q 48 364 48 235 q 154 668 48 563 q 462 772 260 772 q 550 767 509 772 l 550 1122 l 772 1122 l 772 0 l 586 0 l 572 79 l 562 79 q 477 11 528 36 q 360 -13 425 -13 m 425 168 q 494 181 461 168 q 550 219 528 194 l 550 595 q 463 603 510 603 q 318 551 365 603 q 272 381 272 499 q 311 216 272 264 q 425 168 351 168 m 193 -262 l 193 -131 l 673 -131 l 673 -262 l 193 -262 z "},"ǳ":{"ha":1560,"x_min":48,"x_max":1525,"o":"m 360 -13 q 201 26 272 -13 q 90 150 131 66 q 48 364 48 235 q 154 668 48 563 q 462 772 260 772 q 550 767 509 772 l 550 1122 l 772 1122 l 772 0 l 586 0 l 572 79 l 562 79 q 477 11 528 36 q 360 -13 425 -13 m 425 168 q 494 181 461 168 q 550 219 528 194 l 550 595 q 463 603 510 603 q 318 551 365 603 q 272 381 272 499 q 311 216 272 264 q 425 168 351 168 m 1175 175 l 1525 175 l 1525 0 l 901 0 l 901 141 l 1242 585 l 908 585 l 908 760 l 1517 760 l 1517 619 l 1175 175 z "},"ǆ":{"ha":1560,"x_min":48,"x_max":1525,"o":"m 360 -13 q 201 26 272 -13 q 90 150 131 66 q 48 364 48 235 q 154 668 48 563 q 462 772 260 772 q 550 767 509 772 l 550 1122 l 772 1122 l 772 0 l 586 0 l 572 79 l 562 79 q 477 11 528 36 q 360 -13 425 -13 m 425 168 q 494 181 461 168 q 550 219 528 194 l 550 595 q 463 603 510 603 q 318 551 365 603 q 272 381 272 499 q 311 216 272 264 q 425 168 351 168 m 1175 175 l 1525 175 l 1525 0 l 901 0 l 901 141 l 1242 585 l 908 585 l 908 760 l 1517 760 l 1517 619 l 1175 175 m 1308 1122 l 1467 1122 l 1304 856 l 1122 856 l 960 1122 l 1119 1122 l 1213 960 l 1308 1122 z "},"e":{"ha":771,"x_min":48,"x_max":731,"o":"m 731 315 l 270 315 q 296 219 274 254 q 367 168 319 184 q 497 153 415 153 q 689 177 584 153 l 689 11 q 466 -15 578 -15 q 229 27 321 -15 q 92 155 137 68 q 48 381 48 242 q 89 593 48 506 q 210 726 131 681 q 401 772 289 772 q 647 670 563 772 q 731 374 731 568 l 731 315 m 399 631 q 303 588 335 631 q 269 444 272 545 l 524 444 q 492 589 522 546 q 399 631 461 631 z "},"é":{"ha":771,"x_min":48,"x_max":731,"o":"m 731 315 l 270 315 q 296 219 274 254 q 367 168 319 184 q 497 153 415 153 q 689 177 584 153 l 689 11 q 466 -15 578 -15 q 229 27 321 -15 q 92 155 137 68 q 48 381 48 242 q 89 593 48 506 q 210 726 131 681 q 401 772 289 772 q 647 670 563 772 q 731 374 731 568 l 731 315 m 399 631 q 303 588 335 631 q 269 444 272 545 l 524 444 q 492 589 522 546 q 399 631 461 631 m 295 856 l 451 1122 l 688 1122 l 499 856 l 295 856 z "},"ĕ":{"ha":771,"x_min":48,"x_max":731,"o":"m 731 315 l 270 315 q 296 219 274 254 q 367 168 319 184 q 497 153 415 153 q 689 177 584 153 l 689 11 q 466 -15 578 -15 q 229 27 321 -15 q 92 155 137 68 q 48 381 48 242 q 89 593 48 506 q 210 726 131 681 q 401 772 289 772 q 647 670 563 772 q 731 374 731 568 l 731 315 m 399 631 q 303 588 335 631 q 269 444 272 545 l 524 444 q 492 589 522 546 q 399 631 461 631 m 398 863 q 216 925 282 863 q 144 1107 151 988 l 279 1107 q 313 1008 284 1041 q 398 976 342 976 q 482 1008 453 976 q 515 1107 510 1040 l 650 1107 q 578 925 644 988 q 398 863 513 863 z "},"ě":{"ha":771,"x_min":48,"x_max":731,"o":"m 731 315 l 270 315 q 296 219 274 254 q 367 168 319 184 q 497 153 415 153 q 689 177 584 153 l 689 11 q 466 -15 578 -15 q 229 27 321 -15 q 92 155 137 68 q 48 381 48 242 q 89 593 48 506 q 210 726 131 681 q 401 772 289 772 q 647 670 563 772 q 731 374 731 568 l 731 315 m 399 631 q 303 588 335 631 q 269 444 272 545 l 524 444 q 492 589 522 546 q 399 631 461 631 m 492 1122 l 651 1122 l 488 856 l 306 856 l 144 1122 l 303 1122 l 397 960 l 492 1122 z "},"ḝ":{"ha":771,"x_min":48,"x_max":731,"o":"m 398 863 q 216 925 282 863 q 144 1107 151 988 l 279 1107 q 313 1008 284 1041 q 398 976 342 976 q 482 1008 453 976 q 515 1107 510 1040 l 650 1107 q 578 925 644 988 q 398 863 513 863 m 731 315 l 270 315 q 296 219 274 254 q 367 168 319 184 q 497 153 415 153 q 689 177 584 153 l 689 11 q 466 -15 578 -15 l 457 -15 l 457 -61 q 541 -101 513 -70 q 570 -182 570 -133 q 525 -274 570 -241 q 394 -307 481 -307 q 268 -285 323 -307 l 268 -199 q 325 -216 294 -210 q 383 -222 356 -222 q 436 -210 419 -222 q 453 -173 453 -199 q 383 -122 453 -122 l 351 -122 l 351 -7 q 122 109 195 15 q 48 381 48 203 q 89 593 48 506 q 210 726 131 681 q 401 772 289 772 q 647 670 563 772 q 731 374 731 568 l 731 315 m 399 631 q 303 588 335 631 q 269 444 272 545 l 524 444 q 492 589 522 546 q 399 631 461 631 z "},"ê":{"ha":771,"x_min":48,"x_max":731,"o":"m 731 315 l 270 315 q 296 219 274 254 q 367 168 319 184 q 497 153 415 153 q 689 177 584 153 l 689 11 q 466 -15 578 -15 q 229 27 321 -15 q 92 155 137 68 q 48 381 48 242 q 89 593 48 506 q 210 726 131 681 q 401 772 289 772 q 647 670 563 772 q 731 374 731 568 l 731 315 m 399 631 q 303 588 335 631 q 269 444 272 545 l 524 444 q 492 589 522 546 q 399 631 461 631 m 650 856 l 490 856 l 397 1018 l 303 856 l 144 856 l 306 1122 l 488 1122 l 650 856 z "},"ế":{"ha":771,"x_min":48,"x_max":869,"o":"m 731 315 l 270 315 q 296 219 274 254 q 367 168 319 184 q 497 153 415 153 q 689 177 584 153 l 689 11 q 466 -15 578 -15 q 229 27 321 -15 q 92 155 137 68 q 48 381 48 242 q 89 593 48 506 q 210 726 131 681 q 401 772 289 772 q 647 670 563 772 q 731 374 731 568 l 731 315 m 399 631 q 303 588 335 631 q 269 444 272 545 l 524 444 q 492 589 522 546 q 399 631 461 631 m 681 1297 l 869 1297 l 710 1109 l 556 1109 l 681 1297 m 306 1122 l 488 1122 l 650 856 l 490 856 l 397 1018 l 303 856 l 144 856 l 306 1122 z "},"ệ":{"ha":771,"x_min":48,"x_max":731,"o":"m 731 315 l 270 315 q 296 219 274 254 q 367 168 319 184 q 497 153 415 153 q 689 177 584 153 l 689 11 q 466 -15 578 -15 q 229 27 321 -15 q 92 155 137 68 q 48 381 48 242 q 89 593 48 506 q 210 726 131 681 q 401 772 289 772 q 647 670 563 772 q 731 374 731 568 l 731 315 m 399 631 q 303 588 335 631 q 269 444 272 545 l 524 444 q 492 589 522 546 q 399 631 461 631 m 397 -308 q 308 -279 340 -308 q 277 -199 277 -250 q 308 -118 277 -147 q 397 -89 340 -89 q 486 -118 455 -89 q 517 -199 517 -147 q 486 -279 517 -250 q 397 -308 455 -308 m 650 856 l 490 856 l 397 1018 l 303 856 l 144 856 l 306 1122 l 488 1122 l 650 856 z "},"ề":{"ha":771,"x_min":48,"x_max":733,"o":"m 731 315 l 270 315 q 296 219 274 254 q 367 168 319 184 q 497 153 415 153 q 689 177 584 153 l 689 11 q 466 -15 578 -15 q 229 27 321 -15 q 92 155 137 68 q 48 381 48 242 q 89 593 48 506 q 210 726 131 681 q 401 772 289 772 q 647 670 563 772 q 731 374 731 568 l 731 315 m 399 631 q 303 588 335 631 q 269 444 272 545 l 524 444 q 492 589 522 546 q 399 631 461 631 m 733 1109 l 577 1109 l 419 1297 l 608 1297 l 733 1109 m 306 1122 l 488 1122 l 650 856 l 490 856 l 397 1018 l 303 856 l 144 856 l 306 1122 z "},"ể":{"ha":771,"x_min":48,"x_max":772,"o":"m 731 315 l 270 315 q 296 219 274 254 q 367 168 319 184 q 497 153 415 153 q 689 177 584 153 l 689 11 q 466 -15 578 -15 q 229 27 321 -15 q 92 155 137 68 q 48 381 48 242 q 89 593 48 506 q 210 726 131 681 q 401 772 289 772 q 647 670 563 772 q 731 374 731 568 l 731 315 m 399 631 q 303 588 335 631 q 269 444 272 545 l 524 444 q 492 589 522 546 q 399 631 461 631 m 606 1310 q 732 1289 692 1310 q 772 1226 772 1269 q 758 1190 772 1203 q 713 1161 743 1176 q 674 1138 688 1149 q 658 1109 660 1126 l 553 1109 q 574 1156 555 1140 q 625 1185 593 1172 q 651 1199 643 1193 q 660 1213 660 1204 q 643 1231 660 1225 q 589 1238 626 1238 q 463 1222 523 1238 l 463 1292 q 530 1305 489 1300 q 606 1310 571 1310 m 306 1122 l 488 1122 l 650 856 l 490 856 l 397 1018 l 303 856 l 144 856 l 306 1122 z "},"ễ":{"ha":771,"x_min":48,"x_max":731,"o":"m 731 315 l 270 315 q 296 219 274 254 q 367 168 319 184 q 497 153 415 153 q 689 177 584 153 l 689 11 q 466 -15 578 -15 q 229 27 321 -15 q 92 155 137 68 q 48 381 48 242 q 89 593 48 506 q 210 726 131 681 q 401 772 289 772 q 647 670 563 772 q 731 374 731 568 l 731 315 m 399 631 q 303 588 335 631 q 269 444 272 545 l 524 444 q 492 589 522 546 q 399 631 461 631 m 515 1125 q 453 1131 482 1125 q 385 1150 424 1138 q 325 1167 349 1161 q 276 1172 301 1172 q 203 1162 235 1172 q 139 1128 172 1151 l 139 1240 q 200 1274 167 1263 q 280 1285 234 1285 q 340 1278 312 1285 q 409 1259 368 1272 q 468 1242 444 1248 q 519 1236 493 1236 q 591 1247 559 1236 q 656 1281 623 1258 l 656 1169 q 594 1136 628 1147 q 515 1125 560 1125 m 665 858 l 499 858 l 397 1000 l 296 858 l 129 858 l 303 1084 l 492 1084 l 665 858 z "},"ȅ":{"ha":771,"x_min":48,"x_max":731,"o":"m 731 315 l 270 315 q 296 219 274 254 q 367 168 319 184 q 497 153 415 153 q 689 177 584 153 l 689 11 q 466 -15 578 -15 q 229 27 321 -15 q 92 155 137 68 q 48 381 48 242 q 89 593 48 506 q 210 726 131 681 q 401 772 289 772 q 647 670 563 772 q 731 374 731 568 l 731 315 m 399 631 q 303 588 335 631 q 269 444 272 545 l 524 444 q 492 589 522 546 q 399 631 461 631 m 175 856 l 63 1122 l 238 1122 l 339 856 l 175 856 m 456 856 l 343 1122 l 519 1122 l 619 856 l 456 856 z "},"ë":{"ha":771,"x_min":48,"x_max":731,"o":"m 731 315 l 270 315 q 296 219 274 254 q 367 168 319 184 q 497 153 415 153 q 689 177 584 153 l 689 11 q 466 -15 578 -15 q 229 27 321 -15 q 92 155 137 68 q 48 381 48 242 q 89 593 48 506 q 210 726 131 681 q 401 772 289 772 q 647 670 563 772 q 731 374 731 568 l 731 315 m 399 631 q 303 588 335 631 q 269 444 272 545 l 524 444 q 492 589 522 546 q 399 631 461 631 m 228 874 q 139 903 170 874 q 108 985 108 933 q 139 1068 108 1038 q 228 1098 170 1098 q 316 1068 285 1098 q 347 985 347 1038 q 316 903 347 933 q 228 874 285 874 m 567 874 q 478 903 510 874 q 447 985 447 933 q 478 1068 447 1038 q 567 1098 509 1098 q 656 1068 624 1098 q 687 985 687 1038 q 656 903 687 933 q 567 874 624 874 z "},"ė":{"ha":771,"x_min":48,"x_max":731,"o":"m 731 315 l 270 315 q 296 219 274 254 q 367 168 319 184 q 497 153 415 153 q 689 177 584 153 l 689 11 q 466 -15 578 -15 q 229 27 321 -15 q 92 155 137 68 q 48 381 48 242 q 89 593 48 506 q 210 726 131 681 q 401 772 289 772 q 647 670 563 772 q 731 374 731 568 l 731 315 m 399 631 q 303 588 335 631 q 269 444 272 545 l 524 444 q 492 589 522 546 q 399 631 461 631 m 397 870 q 294 900 328 870 q 260 985 260 930 q 294 1072 260 1042 q 397 1101 328 1101 q 500 1072 466 1101 q 534 985 534 1042 q 500 900 534 930 q 397 870 466 870 z "},"ẹ":{"ha":771,"x_min":48,"x_max":731,"o":"m 731 315 l 270 315 q 296 219 274 254 q 367 168 319 184 q 497 153 415 153 q 689 177 584 153 l 689 11 q 466 -15 578 -15 q 229 27 321 -15 q 92 155 137 68 q 48 381 48 242 q 89 593 48 506 q 210 726 131 681 q 401 772 289 772 q 647 670 563 772 q 731 374 731 568 l 731 315 m 399 631 q 303 588 335 631 q 269 444 272 545 l 524 444 q 492 589 522 546 q 399 631 461 631 m 397 -308 q 308 -279 340 -308 q 277 -199 277 -250 q 308 -118 277 -147 q 397 -89 340 -89 q 486 -118 455 -89 q 517 -199 517 -147 q 486 -279 517 -250 q 397 -308 455 -308 z "},"è":{"ha":771,"x_min":48,"x_max":731,"o":"m 731 315 l 270 315 q 296 219 274 254 q 367 168 319 184 q 497 153 415 153 q 689 177 584 153 l 689 11 q 466 -15 578 -15 q 229 27 321 -15 q 92 155 137 68 q 48 381 48 242 q 89 593 48 506 q 210 726 131 681 q 401 772 289 772 q 647 670 563 772 q 731 374 731 568 l 731 315 m 399 631 q 303 588 335 631 q 269 444 272 545 l 524 444 q 492 589 522 546 q 399 631 461 631 m 295 856 l 107 1122 l 343 1122 l 499 856 l 295 856 z "},"ẻ":{"ha":771,"x_min":48,"x_max":731,"o":"m 731 315 l 270 315 q 296 219 274 254 q 367 168 319 184 q 497 153 415 153 q 689 177 584 153 l 689 11 q 466 -15 578 -15 q 229 27 321 -15 q 92 155 137 68 q 48 381 48 242 q 89 593 48 506 q 210 726 131 681 q 401 772 289 772 q 647 670 563 772 q 731 374 731 568 l 731 315 m 399 631 q 303 588 335 631 q 269 444 272 545 l 524 444 q 492 589 522 546 q 399 631 461 631 m 342 856 q 361 920 344 897 q 410 965 379 943 q 437 988 428 978 q 446 1010 446 998 q 430 1036 446 1028 q 378 1044 414 1044 q 263 1028 319 1044 l 263 1113 q 325 1126 289 1122 q 394 1131 362 1131 q 522 1105 481 1131 q 563 1024 563 1078 q 555 983 563 1000 q 536 954 547 965 q 505 928 524 943 q 468 895 481 910 q 453 856 455 880 l 342 856 z "},"ȇ":{"ha":771,"x_min":48,"x_max":731,"o":"m 731 315 l 270 315 q 296 219 274 254 q 367 168 319 184 q 497 153 415 153 q 689 177 584 153 l 689 11 q 466 -15 578 -15 q 229 27 321 -15 q 92 155 137 68 q 48 381 48 242 q 89 593 48 506 q 210 726 131 681 q 401 772 289 772 q 647 670 563 772 q 731 374 731 568 l 731 315 m 399 631 q 303 588 335 631 q 269 444 272 545 l 524 444 q 492 589 522 546 q 399 631 461 631 m 144 876 q 216 1058 151 995 q 397 1120 281 1120 q 578 1058 512 1120 q 650 876 644 995 l 515 876 q 481 975 510 943 q 397 1008 452 1008 q 312 976 340 1008 q 279 876 284 944 l 144 876 z "},"ē":{"ha":771,"x_min":48,"x_max":731,"o":"m 731 315 l 270 315 q 296 219 274 254 q 367 168 319 184 q 497 153 415 153 q 689 177 584 153 l 689 11 q 466 -15 578 -15 q 229 27 321 -15 q 92 155 137 68 q 48 381 48 242 q 89 593 48 506 q 210 726 131 681 q 401 772 289 772 q 647 670 563 772 q 731 374 731 568 l 731 315 m 399 631 q 303 588 335 631 q 269 444 272 545 l 524 444 q 492 589 522 546 q 399 631 461 631 m 151 919 l 151 1053 l 644 1053 l 644 919 l 151 919 z "},"ḗ":{"ha":771,"x_min":48,"x_max":731,"o":"m 731 315 l 270 315 q 296 219 274 254 q 367 168 319 184 q 497 153 415 153 q 689 177 584 153 l 689 11 q 466 -15 578 -15 q 229 27 321 -15 q 92 155 137 68 q 48 381 48 242 q 89 593 48 506 q 210 726 131 681 q 401 772 289 772 q 647 670 563 772 q 731 374 731 568 l 731 315 m 399 631 q 303 588 335 631 q 269 444 272 545 l 524 444 q 492 589 522 546 q 399 631 461 631 m 151 919 l 151 1053 l 644 1053 l 644 919 l 151 919 m 296 1150 l 421 1360 l 655 1360 l 497 1150 l 296 1150 z "},"ḕ":{"ha":771,"x_min":48,"x_max":731,"o":"m 731 315 l 270 315 q 296 219 274 254 q 367 168 319 184 q 497 153 415 153 q 689 177 584 153 l 689 11 q 466 -15 578 -15 q 229 27 321 -15 q 92 155 137 68 q 48 381 48 242 q 89 593 48 506 q 210 726 131 681 q 401 772 289 772 q 647 670 563 772 q 731 374 731 568 l 731 315 m 399 631 q 303 588 335 631 q 269 444 272 545 l 524 444 q 492 589 522 546 q 399 631 461 631 m 151 919 l 151 1053 l 644 1053 l 644 919 l 151 919 m 297 1150 l 139 1360 l 372 1360 l 497 1150 l 297 1150 z "},"ę":{"ha":771,"x_min":48,"x_max":731,"o":"m 731 315 l 270 315 q 296 219 274 254 q 367 168 319 184 q 497 153 415 153 q 689 177 584 153 l 689 11 q 554 -62 592 -23 q 516 -148 516 -102 q 538 -200 516 -181 q 600 -218 559 -218 q 689 -197 643 -218 l 689 -284 q 570 -307 634 -307 q 435 -268 482 -307 q 388 -162 388 -230 q 408 -82 388 -119 q 472 -15 428 -44 l 466 -15 q 229 27 321 -15 q 92 155 137 68 q 48 381 48 242 q 89 593 48 506 q 210 726 131 681 q 401 772 289 772 q 647 670 563 772 q 731 374 731 568 l 731 315 m 399 626 q 303 583 335 626 q 269 439 272 540 l 524 439 q 492 584 522 541 q 399 626 461 626 z "},"ẽ":{"ha":771,"x_min":48,"x_max":731,"o":"m 731 315 l 270 315 q 296 219 274 254 q 367 168 319 184 q 497 153 415 153 q 689 177 584 153 l 689 11 q 466 -15 578 -15 q 229 27 321 -15 q 92 155 137 68 q 48 381 48 242 q 89 593 48 506 q 210 726 131 681 q 401 772 289 772 q 647 670 563 772 q 731 374 731 568 l 731 315 m 399 631 q 303 588 335 631 q 269 444 272 545 l 524 444 q 492 589 522 546 q 399 631 461 631 m 507 892 q 450 901 477 892 q 385 926 422 910 q 329 949 351 942 q 284 956 307 956 q 214 942 245 956 q 151 897 183 928 l 151 1036 q 211 1077 178 1064 q 288 1090 244 1090 q 345 1081 317 1090 q 410 1056 372 1072 q 465 1033 443 1040 q 510 1026 488 1026 q 581 1040 549 1026 q 644 1085 612 1053 l 644 946 q 583 905 617 918 q 507 892 550 892 z "},"ə":{"ha":771,"x_min":40,"x_max":723,"o":"m 305 774 q 542 733 450 774 q 678 605 634 692 q 723 379 723 518 q 682 166 723 254 q 561 33 640 78 q 369 -12 482 -12 q 124 90 208 -12 q 40 386 40 192 l 40 444 l 501 444 q 475 541 497 506 q 404 591 452 576 q 274 607 356 607 q 82 583 187 607 l 82 749 q 305 774 193 774 m 372 128 q 467 172 435 128 q 501 316 499 215 l 247 316 q 279 171 249 214 q 372 128 310 128 z "},"f":{"ha":558,"x_min":17,"x_max":593,"o":"m 516 960 q 399 927 435 960 q 362 825 362 895 l 362 760 l 561 760 l 561 585 l 362 585 l 362 0 l 141 0 l 141 585 l 17 585 l 17 760 l 141 760 l 141 815 q 180 988 141 916 q 296 1098 219 1060 q 482 1136 372 1136 q 593 1128 539 1136 l 593 954 q 516 960 556 960 z "},"g":{"ha":855,"x_min":48,"x_max":772,"o":"m 356 -319 q 101 -288 218 -319 l 101 -115 q 338 -149 224 -149 q 460 -131 413 -149 q 528 -73 506 -112 q 550 31 550 -34 l 550 81 l 540 81 q 456 18 506 40 q 343 -5 406 -5 q 195 35 262 -5 q 88 159 128 76 q 48 365 48 242 q 156 667 48 563 q 480 772 265 772 q 633 761 555 772 q 772 730 712 750 l 772 72 q 727 -152 772 -65 q 590 -279 681 -238 q 356 -319 498 -319 m 427 176 q 494 187 462 176 q 550 222 527 199 l 550 594 q 460 603 508 603 q 319 551 366 603 q 272 383 272 499 q 311 222 272 269 q 427 176 351 176 z "},"ǵ":{"ha":855,"x_min":48,"x_max":772,"o":"m 356 -319 q 101 -288 218 -319 l 101 -115 q 338 -149 224 -149 q 460 -131 413 -149 q 528 -73 506 -112 q 550 31 550 -34 l 550 81 l 540 81 q 456 18 506 40 q 343 -5 406 -5 q 195 35 262 -5 q 88 159 128 76 q 48 365 48 242 q 156 667 48 563 q 480 772 265 772 q 633 761 555 772 q 772 730 712 750 l 772 72 q 727 -152 772 -65 q 590 -279 681 -238 q 356 -319 498 -319 m 427 176 q 494 187 462 176 q 550 222 527 199 l 550 594 q 460 603 508 603 q 319 551 366 603 q 272 383 272 499 q 311 222 272 269 q 427 176 351 176 m 342 856 l 499 1122 l 735 1122 l 546 856 l 342 856 z "},"ğ":{"ha":855,"x_min":48,"x_max":772,"o":"m 356 -319 q 101 -288 218 -319 l 101 -115 q 338 -149 224 -149 q 460 -131 413 -149 q 528 -73 506 -112 q 550 31 550 -34 l 550 81 l 540 81 q 456 18 506 40 q 343 -5 406 -5 q 195 35 262 -5 q 88 159 128 76 q 48 365 48 242 q 156 667 48 563 q 480 772 265 772 q 633 761 555 772 q 772 730 712 750 l 772 72 q 727 -152 772 -65 q 590 -279 681 -238 q 356 -319 498 -319 m 427 176 q 494 187 462 176 q 550 222 527 199 l 550 594 q 460 603 508 603 q 319 551 366 603 q 272 383 272 499 q 311 222 272 269 q 427 176 351 176 m 445 863 q 264 925 329 863 q 192 1107 198 988 l 326 1107 q 360 1008 331 1041 q 445 976 390 976 q 529 1008 500 976 q 563 1107 558 1040 l 697 1107 q 626 925 691 988 q 445 863 560 863 z "},"ǧ":{"ha":855,"x_min":48,"x_max":772,"o":"m 356 -319 q 101 -288 218 -319 l 101 -115 q 338 -149 224 -149 q 460 -131 413 -149 q 528 -73 506 -112 q 550 31 550 -34 l 550 81 l 540 81 q 456 18 506 40 q 343 -5 406 -5 q 195 35 262 -5 q 88 159 128 76 q 48 365 48 242 q 156 667 48 563 q 480 772 265 772 q 633 761 555 772 q 772 730 712 750 l 772 72 q 727 -152 772 -65 q 590 -279 681 -238 q 356 -319 498 -319 m 427 176 q 494 187 462 176 q 550 222 527 199 l 550 594 q 460 603 508 603 q 319 551 366 603 q 272 383 272 499 q 311 222 272 269 q 427 176 351 176 m 539 1122 l 698 1122 l 535 856 l 353 856 l 191 1122 l 350 1122 l 444 960 l 539 1122 z "},"ĝ":{"ha":855,"x_min":48,"x_max":772,"o":"m 356 -319 q 101 -288 218 -319 l 101 -115 q 338 -149 224 -149 q 460 -131 413 -149 q 528 -73 506 -112 q 550 31 550 -34 l 550 81 l 540 81 q 456 18 506 40 q 343 -5 406 -5 q 195 35 262 -5 q 88 159 128 76 q 48 365 48 242 q 156 667 48 563 q 480 772 265 772 q 633 761 555 772 q 772 730 712 750 l 772 72 q 727 -152 772 -65 q 590 -279 681 -238 q 356 -319 498 -319 m 427 176 q 494 187 462 176 q 550 222 527 199 l 550 594 q 460 603 508 603 q 319 551 366 603 q 272 383 272 499 q 311 222 272 269 q 427 176 351 176 m 697 856 l 538 856 l 444 1018 l 351 856 l 192 856 l 353 1122 l 535 1122 l 697 856 z "},"ģ":{"ha":855,"x_min":48,"x_max":772,"o":"m 356 -319 q 101 -288 218 -319 l 101 -115 q 338 -149 224 -149 q 460 -131 413 -149 q 528 -73 506 -112 q 550 31 550 -34 l 550 81 l 540 81 q 456 18 506 40 q 343 -5 406 -5 q 195 35 262 -5 q 88 159 128 76 q 48 365 48 242 q 156 667 48 563 q 480 772 265 772 q 633 761 555 772 q 772 730 712 750 l 772 72 q 727 -152 772 -65 q 590 -279 681 -238 q 356 -319 498 -319 m 427 176 q 494 187 462 176 q 550 222 527 199 l 550 594 q 460 603 508 603 q 319 551 366 603 q 272 383 272 499 q 311 222 272 269 q 427 176 351 176 m 473 1028 q 569 951 569 1019 q 539 893 569 913 q 445 872 508 872 q 320 976 320 872 q 335 1055 320 1013 q 374 1128 350 1097 l 511 1128 q 473 1028 481 1069 z "},"ġ":{"ha":855,"x_min":48,"x_max":772,"o":"m 356 -319 q 101 -288 218 -319 l 101 -115 q 338 -149 224 -149 q 460 -131 413 -149 q 528 -73 506 -112 q 550 31 550 -34 l 550 81 l 540 81 q 456 18 506 40 q 343 -5 406 -5 q 195 35 262 -5 q 88 159 128 76 q 48 365 48 242 q 156 667 48 563 q 480 772 265 772 q 633 761 555 772 q 772 730 712 750 l 772 72 q 727 -152 772 -65 q 590 -279 681 -238 q 356 -319 498 -319 m 427 176 q 494 187 462 176 q 550 222 527 199 l 550 594 q 460 603 508 603 q 319 551 366 603 q 272 383 272 499 q 311 222 272 269 q 427 176 351 176 m 444 870 q 341 900 376 870 q 307 985 307 930 q 341 1072 307 1042 q 444 1101 375 1101 q 547 1072 513 1101 q 581 985 581 1042 q 547 900 581 930 q 444 870 513 870 z "},"ḡ":{"ha":855,"x_min":48,"x_max":772,"o":"m 356 -319 q 101 -288 218 -319 l 101 -115 q 338 -149 224 -149 q 460 -131 413 -149 q 528 -73 506 -112 q 550 31 550 -34 l 550 81 l 540 81 q 456 18 506 40 q 343 -5 406 -5 q 195 35 262 -5 q 88 159 128 76 q 48 365 48 242 q 156 667 48 563 q 480 772 265 772 q 633 761 555 772 q 772 730 712 750 l 772 72 q 727 -152 772 -65 q 590 -279 681 -238 q 356 -319 498 -319 m 427 176 q 494 187 462 176 q 550 222 527 199 l 550 594 q 460 603 508 603 q 319 551 366 603 q 272 383 272 499 q 311 222 272 269 q 427 176 351 176 m 198 919 l 198 1053 l 691 1053 l 691 919 l 198 919 z "},"h":{"ha":849,"x_min":83,"x_max":773,"o":"m 83 1122 l 305 1122 l 305 683 l 315 683 q 407 749 354 726 q 524 772 460 772 q 705 699 637 772 q 773 473 773 627 l 773 0 l 551 0 l 551 458 q 524 553 551 525 q 444 581 497 581 q 367 565 405 581 q 305 518 329 549 l 305 0 l 83 0 l 83 1122 z "},"ħ":{"ha":849,"x_min":3,"x_max":773,"o":"m 524 772 q 705 699 637 772 q 773 473 773 627 l 773 0 l 551 0 l 551 458 q 524 553 551 525 q 444 581 497 581 q 367 565 405 581 q 305 518 329 549 l 305 0 l 83 0 l 83 869 l 3 869 l 3 1008 l 83 1008 l 83 1122 l 305 1122 l 305 1008 l 540 1008 l 540 869 l 305 869 l 305 683 l 315 683 q 407 749 354 726 q 524 772 460 772 z "},"ḫ":{"ha":849,"x_min":83,"x_max":773,"o":"m 83 1122 l 305 1122 l 305 683 l 315 683 q 407 749 354 726 q 524 772 460 772 q 705 699 637 772 q 773 473 773 627 l 773 0 l 551 0 l 551 458 q 524 553 551 525 q 444 581 497 581 q 367 565 405 581 q 305 518 329 549 l 305 0 l 83 0 l 83 1122 m 429 -317 q 245 -260 312 -317 q 176 -101 179 -202 l 310 -101 q 429 -206 315 -206 q 515 -180 486 -206 q 547 -101 544 -153 l 681 -101 q 612 -260 678 -203 q 429 -317 547 -317 z "},"ĥ":{"ha":849,"x_min":83,"x_max":773,"o":"m 83 1122 l 305 1122 l 305 683 l 315 683 q 407 749 354 726 q 524 772 460 772 q 705 699 637 772 q 773 473 773 627 l 773 0 l 551 0 l 551 458 q 524 553 551 525 q 444 581 497 581 q 367 565 405 581 q 305 518 329 549 l 305 0 l 83 0 l 83 1122 m 701 1174 l 532 1174 l 428 1303 l 325 1174 l 156 1174 l 334 1385 l 523 1385 l 701 1174 z "},"ḥ":{"ha":849,"x_min":83,"x_max":773,"o":"m 83 1122 l 305 1122 l 305 683 l 315 683 q 407 749 354 726 q 524 772 460 772 q 705 699 637 772 q 773 473 773 627 l 773 0 l 551 0 l 551 458 q 524 553 551 525 q 444 581 497 581 q 367 565 405 581 q 305 518 329 549 l 305 0 l 83 0 l 83 1122 m 428 -308 q 340 -279 371 -308 q 308 -199 308 -250 q 340 -118 308 -147 q 428 -89 371 -89 q 517 -118 486 -89 q 549 -199 549 -147 q 517 -279 549 -250 q 428 -308 486 -308 z "},"i":{"ha":388,"x_min":56,"x_max":331,"o":"m 83 0 l 83 760 l 305 760 l 305 0 l 83 0 m 194 870 q 91 900 125 870 q 56 985 56 930 q 90 1072 56 1042 q 194 1101 124 1101 q 297 1072 263 1101 q 331 985 331 1042 q 297 900 331 930 q 194 870 263 870 z "},"ı":{"ha":388,"x_min":83,"x_max":305,"o":"m 83 0 l 83 760 l 305 760 l 305 0 l 83 0 z "},"í":{"ha":388,"x_min":83,"x_max":484,"o":"m 83 0 l 83 760 l 305 760 l 305 0 l 83 0 m 92 856 l 248 1122 l 484 1122 l 295 856 l 92 856 z "},"ĭ":{"ha":388,"x_min":-59,"x_max":447,"o":"m 83 0 l 83 760 l 305 760 l 305 0 l 83 0 m 194 863 q 13 925 78 863 q -59 1107 -53 988 l 76 1107 q 110 1008 81 1041 q 194 976 139 976 q 278 1008 249 976 q 312 1107 307 1040 l 447 1107 q 375 925 440 988 q 194 863 310 863 z "},"î":{"ha":388,"x_min":-59,"x_max":447,"o":"m 83 0 l 83 760 l 305 760 l 305 0 l 83 0 m 447 856 l 287 856 l 194 1018 l 100 856 l -59 856 l 103 1122 l 285 1122 l 447 856 z "},"ȉ":{"ha":388,"x_min":-141,"x_max":416,"o":"m 83 0 l 83 760 l 305 760 l 305 0 l 83 0 m -28 856 l -141 1122 l 35 1122 l 135 856 l -28 856 m 252 856 l 140 1122 l 315 1122 l 416 856 l 252 856 z "},"ï":{"ha":388,"x_min":-96,"x_max":483,"o":"m 83 0 l 83 760 l 305 760 l 305 0 l 83 0 m 24 874 q -65 903 -33 874 q -96 985 -96 933 q -65 1068 -96 1038 q 24 1098 -33 1098 q 113 1068 82 1098 q 144 985 144 1038 q 113 903 144 933 q 24 874 81 874 m 363 874 q 275 903 306 874 q 244 985 244 933 q 275 1068 244 1038 q 363 1098 306 1098 q 452 1068 421 1098 q 483 985 483 1038 q 452 903 483 933 q 363 874 421 874 z "},"ḯ":{"ha":388,"x_min":-96,"x_max":528,"o":"m 83 0 l 83 760 l 305 760 l 305 0 l 83 0 m 24 874 q -65 903 -33 874 q -96 985 -96 933 q -65 1068 -96 1038 q 24 1098 -33 1098 q 113 1068 82 1098 q 144 985 144 1038 q 113 903 144 933 q 24 874 81 874 m 363 874 q 275 903 306 874 q 244 985 244 933 q 275 1068 244 1038 q 363 1098 306 1098 q 452 1068 421 1098 q 483 985 483 1038 q 452 903 483 933 q 363 874 421 874 m 169 1344 l 294 1555 l 528 1555 l 369 1344 l 169 1344 z "},"ị":{"ha":388,"x_min":56,"x_max":331,"o":"m 83 0 l 83 760 l 305 760 l 305 0 l 83 0 m 194 870 q 91 900 125 870 q 56 985 56 930 q 90 1072 56 1042 q 194 1101 124 1101 q 297 1072 263 1101 q 331 985 331 1042 q 297 900 331 930 q 194 870 263 870 m 194 -308 q 105 -279 136 -308 q 74 -199 74 -250 q 105 -118 74 -147 q 194 -89 136 -89 q 283 -118 251 -89 q 314 -199 314 -147 q 283 -279 314 -250 q 194 -308 251 -308 z "},"ì":{"ha":388,"x_min":-97,"x_max":305,"o":"m 83 0 l 83 760 l 305 760 l 305 0 l 83 0 m 92 856 l -97 1122 l 140 1122 l 295 856 l 92 856 z "},"ỉ":{"ha":388,"x_min":60,"x_max":360,"o":"m 83 0 l 83 760 l 305 760 l 305 0 l 83 0 m 138 856 q 158 920 140 897 q 206 965 176 943 q 234 988 225 978 q 242 1010 242 998 q 226 1036 242 1028 q 174 1044 210 1044 q 60 1028 115 1044 l 60 1113 q 122 1126 85 1122 q 190 1131 158 1131 q 318 1105 277 1131 q 360 1024 360 1078 q 352 983 360 1000 q 332 954 344 965 q 301 928 321 943 q 264 895 277 910 q 249 856 251 880 l 138 856 z "},"ȋ":{"ha":388,"x_min":-59,"x_max":447,"o":"m 83 0 l 83 760 l 305 760 l 305 0 l 83 0 m -59 876 q 12 1058 -53 995 q 193 1120 77 1120 q 374 1058 308 1120 q 447 876 440 995 l 312 876 q 278 975 307 943 q 193 1008 249 1008 q 109 976 137 1008 q 76 876 81 944 l -59 876 z "},"ī":{"ha":388,"x_min":-53,"x_max":440,"o":"m 83 0 l 83 760 l 305 760 l 305 0 l 83 0 m -53 919 l -53 1053 l 440 1053 l 440 919 l -53 919 z "},"į":{"ha":388,"x_min":32,"x_max":332,"o":"m 194 870 q 91 900 125 870 q 56 985 56 930 q 90 1072 56 1042 q 194 1101 124 1101 q 297 1072 263 1101 q 331 985 331 1042 q 297 900 331 930 q 194 870 263 870 m 243 -218 q 332 -197 286 -218 l 332 -284 q 213 -307 277 -307 q 78 -268 125 -307 q 32 -162 32 -230 q 56 -74 32 -114 q 136 0 81 -33 l 83 0 l 83 760 l 305 760 l 305 0 q 192 -70 224 -34 q 159 -149 159 -106 q 181 -200 159 -181 q 243 -218 202 -218 z "},"ĩ":{"ha":388,"x_min":-53,"x_max":440,"o":"m 83 0 l 83 760 l 305 760 l 305 0 l 83 0 m 303 892 q 246 901 274 892 q 181 926 219 910 q 126 949 148 942 q 81 956 103 956 q 10 942 42 956 q -53 897 -21 928 l -53 1036 q 8 1077 -26 1064 q 84 1090 41 1090 q 141 1081 114 1090 q 206 1056 169 1072 q 262 1033 240 1040 q 307 1026 284 1026 q 377 1040 346 1026 q 440 1085 408 1053 l 440 946 q 380 905 413 918 q 303 892 347 892 z "},"j":{"ha":388,"x_min":-26,"x_max":328,"o":"m -26 -232 q 58 -72 34 -151 q 83 122 83 8 l 83 760 l 305 760 l 305 131 q 262 -111 305 -3 q 117 -327 219 -219 l -26 -232 m 191 872 q 88 901 122 872 q 53 987 53 931 q 88 1073 53 1043 q 191 1103 122 1103 q 294 1073 260 1103 q 328 987 328 1043 q 294 901 328 931 q 191 872 260 872 z "},"ȷ":{"ha":388,"x_min":-26,"x_max":305,"o":"m -26 -232 q 58 -72 34 -151 q 83 122 83 8 l 83 760 l 305 760 l 305 131 q 262 -111 305 -3 q 117 -327 219 -219 l -26 -232 z "},"ĵ":{"ha":388,"x_min":-62,"x_max":444,"o":"m -26 -232 q 58 -72 34 -151 q 83 122 83 8 l 83 760 l 305 760 l 305 131 q 262 -111 305 -3 q 117 -327 219 -219 l -26 -232 m 444 858 l 284 858 l 191 1019 l 97 858 l -62 858 l 100 1124 l 282 1124 l 444 858 z "},"k":{"ha":820,"x_min":83,"x_max":843,"o":"m 601 0 l 394 301 l 305 301 l 305 0 l 83 0 l 83 1122 l 305 1122 l 305 479 l 392 479 l 582 760 l 819 760 l 577 394 l 843 0 l 601 0 z "},"ķ":{"ha":820,"x_min":83,"x_max":843,"o":"m 601 0 l 394 301 l 305 301 l 305 0 l 83 0 l 83 1122 l 305 1122 l 305 479 l 392 479 l 582 760 l 819 760 l 577 394 l 843 0 l 601 0 m 433 -89 q 558 -192 558 -89 q 543 -272 558 -230 q 503 -345 528 -314 l 367 -345 q 405 -244 397 -285 q 309 -167 309 -235 q 340 -109 309 -130 q 433 -89 370 -89 z "},"ĸ":{"ha":820,"x_min":83,"x_max":843,"o":"m 601 0 l 394 301 l 305 301 l 305 0 l 83 0 l 83 760 l 305 760 l 305 479 l 392 479 l 582 760 l 819 760 l 577 394 l 843 0 l 601 0 z "},"l":{"ha":387,"x_min":83,"x_max":305,"o":"m 83 0 l 83 1122 l 305 1122 l 305 0 l 83 0 z "},"ĺ":{"ha":387,"x_min":83,"x_max":451,"o":"m 83 0 l 83 1122 l 305 1122 l 305 0 l 83 0 m 92 1174 l 217 1385 l 451 1385 l 293 1174 l 92 1174 z "},"ľ":{"ha":387,"x_min":83,"x_max":521,"o":"m 83 0 l 83 1122 l 305 1122 l 305 0 l 83 0 m 353 819 q 368 967 364 894 q 373 1122 373 1039 l 521 1122 q 508 961 521 1040 q 473 819 496 882 l 353 819 z "},"ļ":{"ha":387,"x_min":69,"x_max":317,"o":"m 83 0 l 83 1122 l 305 1122 l 305 0 l 83 0 m 192 -89 q 317 -192 317 -89 q 302 -272 317 -230 q 263 -345 288 -314 l 126 -345 q 165 -244 157 -285 q 69 -167 69 -235 q 99 -109 69 -130 q 192 -89 130 -89 z "},"ŀ":{"ha":600,"x_min":83,"x_max":628,"o":"m 83 0 l 83 1122 l 305 1122 l 305 0 l 83 0 m 490 435 q 388 465 422 435 q 353 551 353 495 q 388 637 353 607 q 490 667 422 667 q 594 637 560 667 q 628 551 628 607 q 593 465 628 495 q 490 435 559 435 z "},"ḷ":{"ha":387,"x_min":73,"x_max":313,"o":"m 83 0 l 83 1122 l 305 1122 l 305 0 l 83 0 m 193 -308 q 104 -279 135 -308 q 73 -199 73 -250 q 104 -118 73 -147 q 193 -89 135 -89 q 282 -118 251 -89 q 313 -199 313 -147 q 282 -279 313 -250 q 193 -308 251 -308 z "},"ǉ":{"ha":774,"x_min":83,"x_max":715,"o":"m 83 0 l 83 1122 l 305 1122 l 305 0 l 83 0 m 360 -232 q 445 -72 421 -151 q 469 122 469 8 l 469 760 l 692 760 l 692 131 q 649 -111 692 -3 q 504 -327 606 -219 l 360 -232 m 578 872 q 475 901 509 872 q 440 987 440 931 q 474 1073 440 1043 q 578 1103 508 1103 q 681 1073 647 1103 q 715 987 715 1043 q 681 901 715 931 q 578 872 647 872 z "},"ḻ":{"ha":387,"x_min":-47,"x_max":433,"o":"m 83 0 l 83 1122 l 305 1122 l 305 0 l 83 0 m -47 -262 l -47 -131 l 433 -131 l 433 -262 l -47 -262 z "},"ł":{"ha":387,"x_min":-40,"x_max":428,"o":"m 428 546 l 305 478 l 305 0 l 83 0 l 83 356 l 24 324 l -40 446 l 83 513 l 83 1122 l 305 1122 l 305 635 l 365 668 l 428 546 z "},"m":{"ha":1254,"x_min":83,"x_max":1178,"o":"m 925 772 q 1110 699 1042 772 q 1178 472 1178 627 l 1178 0 l 956 0 l 956 460 q 930 553 956 525 q 858 581 904 581 q 793 568 824 581 q 740 528 762 555 q 742 479 742 506 l 742 0 l 524 0 l 524 460 q 500 553 524 526 q 429 581 476 581 q 360 565 394 581 q 305 517 326 549 l 305 0 l 83 0 l 83 760 l 265 760 l 281 683 l 291 683 q 504 772 372 772 q 617 748 567 772 q 697 673 667 724 q 803 748 744 724 q 925 772 863 772 z "},"ṃ":{"ha":1254,"x_min":83,"x_max":1178,"o":"m 925 772 q 1110 699 1042 772 q 1178 472 1178 627 l 1178 0 l 956 0 l 956 460 q 930 553 956 525 q 858 581 904 581 q 793 568 824 581 q 740 528 762 555 q 742 479 742 506 l 742 0 l 524 0 l 524 460 q 500 553 524 526 q 429 581 476 581 q 360 565 394 581 q 305 517 326 549 l 305 0 l 83 0 l 83 760 l 265 760 l 281 683 l 291 683 q 504 772 372 772 q 617 748 567 772 q 697 673 667 724 q 803 748 744 724 q 925 772 863 772 m 633 -308 q 544 -279 576 -308 q 513 -199 513 -250 q 544 -118 513 -147 q 633 -89 576 -89 q 722 -118 691 -89 q 753 -199 753 -147 q 722 -279 753 -250 q 633 -308 691 -308 z "},"n":{"ha":849,"x_min":83,"x_max":773,"o":"m 83 760 l 265 760 l 281 683 l 291 683 q 390 749 333 726 q 514 772 447 772 q 703 699 634 772 q 773 473 773 627 l 773 0 l 551 0 l 551 460 q 524 553 551 526 q 444 581 497 581 q 367 565 404 581 q 305 518 329 549 l 305 0 l 83 0 l 83 760 z "},"ń":{"ha":849,"x_min":83,"x_max":773,"o":"m 83 760 l 265 760 l 281 683 l 291 683 q 390 749 333 726 q 514 772 447 772 q 703 699 634 772 q 773 473 773 627 l 773 0 l 551 0 l 551 460 q 524 553 551 526 q 444 581 497 581 q 367 565 404 581 q 305 518 329 549 l 305 0 l 83 0 l 83 760 m 326 856 l 483 1122 l 719 1122 l 530 856 l 326 856 z "},"ŉ":{"ha":849,"x_min":8,"x_max":773,"o":"m 83 760 l 265 760 l 281 683 l 291 683 q 390 749 333 726 q 514 772 447 772 q 703 699 634 772 q 773 473 773 627 l 773 0 l 551 0 l 551 460 q 524 553 551 526 q 444 581 497 581 q 367 565 404 581 q 305 518 329 549 l 305 0 l 83 0 l 83 760 m 132 1128 q 257 1025 257 1128 q 242 946 257 988 q 203 872 228 904 l 66 872 q 104 974 96 929 q 8 1051 8 981 q 39 1108 8 1088 q 132 1128 69 1128 z "},"ň":{"ha":849,"x_min":83,"x_max":773,"o":"m 83 760 l 265 760 l 281 683 l 291 683 q 390 749 333 726 q 514 772 447 772 q 703 699 634 772 q 773 473 773 627 l 773 0 l 551 0 l 551 460 q 524 553 551 526 q 444 581 497 581 q 367 565 404 581 q 305 518 329 549 l 305 0 l 83 0 l 83 760 m 523 1122 l 682 1122 l 519 856 l 338 856 l 175 1122 l 334 1122 l 428 960 l 523 1122 z "},"ņ":{"ha":849,"x_min":83,"x_max":773,"o":"m 83 760 l 265 760 l 281 683 l 291 683 q 390 749 333 726 q 514 772 447 772 q 703 699 634 772 q 773 473 773 627 l 773 0 l 551 0 l 551 460 q 524 553 551 526 q 444 581 497 581 q 367 565 404 581 q 305 518 329 549 l 305 0 l 83 0 l 83 760 m 428 -89 q 553 -192 553 -89 q 538 -272 553 -230 q 499 -345 523 -314 l 362 -345 q 400 -244 392 -285 q 304 -167 304 -235 q 335 -109 304 -130 q 428 -89 365 -89 z "},"ṅ":{"ha":849,"x_min":83,"x_max":773,"o":"m 83 760 l 265 760 l 281 683 l 291 683 q 390 749 333 726 q 514 772 447 772 q 703 699 634 772 q 773 473 773 627 l 773 0 l 551 0 l 551 460 q 524 553 551 526 q 444 581 497 581 q 367 565 404 581 q 305 518 329 549 l 305 0 l 83 0 l 83 760 m 428 870 q 325 900 360 870 q 291 985 291 930 q 325 1072 291 1042 q 428 1101 359 1101 q 531 1072 497 1101 q 565 985 565 1042 q 531 900 565 930 q 428 870 497 870 z "},"ṇ":{"ha":849,"x_min":83,"x_max":773,"o":"m 83 760 l 265 760 l 281 683 l 291 683 q 390 749 333 726 q 514 772 447 772 q 703 699 634 772 q 773 473 773 627 l 773 0 l 551 0 l 551 460 q 524 553 551 526 q 444 581 497 581 q 367 565 404 581 q 305 518 329 549 l 305 0 l 83 0 l 83 760 m 428 -308 q 340 -279 371 -308 q 308 -199 308 -250 q 340 -118 308 -147 q 428 -89 371 -89 q 517 -118 486 -89 q 549 -199 549 -147 q 517 -279 549 -250 q 428 -308 486 -308 z "},"ŋ":{"ha":849,"x_min":83,"x_max":773,"o":"m 442 -232 q 526 -72 502 -152 q 551 122 551 8 l 551 461 q 524 555 551 527 q 444 583 497 583 q 367 567 405 583 q 305 521 329 551 l 305 0 l 83 0 l 83 760 l 265 760 l 281 683 l 291 683 q 390 749 333 726 q 514 772 447 772 q 703 700 634 772 q 773 473 773 628 l 773 123 q 729 -114 772 -8 q 585 -327 686 -219 l 442 -232 z "},"ǌ":{"ha":1237,"x_min":83,"x_max":1177,"o":"m 83 760 l 265 760 l 281 683 l 291 683 q 390 749 333 726 q 514 772 447 772 q 703 699 634 772 q 773 473 773 627 l 773 0 l 551 0 l 551 460 q 524 553 551 526 q 444 581 497 581 q 367 565 404 581 q 305 518 329 549 l 305 0 l 83 0 l 83 760 m 823 -232 q 908 -72 883 -151 q 932 122 932 8 l 932 760 l 1154 760 l 1154 131 q 1111 -111 1154 -3 q 967 -327 1068 -219 l 823 -232 m 1040 872 q 937 901 972 872 q 903 987 903 931 q 937 1073 903 1043 q 1040 1103 971 1103 q 1143 1073 1109 1103 q 1177 987 1177 1043 q 1143 901 1177 931 q 1040 872 1109 872 z "},"ṉ":{"ha":849,"x_min":83,"x_max":773,"o":"m 83 760 l 265 760 l 281 683 l 291 683 q 390 749 333 726 q 514 772 447 772 q 703 699 634 772 q 773 473 773 627 l 773 0 l 551 0 l 551 460 q 524 553 551 526 q 444 581 497 581 q 367 565 404 581 q 305 518 329 549 l 305 0 l 83 0 l 83 760 m 188 -262 l 188 -131 l 668 -131 l 668 -262 l 188 -262 z "},"ñ":{"ha":849,"x_min":83,"x_max":773,"o":"m 83 760 l 265 760 l 281 683 l 291 683 q 390 749 333 726 q 514 772 447 772 q 703 699 634 772 q 773 473 773 627 l 773 0 l 551 0 l 551 460 q 524 553 551 526 q 444 581 497 581 q 367 565 404 581 q 305 518 329 549 l 305 0 l 83 0 l 83 760 m 538 892 q 481 901 508 892 q 416 926 453 910 q 360 949 383 942 q 315 956 338 956 q 245 942 276 956 q 182 897 214 928 l 182 1036 q 242 1077 209 1064 q 319 1090 276 1090 q 376 1081 349 1090 q 441 1056 403 1072 q 497 1033 474 1040 q 542 1026 519 1026 q 612 1040 581 1026 q 675 1085 643 1053 l 675 946 q 615 905 648 918 q 538 892 581 892 z "},"o":{"ha":838,"x_min":48,"x_max":790,"o":"m 419 -15 q 220 29 303 -15 q 93 161 138 73 q 48 378 48 249 q 144 673 48 574 q 419 772 241 772 q 693 672 596 772 q 790 379 790 573 q 745 161 790 249 q 617 29 700 73 q 419 -15 534 -15 m 419 154 q 500 175 468 154 q 549 245 532 196 q 566 377 566 294 q 549 512 566 462 q 500 583 532 562 q 419 603 467 603 q 338 583 370 603 q 289 513 306 562 q 272 380 272 464 q 289 245 272 295 q 338 175 306 196 q 419 154 369 154 z "},"ó":{"ha":838,"x_min":48,"x_max":790,"o":"m 419 -15 q 220 29 303 -15 q 93 161 138 73 q 48 378 48 249 q 144 673 48 574 q 419 772 241 772 q 693 672 596 772 q 790 379 790 573 q 745 161 790 249 q 617 29 700 73 q 419 -15 534 -15 m 419 154 q 500 175 468 154 q 549 245 532 196 q 566 377 566 294 q 549 512 566 462 q 500 583 532 562 q 419 603 467 603 q 338 583 370 603 q 289 513 306 562 q 272 380 272 464 q 289 245 272 295 q 338 175 306 196 q 419 154 369 154 m 317 856 l 473 1122 l 709 1122 l 520 856 l 317 856 z "},"ŏ":{"ha":838,"x_min":48,"x_max":790,"o":"m 419 -15 q 220 29 303 -15 q 93 161 138 73 q 48 378 48 249 q 144 673 48 574 q 419 772 241 772 q 693 672 596 772 q 790 379 790 573 q 745 161 790 249 q 617 29 700 73 q 419 -15 534 -15 m 419 154 q 500 175 468 154 q 549 245 532 196 q 566 377 566 294 q 549 512 566 462 q 500 583 532 562 q 419 603 467 603 q 338 583 370 603 q 289 513 306 562 q 272 380 272 464 q 289 245 272 295 q 338 175 306 196 q 419 154 369 154 m 419 863 q 238 925 303 863 q 166 1107 172 988 l 301 1107 q 335 1008 306 1041 q 419 976 364 976 q 503 1008 474 976 q 537 1107 532 1040 l 672 1107 q 600 925 665 988 q 419 863 535 863 z "},"ô":{"ha":838,"x_min":48,"x_max":790,"o":"m 419 -15 q 220 29 303 -15 q 93 161 138 73 q 48 378 48 249 q 144 673 48 574 q 419 772 241 772 q 693 672 596 772 q 790 379 790 573 q 745 161 790 249 q 617 29 700 73 q 419 -15 534 -15 m 419 154 q 500 175 468 154 q 549 245 532 196 q 566 377 566 294 q 549 512 566 462 q 500 583 532 562 q 419 603 467 603 q 338 583 370 603 q 289 513 306 562 q 272 380 272 464 q 289 245 272 295 q 338 175 306 196 q 419 154 369 154 m 672 856 l 512 856 l 419 1018 l 325 856 l 166 856 l 328 1122 l 510 1122 l 672 856 z "},"ố":{"ha":838,"x_min":48,"x_max":890,"o":"m 419 -15 q 220 29 303 -15 q 93 161 138 73 q 48 378 48 249 q 144 673 48 574 q 419 772 241 772 q 693 672 596 772 q 790 379 790 573 q 745 161 790 249 q 617 29 700 73 q 419 -15 534 -15 m 419 154 q 500 175 468 154 q 549 245 532 196 q 566 377 566 294 q 549 512 566 462 q 500 583 532 562 q 419 603 467 603 q 338 583 370 603 q 289 513 306 562 q 272 380 272 464 q 289 245 272 295 q 338 175 306 196 q 419 154 369 154 m 702 1297 l 890 1297 l 732 1109 l 577 1109 l 702 1297 m 328 1122 l 510 1122 l 672 856 l 512 856 l 419 1018 l 325 856 l 166 856 l 328 1122 z "},"ộ":{"ha":838,"x_min":48,"x_max":790,"o":"m 419 -15 q 220 29 303 -15 q 93 161 138 73 q 48 378 48 249 q 144 673 48 574 q 419 772 241 772 q 693 672 596 772 q 790 379 790 573 q 745 161 790 249 q 617 29 700 73 q 419 -15 534 -15 m 419 154 q 500 175 468 154 q 549 245 532 196 q 566 377 566 294 q 549 512 566 462 q 500 583 532 562 q 419 603 467 603 q 338 583 370 603 q 289 513 306 562 q 272 380 272 464 q 289 245 272 295 q 338 175 306 196 q 419 154 369 154 m 419 -308 q 330 -279 361 -308 q 299 -199 299 -250 q 330 -118 299 -147 q 419 -89 361 -89 q 508 -118 476 -89 q 539 -199 539 -147 q 508 -279 539 -250 q 419 -308 476 -308 m 672 856 l 512 856 l 419 1018 l 325 856 l 166 856 l 328 1122 l 510 1122 l 672 856 z "},"ồ":{"ha":838,"x_min":48,"x_max":790,"o":"m 419 -15 q 220 29 303 -15 q 93 161 138 73 q 48 378 48 249 q 144 673 48 574 q 419 772 241 772 q 693 672 596 772 q 790 379 790 573 q 745 161 790 249 q 617 29 700 73 q 419 -15 534 -15 m 419 154 q 500 175 468 154 q 549 245 532 196 q 566 377 566 294 q 549 512 566 462 q 500 583 532 562 q 419 603 467 603 q 338 583 370 603 q 289 513 306 562 q 272 380 272 464 q 289 245 272 295 q 338 175 306 196 q 419 154 369 154 m 754 1109 l 599 1109 l 440 1297 l 629 1297 l 754 1109 m 328 1122 l 510 1122 l 672 856 l 512 856 l 419 1018 l 325 856 l 166 856 l 328 1122 z "},"ổ":{"ha":838,"x_min":48,"x_max":794,"o":"m 419 -15 q 220 29 303 -15 q 93 161 138 73 q 48 378 48 249 q 144 673 48 574 q 419 772 241 772 q 693 672 596 772 q 790 379 790 573 q 745 161 790 249 q 617 29 700 73 q 419 -15 534 -15 m 419 154 q 500 175 468 154 q 549 245 532 196 q 566 377 566 294 q 549 512 566 462 q 500 583 532 562 q 419 603 467 603 q 338 583 370 603 q 289 513 306 562 q 272 380 272 464 q 289 245 272 295 q 338 175 306 196 q 419 154 369 154 m 627 1310 q 753 1289 713 1310 q 794 1226 794 1269 q 779 1190 794 1203 q 735 1161 765 1176 q 695 1138 709 1149 q 679 1109 682 1126 l 574 1109 q 595 1156 576 1140 q 647 1185 615 1172 q 673 1199 665 1193 q 681 1213 681 1204 q 665 1231 681 1225 q 610 1238 648 1238 q 484 1222 544 1238 l 484 1292 q 551 1305 510 1300 q 627 1310 592 1310 m 328 1122 l 510 1122 l 672 856 l 512 856 l 419 1018 l 325 856 l 166 856 l 328 1122 z "},"ỗ":{"ha":838,"x_min":48,"x_max":790,"o":"m 419 -15 q 220 29 303 -15 q 93 161 138 73 q 48 378 48 249 q 144 673 48 574 q 419 772 241 772 q 693 672 596 772 q 790 379 790 573 q 745 161 790 249 q 617 29 700 73 q 419 -15 534 -15 m 419 154 q 500 175 468 154 q 549 245 532 196 q 566 377 566 294 q 549 512 566 462 q 500 583 532 562 q 419 603 467 603 q 338 583 370 603 q 289 513 306 562 q 272 380 272 464 q 289 245 272 295 q 338 175 306 196 q 419 154 369 154 m 536 1125 q 475 1131 503 1125 q 407 1150 446 1138 q 347 1167 370 1161 q 297 1172 323 1172 q 225 1162 256 1172 q 160 1128 193 1151 l 160 1240 q 222 1274 188 1263 q 301 1285 256 1285 q 361 1278 333 1285 q 431 1259 390 1272 q 490 1242 465 1248 q 540 1236 515 1236 q 613 1247 581 1236 q 677 1281 644 1258 l 677 1169 q 616 1136 650 1147 q 536 1125 582 1125 m 687 858 l 520 858 l 419 1000 l 317 858 l 151 858 l 324 1084 l 513 1084 l 687 858 z "},"ȍ":{"ha":838,"x_min":48,"x_max":790,"o":"m 419 -15 q 220 29 303 -15 q 93 161 138 73 q 48 378 48 249 q 144 673 48 574 q 419 772 241 772 q 693 672 596 772 q 790 379 790 573 q 745 161 790 249 q 617 29 700 73 q 419 -15 534 -15 m 419 154 q 500 175 468 154 q 549 245 532 196 q 566 377 566 294 q 549 512 566 462 q 500 583 532 562 q 419 603 467 603 q 338 583 370 603 q 289 513 306 562 q 272 380 272 464 q 289 245 272 295 q 338 175 306 196 q 419 154 369 154 m 197 856 l 84 1122 l 260 1122 l 360 856 l 197 856 m 477 856 l 365 1122 l 540 1122 l 641 856 l 477 856 z "},"ö":{"ha":838,"x_min":48,"x_max":790,"o":"m 419 -15 q 220 29 303 -15 q 93 161 138 73 q 48 378 48 249 q 144 673 48 574 q 419 772 241 772 q 693 672 596 772 q 790 379 790 573 q 745 161 790 249 q 617 29 700 73 q 419 -15 534 -15 m 419 154 q 500 175 468 154 q 549 245 532 196 q 566 377 566 294 q 549 512 566 462 q 500 583 532 562 q 419 603 467 603 q 338 583 370 603 q 289 513 306 562 q 272 380 272 464 q 289 245 272 295 q 338 175 306 196 q 419 154 369 154 m 249 874 q 160 903 192 874 q 129 985 129 933 q 160 1068 129 1038 q 249 1098 192 1098 q 338 1068 307 1098 q 369 985 369 1038 q 338 903 369 933 q 249 874 306 874 m 588 874 q 500 903 531 874 q 469 985 469 933 q 500 1068 469 1038 q 588 1098 531 1098 q 677 1068 646 1098 q 708 985 708 1038 q 677 903 708 933 q 588 874 646 874 z "},"ȫ":{"ha":838,"x_min":48,"x_max":790,"o":"m 419 -15 q 220 29 303 -15 q 93 161 138 73 q 48 378 48 249 q 144 673 48 574 q 419 772 241 772 q 693 672 596 772 q 790 379 790 573 q 745 161 790 249 q 617 29 700 73 q 419 -15 534 -15 m 419 154 q 500 175 468 154 q 549 245 532 196 q 566 377 566 294 q 549 512 566 462 q 500 583 532 562 q 419 603 467 603 q 338 583 370 603 q 289 513 306 562 q 272 380 272 464 q 289 245 272 295 q 338 175 306 196 q 419 154 369 154 m 249 874 q 160 903 192 874 q 129 985 129 933 q 160 1068 129 1038 q 249 1098 192 1098 q 338 1068 307 1098 q 369 985 369 1038 q 338 903 369 933 q 249 874 306 874 m 588 874 q 500 903 531 874 q 469 985 469 933 q 500 1068 469 1038 q 588 1098 531 1098 q 677 1068 646 1098 q 708 985 708 1038 q 677 903 708 933 q 588 874 646 874 m 172 1177 l 172 1310 l 665 1310 l 665 1177 l 172 1177 z "},"ȱ":{"ha":838,"x_min":48,"x_max":790,"o":"m 419 -15 q 220 29 303 -15 q 93 161 138 73 q 48 378 48 249 q 144 673 48 574 q 419 772 241 772 q 693 672 596 772 q 790 379 790 573 q 745 161 790 249 q 617 29 700 73 q 419 -15 534 -15 m 419 154 q 500 175 468 154 q 549 245 532 196 q 566 377 566 294 q 549 512 566 462 q 500 583 532 562 q 419 603 467 603 q 338 583 370 603 q 289 513 306 562 q 272 380 272 464 q 289 245 272 295 q 338 175 306 196 q 419 154 369 154 m 419 870 q 316 900 350 870 q 281 985 281 930 q 315 1072 281 1042 q 419 1101 349 1101 q 522 1072 488 1101 q 556 985 556 1042 q 522 900 556 930 q 419 870 488 870 m 172 1179 l 172 1313 l 665 1313 l 665 1179 l 172 1179 z "},"ọ":{"ha":838,"x_min":48,"x_max":790,"o":"m 419 -15 q 220 29 303 -15 q 93 161 138 73 q 48 378 48 249 q 144 673 48 574 q 419 772 241 772 q 693 672 596 772 q 790 379 790 573 q 745 161 790 249 q 617 29 700 73 q 419 -15 534 -15 m 419 154 q 500 175 468 154 q 549 245 532 196 q 566 377 566 294 q 549 512 566 462 q 500 583 532 562 q 419 603 467 603 q 338 583 370 603 q 289 513 306 562 q 272 380 272 464 q 289 245 272 295 q 338 175 306 196 q 419 154 369 154 m 419 -308 q 330 -279 361 -308 q 299 -199 299 -250 q 330 -118 299 -147 q 419 -89 361 -89 q 508 -118 476 -89 q 539 -199 539 -147 q 508 -279 539 -250 q 419 -308 476 -308 z "},"ò":{"ha":838,"x_min":48,"x_max":790,"o":"m 419 -15 q 220 29 303 -15 q 93 161 138 73 q 48 378 48 249 q 144 673 48 574 q 419 772 241 772 q 693 672 596 772 q 790 379 790 573 q 745 161 790 249 q 617 29 700 73 q 419 -15 534 -15 m 419 154 q 500 175 468 154 q 549 245 532 196 q 566 377 566 294 q 549 512 566 462 q 500 583 532 562 q 419 603 467 603 q 338 583 370 603 q 289 513 306 562 q 272 380 272 464 q 289 245 272 295 q 338 175 306 196 q 419 154 369 154 m 317 856 l 128 1122 l 365 1122 l 520 856 l 317 856 z "},"ỏ":{"ha":838,"x_min":48,"x_max":790,"o":"m 419 -15 q 220 29 303 -15 q 93 161 138 73 q 48 378 48 249 q 144 673 48 574 q 419 772 241 772 q 693 672 596 772 q 790 379 790 573 q 745 161 790 249 q 617 29 700 73 q 419 -15 534 -15 m 419 154 q 500 175 468 154 q 549 245 532 196 q 566 377 566 294 q 549 512 566 462 q 500 583 532 562 q 419 603 467 603 q 338 583 370 603 q 289 513 306 562 q 272 380 272 464 q 289 245 272 295 q 338 175 306 196 q 419 154 369 154 m 363 856 q 383 920 365 897 q 431 965 401 943 q 459 988 450 978 q 467 1010 467 998 q 451 1036 467 1028 q 399 1044 435 1044 q 285 1028 340 1044 l 285 1113 q 347 1126 310 1122 q 415 1131 383 1131 q 543 1105 502 1131 q 585 1024 585 1078 q 577 983 585 1000 q 557 954 569 965 q 526 928 546 943 q 489 895 502 910 q 474 856 476 880 l 363 856 z "},"ơ":{"ha":838,"x_min":48,"x_max":822,"o":"m 822 864 q 788 739 822 787 q 692 672 753 691 q 790 379 790 572 q 745 161 790 249 q 617 29 700 73 q 419 -15 534 -15 q 220 29 303 -15 q 93 161 138 73 q 48 378 48 249 q 145 673 48 574 q 424 772 242 772 q 507 767 460 772 q 553 765 543 765 q 647 790 615 765 q 679 873 679 815 q 667 969 679 913 l 808 969 q 822 864 822 923 m 419 154 q 500 175 468 154 q 549 245 532 196 q 566 377 566 294 q 549 512 566 462 q 500 583 532 562 q 419 603 467 603 q 338 583 370 603 q 289 513 306 562 q 272 380 272 464 q 289 245 272 295 q 338 175 306 196 q 419 154 369 154 z "},"ớ":{"ha":838,"x_min":48,"x_max":822,"o":"m 690 1122 l 510 856 l 317 856 l 465 1122 l 690 1122 m 822 864 q 788 739 822 787 q 692 672 753 691 q 790 379 790 572 q 745 161 790 249 q 617 29 700 73 q 419 -15 534 -15 q 220 29 303 -15 q 93 161 138 73 q 48 378 48 249 q 145 673 48 574 q 424 772 242 772 q 507 767 460 772 q 553 765 543 765 q 647 790 615 765 q 679 873 679 815 q 667 969 679 913 l 808 969 q 822 864 822 923 m 419 154 q 500 175 468 154 q 549 245 532 196 q 566 377 566 294 q 549 512 566 462 q 500 583 532 562 q 419 603 467 603 q 338 583 370 603 q 289 513 306 562 q 272 380 272 464 q 289 245 272 295 q 338 175 306 196 q 419 154 369 154 z "},"ợ":{"ha":838,"x_min":48,"x_max":822,"o":"m 822 864 q 788 739 822 787 q 692 672 753 691 q 790 379 790 572 q 745 161 790 249 q 617 29 700 73 q 419 -15 534 -15 q 220 29 303 -15 q 93 161 138 73 q 48 378 48 249 q 145 673 48 574 q 424 772 242 772 q 507 767 460 772 q 553 765 543 765 q 647 790 615 765 q 679 873 679 815 q 667 969 679 913 l 808 969 q 822 864 822 923 m 419 154 q 500 175 468 154 q 549 245 532 196 q 566 377 566 294 q 549 512 566 462 q 500 583 532 562 q 419 603 467 603 q 338 583 370 603 q 289 513 306 562 q 272 380 272 464 q 289 245 272 295 q 338 175 306 196 q 419 154 369 154 m 418 -308 q 329 -279 360 -308 q 298 -199 298 -250 q 329 -118 298 -147 q 418 -89 360 -89 q 507 -118 476 -89 q 538 -199 538 -147 q 507 -279 538 -250 q 418 -308 476 -308 z "},"ờ":{"ha":838,"x_min":48,"x_max":822,"o":"m 822 864 q 788 739 822 787 q 692 672 753 691 q 790 379 790 572 q 745 161 790 249 q 617 29 700 73 q 419 -15 534 -15 q 220 29 303 -15 q 93 161 138 73 q 48 378 48 249 q 145 673 48 574 q 424 772 242 772 q 507 767 460 772 q 553 765 543 765 q 647 790 615 765 q 679 873 679 815 q 667 969 679 913 l 808 969 q 822 864 822 923 m 419 154 q 500 175 468 154 q 549 245 532 196 q 566 377 566 294 q 549 512 566 462 q 500 583 532 562 q 419 603 467 603 q 338 583 370 603 q 289 513 306 562 q 272 380 272 464 q 289 245 272 295 q 338 175 306 196 q 419 154 369 154 m 311 856 l 123 1122 l 359 1122 l 515 856 l 311 856 z "},"ở":{"ha":838,"x_min":48,"x_max":822,"o":"m 822 864 q 788 739 822 787 q 692 672 753 691 q 790 379 790 572 q 745 161 790 249 q 617 29 700 73 q 419 -15 534 -15 q 220 29 303 -15 q 93 161 138 73 q 48 378 48 249 q 145 673 48 574 q 424 772 242 772 q 507 767 460 772 q 553 765 543 765 q 647 790 615 765 q 679 873 679 815 q 667 969 679 913 l 808 969 q 822 864 822 923 m 419 154 q 500 175 468 154 q 549 245 532 196 q 566 377 566 294 q 549 512 566 462 q 500 583 532 562 q 419 603 467 603 q 338 583 370 603 q 289 513 306 562 q 272 380 272 464 q 289 245 272 295 q 338 175 306 196 q 419 154 369 154 m 358 856 q 377 920 360 897 q 426 965 395 943 q 453 988 444 978 q 462 1010 462 998 q 446 1036 462 1028 q 394 1044 430 1044 q 279 1028 335 1044 l 279 1113 q 341 1126 305 1122 q 410 1131 378 1131 q 538 1105 497 1131 q 579 1024 579 1078 q 571 983 579 1000 q 552 954 563 965 q 521 928 540 943 q 484 895 497 910 q 469 856 471 880 l 358 856 z "},"ỡ":{"ha":838,"x_min":48,"x_max":822,"o":"m 507 892 q 453 901 478 892 q 393 926 428 909 q 342 949 363 942 q 298 956 321 956 q 233 942 263 956 q 172 897 203 928 l 172 1036 q 230 1076 199 1063 q 301 1090 262 1090 q 355 1081 331 1090 q 415 1056 380 1073 q 467 1033 446 1040 q 510 1026 488 1026 q 575 1040 545 1026 q 636 1085 606 1054 l 636 946 q 578 906 610 919 q 507 892 547 892 m 822 864 q 788 739 822 787 q 692 672 753 691 q 790 379 790 572 q 745 161 790 249 q 617 29 700 73 q 419 -15 534 -15 q 220 29 303 -15 q 93 161 138 73 q 48 378 48 249 q 145 673 48 574 q 424 772 242 772 q 507 767 460 772 q 553 765 543 765 q 647 790 615 765 q 679 873 679 815 q 667 969 679 913 l 808 969 q 822 864 822 923 m 419 154 q 500 175 468 154 q 549 245 532 196 q 566 377 566 294 q 549 512 566 462 q 500 583 532 562 q 419 603 467 603 q 338 583 370 603 q 289 513 306 562 q 272 380 272 464 q 289 245 272 295 q 338 175 306 196 q 419 154 369 154 z "},"ő":{"ha":838,"x_min":48,"x_max":790,"o":"m 419 -15 q 220 29 303 -15 q 93 161 138 73 q 48 378 48 249 q 144 673 48 574 q 419 772 241 772 q 693 672 596 772 q 790 379 790 573 q 745 161 790 249 q 617 29 700 73 q 419 -15 534 -15 m 419 154 q 500 175 468 154 q 549 245 532 196 q 566 377 566 294 q 549 512 566 462 q 500 583 532 562 q 419 603 467 603 q 338 583 370 603 q 289 513 306 562 q 272 380 272 464 q 289 245 272 295 q 338 175 306 196 q 419 154 369 154 m 197 856 l 298 1122 l 473 1122 l 360 856 l 197 856 m 477 856 l 578 1122 l 753 1122 l 640 856 l 477 856 z "},"ȏ":{"ha":838,"x_min":48,"x_max":790,"o":"m 419 -15 q 220 29 303 -15 q 93 161 138 73 q 48 378 48 249 q 144 673 48 574 q 419 772 241 772 q 693 672 596 772 q 790 379 790 573 q 745 161 790 249 q 617 29 700 73 q 419 -15 534 -15 m 419 154 q 500 175 468 154 q 549 245 532 196 q 566 377 566 294 q 549 512 566 462 q 500 583 532 562 q 419 603 467 603 q 338 583 370 603 q 289 513 306 562 q 272 380 272 464 q 289 245 272 295 q 338 175 306 196 q 419 154 369 154 m 166 876 q 237 1058 172 995 q 418 1120 302 1120 q 599 1058 533 1120 q 672 876 665 995 l 537 876 q 503 975 532 943 q 418 1008 474 1008 q 334 976 362 1008 q 301 876 306 944 l 166 876 z "},"ō":{"ha":838,"x_min":48,"x_max":790,"o":"m 419 -15 q 220 29 303 -15 q 93 161 138 73 q 48 378 48 249 q 144 673 48 574 q 419 772 241 772 q 693 672 596 772 q 790 379 790 573 q 745 161 790 249 q 617 29 700 73 q 419 -15 534 -15 m 419 154 q 500 175 468 154 q 549 245 532 196 q 566 377 566 294 q 549 512 566 462 q 500 583 532 562 q 419 603 467 603 q 338 583 370 603 q 289 513 306 562 q 272 380 272 464 q 289 245 272 295 q 338 175 306 196 q 419 154 369 154 m 172 919 l 172 1053 l 665 1053 l 665 919 l 172 919 z "},"ṓ":{"ha":838,"x_min":48,"x_max":790,"o":"m 419 -15 q 220 29 303 -15 q 93 161 138 73 q 48 378 48 249 q 144 673 48 574 q 419 772 241 772 q 693 672 596 772 q 790 379 790 573 q 745 161 790 249 q 617 29 700 73 q 419 -15 534 -15 m 419 154 q 500 175 468 154 q 549 245 532 196 q 566 377 566 294 q 549 512 566 462 q 500 583 532 562 q 419 603 467 603 q 338 583 370 603 q 289 513 306 562 q 272 380 272 464 q 289 245 272 295 q 338 175 306 196 q 419 154 369 154 m 172 919 l 172 1053 l 665 1053 l 665 919 l 172 919 m 317 1150 l 442 1360 l 676 1360 l 518 1150 l 317 1150 z "},"ṑ":{"ha":838,"x_min":48,"x_max":790,"o":"m 419 -15 q 220 29 303 -15 q 93 161 138 73 q 48 378 48 249 q 144 673 48 574 q 419 772 241 772 q 693 672 596 772 q 790 379 790 573 q 745 161 790 249 q 617 29 700 73 q 419 -15 534 -15 m 419 154 q 500 175 468 154 q 549 245 532 196 q 566 377 566 294 q 549 512 566 462 q 500 583 532 562 q 419 603 467 603 q 338 583 370 603 q 289 513 306 562 q 272 380 272 464 q 289 245 272 295 q 338 175 306 196 q 419 154 369 154 m 172 919 l 172 1053 l 665 1053 l 665 919 l 172 919 m 319 1150 l 160 1360 l 394 1360 l 519 1150 l 319 1150 z "},"ǫ":{"ha":838,"x_min":48,"x_max":790,"o":"m 569 8 q 438 -63 474 -26 q 402 -145 402 -101 q 424 -199 402 -180 q 486 -218 446 -218 q 571 -199 526 -218 l 575 -284 q 519 -301 547 -295 q 456 -307 491 -307 q 322 -269 369 -307 q 275 -162 275 -231 q 296 -79 275 -116 q 362 -12 317 -42 q 130 103 213 4 q 48 378 48 201 q 144 673 48 574 q 419 772 241 772 q 693 672 596 772 q 790 379 790 573 q 733 139 790 231 q 569 8 676 46 m 272 380 q 289 245 272 295 q 338 175 306 196 q 419 154 369 154 q 500 175 468 154 q 549 245 532 196 q 566 377 566 294 q 549 512 566 462 q 500 583 532 562 q 419 603 467 603 q 338 583 370 603 q 289 513 306 562 q 272 380 272 464 z "},"ø":{"ha":838,"x_min":48,"x_max":790,"o":"m 695 669 q 790 379 790 569 q 745 161 790 249 q 617 29 700 73 q 419 -15 534 -15 q 231 24 310 -15 l 183 -41 l 93 26 l 140 91 q 48 378 48 192 q 144 673 48 574 q 419 772 241 772 q 604 735 528 772 l 652 801 l 742 733 l 695 669 m 419 606 q 334 585 368 606 q 283 514 301 564 q 265 380 265 465 q 277 264 265 311 l 506 583 q 419 606 473 606 m 419 151 q 503 173 469 151 q 555 243 537 194 q 572 377 572 293 q 559 497 572 451 l 329 176 q 419 151 362 151 z "},"ǿ":{"ha":838,"x_min":48,"x_max":790,"o":"m 695 669 q 790 379 790 569 q 745 161 790 249 q 617 29 700 73 q 419 -15 534 -15 q 231 24 310 -15 l 183 -41 l 93 26 l 140 91 q 48 378 48 192 q 144 673 48 574 q 419 772 241 772 q 604 735 528 772 l 652 801 l 742 733 l 695 669 m 419 606 q 334 585 368 606 q 283 514 301 564 q 265 380 265 465 q 277 264 265 311 l 506 583 q 419 606 473 606 m 419 151 q 503 173 469 151 q 555 243 537 194 q 572 377 572 293 q 559 497 572 451 l 329 176 q 419 151 362 151 m 315 856 l 471 1122 l 707 1122 l 518 856 l 315 856 z "},"õ":{"ha":838,"x_min":48,"x_max":790,"o":"m 419 -15 q 220 29 303 -15 q 93 161 138 73 q 48 378 48 249 q 144 673 48 574 q 419 772 241 772 q 693 672 596 772 q 790 379 790 573 q 745 161 790 249 q 617 29 700 73 q 419 -15 534 -15 m 419 154 q 500 175 468 154 q 549 245 532 196 q 566 377 566 294 q 549 512 566 462 q 500 583 532 562 q 419 603 467 603 q 338 583 370 603 q 289 513 306 562 q 272 380 272 464 q 289 245 272 295 q 338 175 306 196 q 419 154 369 154 m 528 892 q 471 901 499 892 q 406 926 444 910 q 351 949 373 942 q 306 956 328 956 q 235 942 267 956 q 172 897 204 928 l 172 1036 q 233 1077 199 1064 q 309 1090 266 1090 q 366 1081 339 1090 q 431 1056 394 1072 q 487 1033 465 1040 q 532 1026 509 1026 q 602 1040 571 1026 q 665 1085 633 1053 l 665 946 q 605 905 638 918 q 528 892 572 892 z "},"ṍ":{"ha":838,"x_min":48,"x_max":790,"o":"m 419 -15 q 220 29 303 -15 q 93 161 138 73 q 48 378 48 249 q 144 673 48 574 q 419 772 241 772 q 693 672 596 772 q 790 379 790 573 q 745 161 790 249 q 617 29 700 73 q 419 -15 534 -15 m 419 154 q 500 175 468 154 q 549 245 532 196 q 566 377 566 294 q 549 512 566 462 q 500 583 532 562 q 419 603 467 603 q 338 583 370 603 q 289 513 306 562 q 272 380 272 464 q 289 245 272 295 q 338 175 306 196 q 419 154 369 154 m 528 892 q 471 901 499 892 q 406 926 444 910 q 351 949 373 942 q 306 956 328 956 q 235 942 267 956 q 172 897 204 928 l 172 1036 q 233 1077 199 1064 q 309 1090 266 1090 q 366 1081 339 1090 q 431 1056 394 1072 q 487 1033 465 1040 q 532 1026 509 1026 q 602 1040 571 1026 q 665 1085 633 1053 l 665 946 q 605 905 638 918 q 528 892 572 892 m 394 1344 l 519 1555 l 753 1555 l 594 1344 l 394 1344 z "},"ṏ":{"ha":838,"x_min":48,"x_max":790,"o":"m 419 -15 q 220 29 303 -15 q 93 161 138 73 q 48 378 48 249 q 144 673 48 574 q 419 772 241 772 q 693 672 596 772 q 790 379 790 573 q 745 161 790 249 q 617 29 700 73 q 419 -15 534 -15 m 419 154 q 500 175 468 154 q 549 245 532 196 q 566 377 566 294 q 549 512 566 462 q 500 583 532 562 q 419 603 467 603 q 338 583 370 603 q 289 513 306 562 q 272 380 272 464 q 289 245 272 295 q 338 175 306 196 q 419 154 369 154 m 528 892 q 471 901 499 892 q 406 926 444 910 q 351 949 373 942 q 306 956 328 956 q 235 942 267 956 q 172 897 204 928 l 172 1036 q 233 1077 199 1064 q 309 1090 266 1090 q 366 1081 339 1090 q 431 1056 394 1072 q 487 1033 465 1040 q 532 1026 509 1026 q 602 1040 571 1026 q 665 1085 633 1053 l 665 946 q 605 905 638 918 q 528 892 572 892 m 249 1131 q 160 1161 192 1131 q 129 1243 129 1190 q 160 1326 129 1296 q 249 1356 192 1356 q 338 1326 307 1356 q 369 1243 369 1296 q 338 1161 369 1190 q 249 1131 306 1131 m 588 1131 q 500 1161 531 1131 q 469 1243 469 1190 q 500 1326 469 1296 q 588 1356 531 1356 q 677 1326 646 1356 q 708 1243 708 1296 q 677 1161 708 1190 q 588 1131 646 1131 z "},"ȭ":{"ha":838,"x_min":48,"x_max":790,"o":"m 419 -15 q 220 29 303 -15 q 93 161 138 73 q 48 378 48 249 q 144 673 48 574 q 419 772 241 772 q 693 672 596 772 q 790 379 790 573 q 745 161 790 249 q 617 29 700 73 q 419 -15 534 -15 m 419 154 q 500 175 468 154 q 549 245 532 196 q 566 377 566 294 q 549 512 566 462 q 500 583 532 562 q 419 603 467 603 q 338 583 370 603 q 289 513 306 562 q 272 380 272 464 q 289 245 272 295 q 338 175 306 196 q 419 154 369 154 m 528 892 q 471 901 499 892 q 406 926 444 910 q 351 949 373 942 q 306 956 328 956 q 235 942 267 956 q 172 897 204 928 l 172 1036 q 233 1077 199 1064 q 309 1090 266 1090 q 366 1081 339 1090 q 431 1056 394 1072 q 487 1033 465 1040 q 532 1026 509 1026 q 602 1040 571 1026 q 665 1085 633 1053 l 665 946 q 605 905 638 918 q 528 892 572 892 m 172 1177 l 172 1310 l 665 1310 l 665 1177 l 172 1177 z "},"œ":{"ha":1283,"x_min":48,"x_max":1243,"o":"m 1243 315 l 788 315 q 814 219 792 254 q 883 168 836 184 q 1010 153 930 153 q 1201 177 1097 153 l 1201 11 q 980 -15 1090 -15 q 790 13 867 -15 q 666 94 713 40 q 408 -15 577 -15 q 217 29 298 -15 q 92 161 136 73 q 48 378 48 249 q 143 672 48 573 q 408 772 238 772 q 676 651 590 772 q 781 741 717 710 q 926 772 844 772 q 1097 727 1026 772 q 1206 593 1168 682 q 1243 374 1243 503 l 1243 315 m 913 631 q 820 589 851 631 q 788 444 790 546 l 1037 444 q 1005 589 1035 546 q 913 631 974 631 m 418 154 q 499 175 467 154 q 548 245 531 196 q 565 377 565 294 q 548 512 565 462 q 498 583 531 562 q 418 603 466 603 q 338 583 369 603 q 289 513 306 562 q 272 380 272 463 q 289 245 272 295 q 338 175 306 196 q 418 154 369 154 z "},"p":{"ha":855,"x_min":83,"x_max":807,"o":"m 83 760 l 269 760 l 283 679 l 293 679 q 378 747 326 722 q 495 772 430 772 q 653 732 583 772 q 765 609 724 693 q 807 394 807 524 q 701 91 807 195 q 393 -14 595 -14 q 305 -8 356 -14 l 305 -306 l 83 -306 l 83 760 m 392 155 q 536 207 490 155 q 583 377 583 260 q 544 543 583 495 q 430 590 504 590 q 360 577 394 590 q 305 539 327 565 l 305 163 q 392 155 345 155 z "},"þ":{"ha":855,"x_min":83,"x_max":807,"o":"m 83 1122 l 305 1122 l 305 686 l 315 686 q 399 749 349 727 q 512 772 449 772 q 661 731 594 772 q 767 606 728 691 q 807 394 807 522 q 701 91 807 195 q 393 -14 595 -14 q 305 -8 356 -14 l 305 -306 l 83 -306 l 83 1122 m 392 155 q 536 207 490 155 q 583 377 583 260 q 543 542 583 494 q 428 590 503 590 q 360 578 393 590 q 305 541 327 565 l 305 163 q 392 155 345 155 z "},"q":{"ha":855,"x_min":48,"x_max":772,"o":"m 550 72 l 540 72 q 456 8 506 31 q 343 -14 406 -14 q 194 26 260 -14 q 88 151 127 67 q 48 363 48 235 q 156 668 48 565 q 479 772 264 772 q 633 761 554 772 q 772 730 712 750 l 772 -306 l 550 -306 l 550 72 m 427 168 q 494 180 462 168 q 550 214 527 191 l 550 594 q 460 603 508 603 q 319 551 366 603 q 272 380 272 498 q 311 215 272 263 q 427 168 351 168 z "},"r":{"ha":562,"x_min":83,"x_max":554,"o":"m 83 760 l 264 760 l 281 662 l 292 662 q 375 743 323 717 q 493 770 427 770 q 554 765 526 770 l 554 564 q 479 570 524 570 q 380 551 428 570 q 305 497 331 531 l 305 0 l 83 0 l 83 760 z "},"ŕ":{"ha":562,"x_min":83,"x_max":606,"o":"m 83 760 l 264 760 l 281 662 l 292 662 q 375 743 323 717 q 493 770 427 770 q 554 765 526 770 l 554 564 q 479 570 524 570 q 380 551 428 570 q 305 497 331 531 l 305 0 l 83 0 l 83 760 m 214 856 l 370 1122 l 606 1122 l 417 856 l 214 856 z "},"ř":{"ha":562,"x_min":63,"x_max":569,"o":"m 83 760 l 264 760 l 281 662 l 292 662 q 375 743 323 717 q 493 770 427 770 q 554 765 526 770 l 554 564 q 479 570 524 570 q 380 551 428 570 q 305 497 331 531 l 305 0 l 83 0 l 83 760 m 410 1122 l 569 1122 l 407 856 l 225 856 l 63 1122 l 222 1122 l 316 960 l 410 1122 z "},"ŗ":{"ha":562,"x_min":69,"x_max":554,"o":"m 83 760 l 264 760 l 281 662 l 292 662 q 375 743 323 717 q 493 770 427 770 q 554 765 526 770 l 554 564 q 479 570 524 570 q 380 551 428 570 q 305 497 331 531 l 305 0 l 83 0 l 83 760 m 193 -89 q 318 -192 318 -89 q 303 -272 318 -230 q 264 -345 288 -314 l 127 -345 q 165 -244 158 -285 q 69 -167 69 -235 q 100 -109 69 -130 q 193 -89 131 -89 z "},"ȑ":{"ha":562,"x_min":-19,"x_max":554,"o":"m 83 760 l 264 760 l 281 662 l 292 662 q 375 743 323 717 q 493 770 427 770 q 554 765 526 770 l 554 564 q 479 570 524 570 q 380 551 428 570 q 305 497 331 531 l 305 0 l 83 0 l 83 760 m 94 856 l -19 1122 l 157 1122 l 258 856 l 94 856 m 374 856 l 262 1122 l 438 1122 l 538 856 l 374 856 z "},"ṛ":{"ha":562,"x_min":74,"x_max":554,"o":"m 83 760 l 264 760 l 281 662 l 292 662 q 375 743 323 717 q 493 770 427 770 q 554 765 526 770 l 554 564 q 479 570 524 570 q 380 551 428 570 q 305 497 331 531 l 305 0 l 83 0 l 83 760 m 194 -308 q 105 -279 136 -308 q 74 -199 74 -250 q 105 -118 74 -147 q 194 -89 136 -89 q 283 -118 251 -89 q 314 -199 314 -147 q 283 -279 314 -250 q 194 -308 251 -308 z "},"ȓ":{"ha":562,"x_min":63,"x_max":569,"o":"m 83 760 l 264 760 l 281 662 l 292 662 q 375 743 323 717 q 493 770 427 770 q 554 765 526 770 l 554 564 q 479 570 524 570 q 380 551 428 570 q 305 497 331 531 l 305 0 l 83 0 l 83 760 m 63 876 q 134 1058 69 995 q 315 1120 199 1120 q 497 1058 431 1120 q 569 876 563 995 l 434 876 q 400 975 429 943 q 315 1008 371 1008 q 231 976 259 1008 q 198 876 203 944 l 63 876 z "},"ṟ":{"ha":562,"x_min":-47,"x_max":554,"o":"m 83 760 l 264 760 l 281 662 l 292 662 q 375 743 323 717 q 493 770 427 770 q 554 765 526 770 l 554 564 q 479 570 524 570 q 380 551 428 570 q 305 497 331 531 l 305 0 l 83 0 l 83 760 m -47 -262 l -47 -131 l 433 -131 l 433 -262 l -47 -262 z "},"s":{"ha":681,"x_min":43,"x_max":647,"o":"m 306 -15 q 63 19 171 -15 l 63 181 q 303 147 175 147 q 407 166 375 147 q 440 222 440 185 q 424 265 440 251 q 371 288 409 280 l 248 310 q 92 383 142 329 q 43 528 43 437 q 83 657 43 603 q 202 742 122 712 q 401 772 283 772 q 509 765 456 772 q 605 748 562 759 l 605 585 q 408 610 513 610 q 249 534 249 610 q 265 494 249 509 q 317 472 281 478 l 440 449 q 596 378 546 429 q 647 230 647 327 q 607 99 647 154 q 490 15 567 44 q 306 -15 413 -15 z "},"ś":{"ha":681,"x_min":43,"x_max":647,"o":"m 306 -15 q 63 19 171 -15 l 63 181 q 303 147 175 147 q 407 166 375 147 q 440 222 440 185 q 424 265 440 251 q 371 288 409 280 l 248 310 q 92 383 142 329 q 43 528 43 437 q 83 657 43 603 q 202 742 122 712 q 401 772 283 772 q 509 765 456 772 q 605 748 562 759 l 605 585 q 408 610 513 610 q 249 534 249 610 q 265 494 249 509 q 317 472 281 478 l 440 449 q 596 378 546 429 q 647 230 647 327 q 607 99 647 154 q 490 15 567 44 q 306 -15 413 -15 m 242 856 l 398 1122 l 634 1122 l 445 856 l 242 856 z "},"ṥ":{"ha":681,"x_min":43,"x_max":647,"o":"m 306 -15 q 63 19 171 -15 l 63 181 q 303 147 175 147 q 407 166 375 147 q 440 222 440 185 q 424 265 440 251 q 371 288 409 280 l 248 310 q 92 383 142 329 q 43 528 43 437 q 83 657 43 603 q 202 742 122 712 q 401 772 283 772 q 509 765 456 772 q 605 748 562 759 l 605 585 q 408 610 513 610 q 249 534 249 610 q 265 494 249 509 q 317 472 281 478 l 440 449 q 596 378 546 429 q 647 230 647 327 q 607 99 647 154 q 490 15 567 44 q 306 -15 413 -15 m 228 1094 q 145 1116 174 1094 q 117 1178 117 1138 q 145 1239 117 1217 q 228 1261 174 1261 q 310 1239 282 1261 q 339 1178 339 1217 q 310 1116 339 1138 q 228 1094 282 1094 m 242 856 l 398 1122 l 634 1122 l 445 856 l 242 856 z "},"š":{"ha":681,"x_min":43,"x_max":647,"o":"m 306 -15 q 63 19 171 -15 l 63 181 q 303 147 175 147 q 407 166 375 147 q 440 222 440 185 q 424 265 440 251 q 371 288 409 280 l 248 310 q 92 383 142 329 q 43 528 43 437 q 83 657 43 603 q 202 742 122 712 q 401 772 283 772 q 509 765 456 772 q 605 748 562 759 l 605 585 q 408 610 513 610 q 249 534 249 610 q 265 494 249 509 q 317 472 281 478 l 440 449 q 596 378 546 429 q 647 230 647 327 q 607 99 647 154 q 490 15 567 44 q 306 -15 413 -15 m 438 1122 l 597 1122 l 435 856 l 253 856 l 90 1122 l 249 1122 l 344 960 l 438 1122 z "}}}
